<svg width="141" height="47" viewBox="0 0 141 47" fill="none" xmlns="http://www.w3.org/2000/svg">
<g clip-path="url(#clip0_1874_61718)">
<path d="M140.994 26.8677V26.688L140.98 26.5061C140.65 22.0444 138.74 17.8416 135.588 14.6398C132.435 11.4381 128.242 9.44344 123.75 9.00806C119.257 8.57269 114.754 9.72463 111.035 12.2604C107.316 14.7963 104.621 18.5528 103.426 22.8668C105.917 23.5984 108.271 24.7255 110.398 26.2043C110.827 23.4255 112.266 20.898 114.445 19.098C116.623 17.2981 119.391 16.35 122.226 16.4324C125.062 16.5148 127.769 17.6221 129.837 19.5455C131.906 21.4689 133.193 24.0757 133.456 26.8746C133.456 32.4027 133.456 46.2527 133.456 46.8493H140.984C140.994 46.7042 140.994 32.124 140.994 26.8677Z" fill="#A4BCC2"/>
<path d="M94.4108 39.8139C93.6274 39.8821 92.8641 40.0962 92.161 40.445C91.6212 40.6979 91.165 41.0976 90.8457 41.5976C90.5263 42.0976 90.357 42.6772 90.3574 43.269V46.8507H97.8087V39.8899C97.1422 39.8039 96.4704 39.7646 95.7983 39.7725C95.3706 39.7725 94.9035 39.7863 94.4108 39.8139Z" fill="#A4BCC2"/>
<path d="M95.7332 21.9916C96.4514 21.9916 97.1393 22.0147 97.8087 22.0561V8.90625H90.3574V22.4385C91.3724 22.2419 92.3998 22.1142 93.4323 22.0561C94.2155 22.0124 94.9895 21.9916 95.7332 21.9916Z" fill="#A4BCC2"/>
<path d="M7.45127 0H0V28.8979C0.277602 33.7429 2.41392 38.2994 5.97139 41.634C9.52885 44.9686 14.2382 46.829 19.1348 46.8342V39.4473C17.5868 39.4689 16.0499 39.1854 14.6134 38.6133C13.1769 38.0412 11.8694 37.1918 10.767 36.1146C9.66457 35.0373 8.78918 33.7537 8.19168 32.3382C7.59417 30.9228 7.28648 29.4038 7.28648 27.8695C7.28648 26.3352 7.59417 24.8161 8.19168 23.4007C8.78918 21.9852 9.66457 20.7016 10.767 19.6244C11.8694 18.5471 13.1769 17.6977 14.6134 17.1256C16.0499 16.5535 17.5868 16.27 19.1348 16.2916V8.90708C14.9049 8.90535 10.7945 10.2983 7.45127 12.8666V0Z" fill="#A4BCC2"/>
<path d="M25.1016 26.806V46.8452H32.5528V26.806C32.5565 24.018 33.6758 21.3453 35.6653 19.3741C37.6547 17.4029 40.3518 16.2942 43.165 16.2912H46.2514V8.9043H43.1626C38.374 8.91039 33.7833 10.7985 30.3975 14.1545C27.0117 17.5104 25.1071 22.0602 25.1016 26.806Z" fill="#A4BCC2"/>
<path d="M128.7 39.4519C112.592 40.7556 115.039 33.9239 104.683 28.8795C95.9227 25.1619 86.066 27.5896 79.3491 34.0828C73.4039 39.498 62.5756 42.2021 56.7862 35.4832L84.7296 24.153C82.173 15.5799 74.9681 8.74586 65.5854 8.90709C40.445 9.35164 40.4147 46.4034 65.5854 46.8503C82.3636 46.9194 85.1572 34.0229 96.2249 34.578C110.742 35.3842 105.545 48.6054 128.693 46.8365L128.7 39.4519ZM53.8995 27.8706C53.5463 17.3857 67.9026 12.2239 74.4521 20.3087L53.9391 28.6492C53.9205 28.4004 53.8995 28.1424 53.8995 27.8706Z" fill="#A4BCC2"/>
</g>
<defs>
<clipPath id="clip0_1874_61718">
<rect width="141" height="47" fill="white"/>
</clipPath>
</defs>
</svg>
