<svg width="204" height="49" viewBox="0 0 204 49" fill="none" xmlns="http://www.w3.org/2000/svg">
<g clip-path="url(#clip0_1874_61685)">
<path d="M198.455 20.4149V9.52605C199.974 9.52605 201.494 9.52605 203.013 9.52605C203.013 16.4666 203.013 23.3718 203.013 30.3123L189.867 19.388V30.3123C188.357 30.3123 186.855 30.3123 185.345 30.3123V9.52605L198.455 20.4149ZM176.301 27.0634H168.017L166.346 30.3212H161.27L171.583 9.88016L172.146 8.75586L172.718 9.88016L183.031 30.3212C181.333 30.3212 179.644 30.3212 177.946 30.3212L176.301 27.0634ZM170.269 22.5839H174.014L172.146 18.8746L170.269 22.5839ZM150.34 23.8055H145.783V30.3123C144.272 30.3123 142.771 30.3123 141.261 30.3123V9.52605H151.734C155.684 9.52605 158.92 12.7042 158.92 16.6525C158.92 19.2641 157.454 21.7251 155.121 22.9557L159.384 30.3123H154.147L150.34 23.8055ZM151.734 14.041H145.783V19.2641L151.734 19.2906C153.2 19.2906 154.362 18.1044 154.362 16.6525C154.371 15.2272 153.182 14.041 151.734 14.041ZM129.67 9.52605C132.941 9.52605 135.309 10.7831 137.561 13.0229L134.29 16.2099C132.878 14.7934 131.743 14.041 129.67 14.041C126.274 14.041 123.745 16.6968 123.745 19.9192C123.745 23.2213 126.345 25.7974 129.679 25.7974C131.359 25.7974 132.825 25.1689 133.986 23.9737V22.1589H129.044C129.044 20.6628 129.044 19.1756 129.044 17.6794H138.544V25.4787C136.471 28.4887 133.379 30.3123 129.679 30.3123C125.461 30.3123 121.591 27.7981 119.965 23.9118C119.446 22.6812 119.187 21.3533 119.187 19.9192C119.187 18.4939 119.446 17.166 119.965 15.9443C120.983 13.5098 123.182 11.3143 125.639 10.2962C126.882 9.78278 128.231 9.52605 129.67 9.52605ZM108.937 9.52605V25.7974H118.794C118.794 27.3024 118.794 28.8074 118.794 30.3123H104.415V9.52605C105.925 9.52605 107.436 9.52605 108.937 9.52605ZM187.41 40.1212V34.1633H185.908L183.549 37.5893C183.576 37.306 183.585 36.9342 183.585 36.5978V34.1633H181.994V40.1212H183.495L185.855 36.704C185.828 36.9873 185.819 37.3591 185.819 37.6867V40.1212H187.41ZM177.436 40.1212V37.8195H178.187L179.653 40.1212H181.413L179.438 37.067L181.333 34.1633H179.572L178.205 36.4207H177.445V34.1633H175.854V40.1212H177.436ZM173.334 33.4373V32.3662C172.87 32.6494 172.405 32.7203 171.913 32.7203C171.422 32.7203 170.957 32.6406 170.492 32.3662V33.4373C170.859 33.6852 171.279 33.8269 171.913 33.8269C172.548 33.8269 172.959 33.6852 173.334 33.4373ZM173.03 40.1212V37.6867C173.03 37.3591 173.039 36.9873 173.066 36.704L170.707 40.1212H169.206V34.1633H170.796V36.5978C170.796 36.9253 170.787 37.306 170.761 37.5893L173.12 34.1633H174.621V40.1212H173.03ZM166.65 37.1378C166.65 38.0939 166.096 38.8021 165.059 38.8021C164.022 38.8021 163.468 38.0939 163.468 37.1378C163.468 36.1817 164.022 35.4735 165.059 35.4735C166.105 35.4823 166.65 36.1817 166.65 37.1378ZM161.842 37.1378C161.842 38.8021 162.914 40.2451 165.068 40.2451C167.213 40.2451 168.294 38.7933 168.294 37.1378C168.294 35.4735 167.222 34.0305 165.068 34.0305C162.914 34.0305 161.842 35.4823 161.842 37.1378ZM159.42 34.1544L157.588 36.943L155.756 34.1544H154.255V40.1123H155.845V36.9342L157.132 38.8995H158.044L159.331 36.943V40.1123H160.921V34.1544H159.42ZM147.07 34.1544V40.1123H151.457V38.749H148.66V37.7752H151.145V36.4207H148.66V35.5089H151.404V34.1456H147.07V34.1544ZM145.854 40.1212V34.1633H144.263V40.1212H145.854ZM140.465 37.3945H141.332C141.815 37.3945 142.244 37.5362 142.244 38.0762C142.244 38.6162 141.815 38.7578 141.332 38.7578H140.465V37.3945ZM141.252 40.1212C142.735 40.1212 143.87 39.6431 143.87 38.0762C143.87 36.5092 142.735 36.0401 141.252 36.0312H140.465V34.1544H138.875V40.1123H141.252V40.1212ZM136.06 34.1544V36.4384H133.825V34.1544H132.235V40.1123H133.825V37.8372H136.06V40.1123H137.65V34.1544H136.06ZM129.429 34.1544V36.4384H127.194V34.1544H125.604V40.1123H127.194V37.8372H129.429V40.1123H131.019V34.1544H129.429ZM120.215 34.1544V40.1123H124.603V38.749H121.806V37.7752H124.29V36.4207H121.806V35.5089H124.549V34.1456H120.215V34.1544ZM117.489 34.1544L115.657 36.943L113.825 34.1544H112.324V40.1123H113.915V36.9342L115.201 38.8995H116.113L117.4 36.943V40.1123H118.991V34.1544H117.489ZM108.276 36.1817C108.329 36.0401 108.383 35.8896 108.427 35.5797C108.481 35.8984 108.535 36.0401 108.579 36.1817L109.196 37.8991H107.65L108.276 36.1817ZM106.846 40.1212L107.185 39.1828H109.679L110.027 40.1212H111.663L109.303 34.1633H107.587L105.228 40.1212H106.846ZM101.207 40.1212V37.8195H101.957L103.423 40.1212H105.183L103.208 37.067L105.103 34.1633H103.343L101.975 36.4207H101.216V34.1633H99.6249V40.1212H101.207ZM101.689 21.5569C101.689 26.4083 97.7661 30.3123 92.8241 30.3123C87.9089 30.3123 84.0215 26.4083 84.0215 21.5569V9.52605C85.5318 9.52605 87.0331 9.52605 88.5434 9.52605V21.5569C88.5434 23.9649 90.4648 25.7974 92.8241 25.7974C95.1744 25.7974 97.1315 23.8764 97.1315 21.5569V9.52605C98.6508 9.52605 100.17 9.52605 101.689 9.52605V21.5569Z" fill="#333D5A"/>
<path fill-rule="evenodd" clip-rule="evenodd" d="M0 3.54063C2.80611 4.73576 5.90712 6.03711 6.22884 6.09908C6.8276 6.22302 8.82941 4.2223 18.3201 3.85048C22.9136 3.67343 25.1388 3.74425 26.5418 3.86819V14.3764C26.5418 18.6611 30.0629 22.1403 34.3793 22.1403C38.7046 22.1403 42.2257 18.6611 42.2257 14.3764V9.57821H34.3793V2.1419C35.8091 1.22121 37.5071 0.335938 39.9736 0.335938H40.4562H51.5466V2.35437V14.3764C51.5466 23.7249 43.8074 31.3826 34.3793 31.3826C24.9422 31.3826 17.203 23.7249 17.203 14.3764V9.57821H9.32092V14.9341C9.32092 28.5851 20.599 39.7484 34.3703 39.7484C48.1507 39.7484 59.4287 28.5762 59.4287 14.9341V2.35437H68.7586V14.9341C68.7586 33.6666 53.2803 48.9907 34.3703 48.9907C15.4783 48.9995 0 33.6666 0 14.9341V3.54063Z" fill="#41B9CA"/>
<path fill-rule="evenodd" clip-rule="evenodd" d="M0 7.44517C3.27975 4.329 7.81957 2.15122 11.8053 1.93875C17.2299 1.64661 21.3407 5.25854 26.5418 7.03794V14.3857C26.5418 18.6705 30.0629 22.1496 34.3793 22.1496C38.7046 22.1496 42.2257 18.6705 42.2257 14.3857V9.58753H34.3793V7.8878C40.0362 7.26811 46.122 4.38211 48.9371 0.345257H51.5555V14.3857C51.5555 23.7342 43.8164 31.3919 34.3882 31.3919C24.9511 31.3919 17.212 23.7342 17.212 14.3857V9.58753H9.32986V14.9434C9.32986 28.5944 20.6079 39.7577 34.3793 39.7577C48.1596 39.7577 59.4376 28.5855 59.4376 14.9434V0H68.6156C68.696 0.239024 68.7139 0.478049 68.7675 0.779042V14.9434C68.7675 33.6759 53.2892 49 34.3793 49C15.4783 49 0 33.667 0 14.9346V7.44517Z" fill="#AFCCB4"/>
<path fill-rule="evenodd" clip-rule="evenodd" d="M3.25294 4.92213C5.71052 5.9579 5.78201 6.01987 6.22884 6.09955C6.66674 6.18808 9.9733 4.1785 19.464 3.80668C22.3327 4.99295 23.9681 6.17037 26.5418 7.03794V14.3857C26.5418 18.6705 30.0629 22.1496 34.3793 22.1496C38.7046 22.1496 42.2257 18.6705 42.2257 14.3857V9.58753H34.3793V7.79042C39.5357 7.02909 46.131 4.22276 48.9281 0.336405H51.5555V14.3769C51.5555 23.7254 43.8164 31.383 34.3882 31.383C24.9511 31.383 17.212 23.7254 17.212 14.3769V9.57868H9.32986V14.9346C9.32986 28.5855 20.6079 39.7489 34.3793 39.7489C48.1596 39.7489 59.4376 28.5767 59.4376 14.9346V0H68.7675V14.9346C68.7675 33.667 53.2892 48.9911 34.3793 48.9911C15.4783 49 0 33.667 0 14.9346V6.48907C1.01878 6.16152 2.28778 5.64806 3.25294 4.92213Z" fill="#39847F"/>
<path fill-rule="evenodd" clip-rule="evenodd" d="M17.212 9.93279C18.0342 9.84426 19.0708 9.80885 20.456 9.80885C22.2701 9.80885 24.406 8.90587 26.5418 7.77272V14.3857C26.5418 18.6705 30.0629 22.1496 34.3793 22.1496C38.7046 22.1496 42.2257 18.6705 42.2257 14.3857V9.58753H34.3793V3.50569C37.0245 2.16893 38.0612 1.50497 40.349 1.92105C43.0031 2.3991 48.0613 3.7093 49.7503 4.31129C50.3312 4.5149 50.9657 4.62114 51.5466 4.67425V14.3769C51.5466 23.7254 43.8074 31.383 34.3793 31.383C24.9422 31.383 17.203 23.7254 17.203 14.3769V9.93279H17.212ZM0 13.1375C2.36821 13.5359 5.82669 14.0051 7.55147 13.6332C8.15916 13.5005 8.75791 13.3588 9.32986 13.1995V14.9434C9.32986 28.5944 20.6079 39.7577 34.3793 39.7577C48.1596 39.7577 59.4376 28.5855 59.4376 14.9434V0.522313L60.0989 0H68.7675V14.9346C68.7675 33.667 53.2892 48.9911 34.3793 48.9911C15.4783 49 0 33.667 0 14.9346V13.1375Z" fill="#4B94C6"/>
<path fill-rule="evenodd" clip-rule="evenodd" d="M59.4376 0.035411L59.4823 0H68.7675V14.9346C68.7675 33.667 53.2892 48.9911 34.3793 48.9911C15.4783 49 0 33.667 0 14.9346V13.1286C2.36821 13.527 5.82669 13.9962 7.55147 13.6244C8.15916 13.4916 8.75791 13.35 9.32986 13.1906V14.9346C9.32986 28.5855 20.6079 39.7489 34.3793 39.7489C48.1596 39.7489 59.4376 28.5767 59.4376 14.9346V0.035411ZM34.3793 7.63993C38.1505 7.02909 43.0478 5.50641 45.9522 3.2224C47.4804 3.62963 49.0175 4.05456 49.7503 4.32014C50.3312 4.52376 50.9657 4.62999 51.5466 4.68311V14.3857C51.5466 23.7342 43.8074 31.3919 34.3793 31.3919C24.9422 31.3919 17.203 23.7342 17.203 14.3857V9.94164C18.0252 9.85312 19.0619 9.81771 20.447 9.81771C22.2612 9.81771 24.397 8.91472 26.5329 7.78157V14.3946C26.5329 18.6793 30.0539 22.1584 34.3703 22.1584C38.6957 22.1584 42.2167 18.6793 42.2167 14.3946V9.59639H34.3703V7.63993H34.3793Z" fill="#3B5F75"/>
<path fill-rule="evenodd" clip-rule="evenodd" d="M51.1176 18.1836C47.7664 17.98 44.3973 18.0154 41.3052 18.0331C39.9826 20.4765 37.382 22.1408 34.3882 22.1408C30.7242 22.1408 27.641 19.6355 26.7831 16.2626C22.1361 15.0409 18.8831 14.1202 17.2209 13.5891V14.3681C17.2209 23.7166 24.9601 31.3742 34.3972 31.3742C42.5027 31.3831 49.3571 25.7173 51.1176 18.1836ZM67.6147 23.6458C65.3358 21.468 62.351 20.1224 59.0444 19.3079C56.9443 30.8962 46.6582 39.7578 34.3793 39.7578C20.599 39.7578 9.32986 28.5856 9.32986 14.9435V9.58762H12.2164C12.1092 9.5345 11.993 9.49024 11.8857 9.45483C10.0805 8.86169 9.95543 8.38364 6.94377 8.97678C5.00452 9.35745 2.10011 10.3844 0 11.3228V14.9347C0 33.6671 15.4783 48.9912 34.3793 48.9912C50.2508 49.0001 63.7094 38.1997 67.6147 23.6458Z" fill="#364F5E"/>
<path fill-rule="evenodd" clip-rule="evenodd" d="M18.052 19.6008C20.5007 21.0084 25.0137 23.4695 31.3051 26.7981C33.6286 28.0286 37.096 28.9936 41.046 30.0382C38.9995 30.9058 36.7475 31.3838 34.3882 31.3838C26.7831 31.3838 20.2862 26.4174 18.052 19.6008ZM0 14.0059C2.36821 15.0859 5.82669 16.5112 7.55147 16.5112C8.17703 16.5112 8.78472 16.5112 9.38348 16.52C10.2146 29.4362 21.1441 39.7497 34.3793 39.7497C40.9656 39.7497 46.98 37.2001 51.4572 33.0481C54.594 34.1105 57.695 35.3853 60.5011 37.0142C54.1829 44.3354 44.7994 48.9919 34.3793 48.9919C15.4783 49.0008 0 33.6678 0 14.9354V14.0059Z" fill="#333D5A"/>
</g>
<defs>
<clipPath id="clip0_1874_61685">
<rect width="203.005" height="49" fill="white"/>
</clipPath>
</defs>
</svg>
