<svg width="195" height="26" viewBox="0 0 195 26" fill="none" xmlns="http://www.w3.org/2000/svg">
<path fill-rule="evenodd" clip-rule="evenodd" d="M0 0.3125H40.6282L29.1554 9.88753L11.2525 25.8198V9.87449L0 0.3125Z" fill="#3A1467"/>
<path fill-rule="evenodd" clip-rule="evenodd" d="M70.1718 6.33126H61.6287V24.9993H54.6153V6.33126H46.0723V0.338721H70.1718V6.33126ZM189.541 12.6495C189.541 14.9553 189.036 17.0657 188.038 19.0068C187.027 20.9348 185.536 22.472 183.552 23.6184C181.569 24.7648 179.145 25.325 176.306 25.325C173.428 25.325 170.99 24.7388 168.994 23.5533C166.998 22.3678 165.52 20.8045 164.547 18.8765C163.575 16.9354 163.096 14.8771 163.096 12.6625C163.096 10.4479 163.575 8.37653 164.547 6.4485C165.507 4.52047 166.998 2.97025 168.994 1.78477C170.99 0.612314 173.441 0.01304 176.319 0.01304C178.471 0.01304 180.389 0.351747 182.074 1.02916C183.76 1.70658 185.147 2.61851 186.236 3.77793C187.325 4.93736 188.141 6.27913 188.712 7.81635C189.256 9.34053 189.541 10.9559 189.541 12.6495ZM182.373 12.6495C182.373 11.7245 182.243 10.8778 181.984 10.1092C181.724 9.34055 181.335 8.67616 180.817 8.11599C180.298 7.55582 179.663 7.11288 178.911 6.80022C178.159 6.48757 177.291 6.33126 176.306 6.33126C174.426 6.33126 172.948 6.91748 171.872 8.07691C170.796 9.23633 170.252 10.7605 170.252 12.6495C170.252 14.5384 170.796 16.0626 171.872 17.2351C172.961 18.4075 174.439 18.9937 176.306 18.9937C177.602 18.9937 178.691 18.7202 179.598 18.1861C180.506 17.6519 181.193 16.8964 181.673 15.9454C182.139 14.9814 182.373 13.8871 182.373 12.6495ZM163.471 24.9993L161.112 19.6451C160.269 17.704 159.608 16.4274 159.116 15.7891C158.623 15.1507 158.014 14.6036 157.249 14.1476C157.871 13.7959 158.442 13.4181 158.947 13.0272C159.453 12.6364 159.932 12.0111 160.386 11.1513C160.84 10.2915 161.073 9.23634 161.073 7.99875C161.073 6.93051 160.801 5.81017 160.257 4.6247C159.712 3.43922 158.818 2.42308 157.586 1.60237C156.354 0.768622 154.773 0.364761 152.841 0.364761H140.876V25.0254H147.915V15.3982H148.706C149.51 15.3982 150.171 15.5024 150.676 15.7109C151.195 15.9193 151.713 16.4013 152.258 17.1309C152.789 17.8734 153.399 19.0458 154.073 20.6482L155.914 25.0254H163.471V24.9993ZM153.917 8.12903C153.917 9.2624 153.606 10.018 152.971 10.4218C152.336 10.8126 151.156 11.0211 149.445 11.0211H147.928V5.08066H149.406C151 5.08066 152.141 5.30211 152.854 5.75806C153.554 6.20099 153.917 6.99566 153.917 8.12903ZM137.557 24.9993H119.978V0.338721H137.272V5.28906H127.005V9.80951H136.792V14.7729H127.005V20.0359H137.557V24.9993ZM116.582 24.9993H98.8734V0.338721H105.9V19.0849H116.582V24.9993ZM96.5659 12.6495C96.5659 10.9559 96.2807 9.34056 95.7232 7.80335C95.1658 6.26613 94.3361 4.92432 93.2472 3.76489C92.1582 2.60547 90.7711 1.69354 89.0858 1.01612C87.4005 0.338707 85.4819 0 83.3299 0C80.452 0 78.0019 0.586247 76.0054 1.77173C74.009 2.95721 72.5182 4.50743 71.5589 6.43546C70.5866 8.36349 70.107 10.4349 70.107 12.6495C70.107 14.8511 70.5866 16.9224 71.5589 18.8635C72.5312 20.7915 74.009 22.3548 76.0054 23.5402C78.0019 24.7257 80.439 25.312 83.317 25.312C86.169 25.312 88.5802 24.7388 90.5637 23.6054C92.5471 22.472 94.0379 20.9348 95.0491 18.9937C96.0603 17.0657 96.5659 14.9553 96.5659 12.6495ZM89.3969 12.6495C89.3969 13.8871 89.1636 14.9813 88.6969 15.9323C88.2302 16.8833 87.5302 17.6389 86.6227 18.173C85.7152 18.7202 84.6133 18.9807 83.3299 18.9807C81.4632 18.9807 79.9853 18.3945 78.8963 17.222C77.8204 16.0496 77.2759 14.5254 77.2759 12.6364C77.2759 10.7475 77.8074 9.22329 78.8963 8.06387C79.9723 6.90444 81.4502 6.31822 83.3429 6.31822C84.3281 6.31822 85.1967 6.47457 85.9486 6.78722C86.7005 7.09988 87.3357 7.54278 87.8543 8.10295C88.3728 8.66312 88.7617 9.32751 89.021 10.0961C89.2673 10.8777 89.3969 11.7245 89.3969 12.6495Z" fill="#3A1467"/>
<path fill-rule="evenodd" clip-rule="evenodd" d="M28.8829 11.3984V25.8196L21.5195 17.9642L23.4122 16.2707L26.4457 13.574L28.8829 11.3984Z" fill="#A38DC2"/>
<path fill-rule="evenodd" clip-rule="evenodd" d="M191.539 0.259766C192.019 0.259766 192.499 0.390049 192.965 0.637567C193.432 0.885084 193.782 1.24982 194.041 1.70577C194.301 2.17475 194.43 2.65679 194.43 3.16486C194.43 3.65989 194.301 4.14188 194.054 4.61086C193.795 5.06681 193.445 5.4316 192.991 5.69214C192.538 5.95269 192.058 6.06991 191.552 6.06991C191.047 6.06991 190.567 5.93966 190.113 5.69214C189.66 5.4316 189.297 5.07984 189.037 4.61086C188.778 4.15491 188.648 3.67292 188.648 3.16486C188.648 2.65679 188.778 2.17475 189.037 1.70577C189.297 1.23679 189.66 0.885084 190.113 0.637567C190.58 0.390049 191.047 0.259766 191.539 0.259766ZM191.539 0.741767C191.137 0.741767 190.736 0.845973 190.347 1.05441C189.958 1.26284 189.66 1.56247 189.439 1.95329C189.219 2.34411 189.115 2.74798 189.115 3.16486C189.115 3.58173 189.219 3.98555 189.439 4.36334C189.647 4.74113 189.945 5.04076 190.334 5.26222C190.723 5.47066 191.112 5.5879 191.539 5.5879C191.954 5.5879 192.356 5.48369 192.732 5.26222C193.121 5.05379 193.419 4.75416 193.627 4.36334C193.834 3.98555 193.938 3.58173 193.938 3.16486C193.938 2.74798 193.834 2.34411 193.614 1.95329C193.393 1.56247 193.095 1.26284 192.706 1.05441C192.33 0.845973 191.941 0.741767 191.539 0.741767ZM190.269 4.76718H190.774V3.43842H191.073C191.254 3.43842 191.384 3.47748 191.475 3.54262C191.604 3.63381 191.786 3.88132 192.006 4.27214L192.278 4.76718H192.888L192.512 4.1549C192.33 3.8683 192.175 3.65986 192.045 3.54262C191.98 3.47748 191.889 3.4254 191.786 3.3733C192.058 3.34724 192.265 3.25605 192.434 3.08669C192.602 2.91734 192.68 2.7219 192.68 2.48741C192.68 2.33109 192.628 2.17475 192.538 2.03145C192.434 1.88815 192.304 1.78396 192.149 1.73185C191.98 1.67974 191.721 1.64065 191.358 1.64065H190.282V4.76718H190.269ZM190.774 3.00849H191.384C191.669 3.00849 191.876 2.96944 191.98 2.87825C192.084 2.78706 192.136 2.68283 192.136 2.53953C192.136 2.44834 192.11 2.37018 192.058 2.29201C192.006 2.21385 191.941 2.16173 191.85 2.12265C191.76 2.08357 191.591 2.07057 191.345 2.07057H190.774V3.00849Z" fill="#3A1467"/>
</svg>
