<svg width="44" height="44" viewBox="0 0 44 44" fill="none" xmlns="http://www.w3.org/2000/svg">
<path d="M35.2 35.2C32.758 35.2 30.8 37.158 30.8 39.6C30.8 40.767 31.2636 41.8861 32.0887 42.7113C32.9139 43.5364 34.033 44 35.2 44C36.367 44 37.4861 43.5364 38.3113 42.7113C39.1364 41.8861 39.6 40.767 39.6 39.6C39.6 37.158 37.62 35.2 35.2 35.2ZM0 0V4.4H4.4L12.32 21.098L9.328 26.488C8.998 27.104 8.8 27.83 8.8 28.6C8.8 29.767 9.26357 30.8861 10.0887 31.7113C10.9139 32.5364 12.033 33 13.2 33H39.6V28.6H14.124C13.9781 28.6 13.8382 28.5421 13.7351 28.4389C13.6319 28.3358 13.574 28.1959 13.574 28.05C13.574 27.94 13.596 27.852 13.64 27.786L15.62 24.2H32.01C33.66 24.2 35.112 23.276 35.86 21.934L43.736 7.7C43.89 7.348 44 6.974 44 6.6C44 6.01652 43.7682 5.45695 43.3556 5.04437C42.9431 4.63179 42.3835 4.4 41.8 4.4H9.262L7.194 0H0ZM13.2 35.2C10.758 35.2 8.8 37.158 8.8 39.6C8.8 40.767 9.26357 41.8861 10.0887 42.7113C10.9139 43.5364 12.033 44 13.2 44C14.367 44 15.4861 43.5364 16.3113 42.7113C17.1364 41.8861 17.6 40.767 17.6 39.6C17.6 37.158 15.62 35.2 13.2 35.2Z" fill="#313896"/>
</svg>
