<svg width="60" height="68" viewBox="0 0 60 68" fill="none" xmlns="http://www.w3.org/2000/svg">
<g clip-path="url(#clip0_2121_70361)">
<g filter="url(#filter0_f_2121_70361)">
<path d="M30.51 56.523C30.5041 56.6516 30.4488 56.7729 30.3557 56.8618C30.2625 56.9506 30.1387 57.0001 30.01 57C29.72 57 29.5 56.79 29.49 56.523C29.345 53.355 27.734 51.306 24.658 50.376C14.53 47.968 7 38.863 7 28C7 15.297 17.297 5 30 5C42.703 5 53 15.297 53 28C53 38.863 45.47 47.968 35.342 50.376C32.266 51.306 30.655 53.356 30.512 56.523H30.51Z" fill="#FF3333"/>
</g>
<path d="M30.51 56.523C30.5041 56.6516 30.4488 56.7729 30.3557 56.8618C30.2625 56.9506 30.1387 57.0001 30.01 57C29.72 57 29.5 56.79 29.49 56.523C29.345 53.355 27.734 51.306 24.658 50.376C14.53 47.968 7 38.863 7 28C7 15.297 17.297 5 30 5C42.703 5 53 15.297 53 28C53 38.863 45.47 47.968 35.342 50.376C32.266 51.306 30.655 53.356 30.512 56.523H30.51Z" fill="#FF3333"/>
<path d="M30 68C27.79 68 26 66.21 26 64C26 61.79 27.79 60 30 60C32.21 60 34 61.79 34 64C34 66.21 32.21 68 30 68Z" fill="white"/>
<path fill-rule="evenodd" clip-rule="evenodd" d="M29.9997 65.9995C30.266 66.0055 30.5309 65.9583 30.7787 65.8605C31.0266 65.7628 31.2524 65.6165 31.4429 65.4303C31.6334 65.2441 31.7848 65.0217 31.8882 64.7761C31.9916 64.5306 32.0449 64.2669 32.0449 64.0005C32.045 63.7341 31.9918 63.4704 31.8886 63.2248C31.7853 62.9792 31.634 62.7567 31.4436 62.5704C31.2532 62.3841 31.0274 62.2377 30.7797 62.1399C30.5319 62.042 30.267 61.9946 30.0007 62.0005C29.4781 62.012 28.9809 62.2277 28.6153 62.6013C28.2498 62.9749 28.0451 63.4768 28.0449 63.9995C28.0448 64.5222 28.2493 65.0242 28.6146 65.398C28.98 65.7718 29.4772 65.9877 29.9997 65.9995Z" fill="#FF3333"/>
</g>
<path fill-rule="evenodd" clip-rule="evenodd" d="M28 36.2V41H39.4C39.4788 41 39.5568 40.9845 39.6296 40.9543C39.7024 40.9242 39.7685 40.88 39.8243 40.8243C39.88 40.7685 39.9242 40.7024 39.9543 40.6296C39.9845 40.5568 40 40.4788 40 40.4V26.6C40 26.5212 39.9845 26.4432 39.9543 26.3704C39.9242 26.2976 39.88 26.2315 39.8243 26.1757C39.7685 26.12 39.7024 26.0758 39.6296 26.0457C39.5568 26.0155 39.4788 26 39.4 26H34.446L34.288 28H38V29H34.21L34.051 31H38V32H33.972L33.599 36.715C33.5966 36.7549 33.5863 36.7939 33.5687 36.8299C33.5512 36.8658 33.5267 36.8978 33.4966 36.9242C33.4666 36.9506 33.4317 36.9708 33.3938 36.9837C33.3559 36.9965 33.3159 37.0017 33.276 36.999C33.1996 36.9915 33.1289 36.9555 33.0778 36.8983C33.0266 36.8411 32.9989 36.7667 33 36.69V20.4C33 20.2939 32.9579 20.1922 32.8828 20.1172C32.8078 20.0421 32.7061 20 32.6 20H32V19.4C32 19.2939 31.9579 19.1922 31.8828 19.1172C31.8078 19.0421 31.7061 19 31.6 19H21.4C21.2939 19 21.1922 19.0421 21.1172 19.1172C21.0421 19.1922 21 19.2939 21 19.4V20H20.4C20.2939 20 20.1922 20.0421 20.1172 20.1172C20.0421 20.1922 20 20.2939 20 20.4V40.4C20 40.5591 20.0632 40.7117 20.1757 40.8243C20.2883 40.9368 20.4409 41 20.6 41H25V36.2C25 36.09 25.09 36 25.2 36H27.8C27.91 36 28 36.09 28 36.2ZM23.5 33V27H25.5V33H23.5ZM27.5 27V33H29.5V27H27.5ZM23.5 25V22H25.5V25H23.5ZM27.5 22V25H29.5V22H27.5ZM35 35V34H38V35H35Z" fill="white"/>
<path d="M34.5264 25L34.6054 24H37.6004C37.8204 24 38.0004 24.18 38.0004 24.4V25H34.5264Z" fill="white"/>
<defs>
<filter id="filter0_f_2121_70361" x="1" y="-1" width="58" height="64" filterUnits="userSpaceOnUse" color-interpolation-filters="sRGB">
<feFlood flood-opacity="0" result="BackgroundImageFix"/>
<feBlend mode="normal" in="SourceGraphic" in2="BackgroundImageFix" result="shape"/>
<feGaussianBlur stdDeviation="3" result="effect1_foregroundBlur_2121_70361"/>
</filter>
<clipPath id="clip0_2121_70361">
<rect width="60" height="68" fill="white"/>
</clipPath>
</defs>
</svg>
