<svg width="18" height="24" viewBox="0 0 18 24" fill="none" xmlns="http://www.w3.org/2000/svg">
<path d="M9.0001 11.4C8.20445 11.4 7.44139 11.0839 6.87878 10.5213C6.31617 9.95871 6.0001 9.19565 6.0001 8.4C6.0001 7.60435 6.31617 6.84129 6.87878 6.27868C7.44139 5.71607 8.20445 5.4 9.0001 5.4C9.79575 5.4 10.5588 5.71607 11.1214 6.27868C11.684 6.84129 12.0001 7.60435 12.0001 8.4C12.0001 8.79397 11.9225 9.18407 11.7717 9.54805C11.621 9.91203 11.4 10.2427 11.1214 10.5213C10.8428 10.7999 10.5121 11.0209 10.1481 11.1716C9.78417 11.3224 9.39406 11.4 9.0001 11.4ZM9.0001 0C6.77228 0 4.63571 0.884997 3.0604 2.4603C1.48509 4.03561 0.600098 6.17218 0.600098 8.4C0.600098 14.7 9.0001 24 9.0001 24C9.0001 24 17.4001 14.7 17.4001 8.4C17.4001 6.17218 16.5151 4.03561 14.9398 2.4603C13.3645 0.884997 11.2279 0 9.0001 0Z" fill="#313896"/>
</svg>
