<svg width="32" height="44" viewBox="0 0 32 44" fill="none" xmlns="http://www.w3.org/2000/svg">
<path d="M15.9996 20.9C14.5409 20.9 13.142 20.3205 12.1105 19.2891C11.0791 18.2576 10.4996 16.8587 10.4996 15.4C10.4996 13.9413 11.0791 12.5424 12.1105 11.5109C13.142 10.4795 14.5409 9.9 15.9996 9.9C17.4583 9.9 18.8572 10.4795 19.8887 11.5109C20.9201 12.5424 21.4996 13.9413 21.4996 15.4C21.4996 16.1223 21.3573 16.8375 21.0809 17.5048C20.8045 18.1721 20.3994 18.7784 19.8887 19.2891C19.378 19.7998 18.7717 20.2049 18.1044 20.4813C17.4371 20.7577 16.7219 20.9 15.9996 20.9V20.9ZM15.9996 0C11.9153 0 7.99822 1.6225 5.11016 4.51056C2.2221 7.39862 0.599609 11.3157 0.599609 15.4C0.599609 26.95 15.9996 44 15.9996 44C15.9996 44 31.3996 26.95 31.3996 15.4C31.3996 11.3157 29.7771 7.39862 26.8891 4.51056C24.001 1.6225 20.0839 0 15.9996 0V0Z" fill="#313896"/>
</svg>
