<svg width="226" height="113" viewBox="0 0 226 113" fill="none" xmlns="http://www.w3.org/2000/svg">
<path d="M207.374 112.524C207.374 112.524 234.493 85.7151 211.96 56.6899C191.968 30.9375 168.659 32.6973 151.558 43.1482C144.274 47.5996 123.275 43.6966 105.401 17.4923C81.0262 -18.2435 -3.46437 3.43013 11.9408 58.4107C19.3962 85.0173 -10.7483 85.9843 4.61124 112.58L207.374 112.524Z" fill="#313896" fill-opacity="0.1"/>
<path d="M224.823 113H3.3658C3.22235 113 3.10547 112.845 3.10547 112.654V112.507C3.10547 112.316 3.22311 112.16 3.3658 112.16H224.822C224.965 112.16 225.082 112.316 225.082 112.507V112.654C225.083 112.844 224.966 113 224.823 113Z" fill="#2E3552"/>
<path d="M207.447 112.16H57.4052C56.5055 112.16 55.7773 111.426 55.7773 110.523V15.1444C55.7773 12.8819 57.6009 11.0469 59.8517 11.0469H202.928C206.323 11.0469 209.076 13.8142 209.076 17.2292V110.523C209.075 111.428 208.345 112.16 207.447 112.16Z" fill="#313896"/>
<path d="M202.642 109.864H61.4888C60.2324 109.864 59.2148 108.839 59.2148 107.577V16.8455C59.2148 15.5819 60.2334 14.5586 61.4888 14.5586H202.642C203.898 14.5586 204.916 15.583 204.916 16.8455V107.577C204.916 108.839 203.897 109.864 202.642 109.864Z" fill="#4F52FF"/>
<path d="M90.1284 17.7422H62.6289V20.0619H90.1284V17.7422Z" fill="#2B478B"/>
<path d="M85.4975 23.6211H62.6289V24.7809H85.4975V23.6211Z" fill="white"/>
<path d="M74.7193 26.7637H62.6289V27.9235H74.7193V26.7637Z" fill="white"/>
<path d="M77.9918 29.9043H62.6289V31.0641H77.9918V29.9043Z" fill="white"/>
<path d="M84.1429 29.9043H79.9707V31.0641H84.1429V29.9043Z" fill="white"/>
<path d="M93.4499 29.9043H85.5664V31.0641H93.4499V29.9043Z" fill="white"/>
<path d="M87.6529 26.7637H75.5625V27.9235H87.6529V26.7637Z" fill="white"/>
<path d="M218.717 112.135H44.22C42.9888 112.135 41.9902 111.131 41.9902 109.893V109.832C41.9902 108.594 42.9888 107.59 44.22 107.59H218.717C219.948 107.59 220.947 108.594 220.947 109.832V109.893C220.947 111.132 219.949 112.135 218.717 112.135Z" fill="#375DAA"/>
<path d="M70.0968 107.59H101.973V81.1557H70.0968V107.59Z" fill="#D57912"/>
<path d="M86.0343 107.59H117.91V81.1557H86.0343V107.59Z" fill="#E69D43"/>
<path d="M86.0352 81.1562L92.3424 88.1111H123.796L117.911 81.1562H86.0352Z" fill="#F4C58B"/>
<path d="M86.0347 84.1448L79.3151 90.9028H70.1152V81.1562H86.0347V84.1448Z" fill="#BF8054"/>
<path d="M70.0966 81.1562L62.9297 88.1111H78.8776L86.035 81.1562H70.0966Z" fill="#F4C58B"/>
<path d="M118.683 107.508H150.559V81.0737H118.683V107.508Z" fill="#D57912"/>
<path d="M134.622 107.508H166.498V81.0737H134.622V107.508Z" fill="#E69D43"/>
<path d="M132.796 81.2441H155.289V62.5912H132.796V81.2441Z" fill="#D57912"/>
<path d="M144.042 81.2441H166.535V62.5912H144.042V81.2441Z" fill="#E69D43"/>
<path d="M174.177 107.709H196.67V89.056H174.177V107.709Z" fill="#D57912"/>
<path d="M185.423 107.709H207.916V89.056H185.423V107.709Z" fill="#E69D43"/>
<path d="M213.003 53.2621H91.8516L92.7072 22.6836H213.859L213.003 53.2621Z" fill="#FAFDFF"/>
<path opacity="0.5" d="M205.818 33.0227L205.716 36.6804C205.67 38.2904 204.326 39.6074 202.725 39.6074H102.354C100.753 39.6074 99.4808 38.2904 99.5266 36.6804L99.6286 33.0227C99.6744 31.4126 101.019 30.0957 102.62 30.0957H202.991C204.592 30.0978 205.864 31.4147 205.818 33.0227Z" fill="#313896" fill-opacity="0.1"/>
<path d="M132.034 30.0978L131.912 39.6074H100.821C100.21 39.6074 99.7041 38.6924 99.5649 37.4592C99.5363 37.2101 99.5229 36.9505 99.5258 36.6804L99.5725 33.0227C99.5935 31.4126 100.21 30.0957 100.943 30.0957H132.034V30.0978Z" fill="#F99746"/>
<path d="M106.445 30.0977L103.69 39.6072H100.82C100.209 39.6072 99.7037 38.6923 99.5645 37.4591L101.697 30.0977H106.445Z" fill="#ED7D2B"/>
<path d="M114.582 30.0977L111.827 39.6072H107.078L109.833 30.0977H114.582Z" fill="#ED7D2B"/>
<path d="M122.718 30.0977L119.964 39.6072H115.215L117.97 30.0977H122.718Z" fill="#ED7D2B"/>
<path d="M130.857 30.0977L128.102 39.6072H123.354L126.109 30.0977H130.857Z" fill="#ED7D2B"/>
<path d="M118.894 45.2386H100.768L100.801 43.9824H118.929L118.894 45.2386Z" fill="#AFCDFB"/>
<path d="M113.84 48.7564H100.668L100.703 47.498H113.875L113.84 48.7564Z" fill="#AFCDFB"/>
<path d="M122.526 48.7564H114.652L114.688 47.498H122.561L122.526 48.7564Z" fill="#AFCDFB"/>
<path d="M135.913 48.7564H123.887L123.922 47.498H135.949L135.913 48.7564Z" fill="#AFCDFB"/>
<path d="M125.745 45.2386H120.258L120.293 43.9824H125.781L125.745 45.2386Z" fill="#AFCDFB"/>
<path d="M147.581 45.2386H127.623L127.658 43.9824H147.617L147.581 45.2386Z" fill="#AFCDFB"/>
<path d="M63.9088 67.5568C69.5775 66.2126 73.0894 60.5017 71.7529 54.8012C70.4163 49.1007 64.7375 45.5693 59.0688 46.9136C53.4001 48.2579 49.8882 53.9688 51.2247 59.6693C52.5612 65.3697 58.2401 68.9011 63.9088 67.5568Z" fill="#E2810E"/>
<path d="M71.5275 62.8069C74.3391 57.6775 72.484 51.2275 67.3837 48.3998C62.2834 45.5722 55.87 47.4379 53.0584 52.5672C50.2467 57.6966 52.1019 64.1466 57.2021 66.9743C62.3013 69.802 68.7159 67.9363 71.5275 62.8069Z" fill="#FFB93E"/>
<path d="M62.215 67.2983C60.6735 67.2983 59.1119 66.9195 57.6693 66.1195C55.4596 64.894 53.856 62.877 53.1541 60.4388C52.4522 58.0005 52.7374 55.4332 53.9559 53.2109C55.1744 50.9885 57.18 49.3758 59.6044 48.6699C62.0288 47.9641 64.5815 48.2509 66.7913 49.4763C71.3538 52.0055 73.0196 57.7963 70.5047 62.3859C68.7853 65.5226 65.5486 67.2983 62.215 67.2983ZM62.2445 48.5461C61.3869 48.5461 60.5241 48.6678 59.677 48.9144C57.3179 49.6001 55.3659 51.1695 54.18 53.3326C52.9942 55.4956 52.7174 57.9931 53.4003 60.3657C54.0832 62.7383 55.6427 64.7014 57.7935 65.8941C59.1972 66.6719 60.7166 67.0412 62.2161 67.0412C65.4602 67.0412 68.6096 65.3141 70.2827 62.26C71.4685 60.0969 71.7453 57.5995 71.0624 55.2269C70.3795 52.8543 68.82 50.8912 66.6692 49.6985C65.2908 48.9355 63.7755 48.5461 62.2445 48.5461Z" fill="#FFA412"/>
<path d="M51.7995 51.5328C52.2403 51.2196 53.241 50.5307 53.2926 50.6841C53.3305 50.7942 53.2768 50.9825 53.1569 51.1772C53.7619 50.9497 54.3764 50.8005 55.8296 51.0809C56.12 51.137 56.3841 51.3032 56.5441 51.554C56.6924 51.7858 56.7471 52.0757 56.3767 52.3075C55.6349 52.771 55.8506 52.4937 54.8194 53.1689C53.7893 53.8441 52.5276 54.0165 51.7731 53.5424L50.7619 53.3731L50.6367 51.7C50.6367 51.7011 51.2134 51.6312 51.7995 51.5328Z" fill="#FFB27D"/>
<path d="M25.291 37.498C25.291 37.498 27.6754 40.3436 30.7133 39.1531C30.7133 39.1531 31.3667 37.5636 31.3762 36.3921C31.3772 36.2482 31.3793 36.1085 31.3814 35.9752C31.3972 34.6555 31.4414 33.9158 31.4414 33.9158C31.4414 33.9158 31.4404 33.9158 31.4383 33.9147C31.3004 33.8565 26.7957 31.9972 26.7999 32.1517C26.8768 35.7201 25.291 37.498 25.291 37.498Z" fill="#FFB27D"/>
<path d="M27.251 33.0042C27.6856 33.8138 29.1756 35.398 31.38 35.9769C31.3958 34.6572 31.44 33.9175 31.44 33.9175C31.44 33.9175 31.4389 33.9175 31.4368 33.9164C31.3127 33.8826 27.1216 32.7651 27.251 33.0042Z" fill="#ED975D"/>
<path d="M32.3846 33.7794C32.3846 33.7794 27.3191 34.9774 26.6256 31.7931C25.9322 28.6088 24.8116 26.6193 28.0167 25.7198C31.2219 24.8202 32.1163 25.8965 32.6045 26.9029C33.0938 27.9093 33.6852 33.3858 32.3846 33.7794Z" fill="#FFB27D"/>
<path d="M26.7981 32.6611C26.7286 32.7055 25.6385 33.0421 23.575 28.9064C23.2509 28.2577 23.03 26.8523 23.7855 25.6121C24.541 24.3707 27.219 23.395 29.4445 22.9707C31.67 22.5463 32.2035 23.8056 32.7275 25.0713C33.2778 26.3994 34.8667 27.4936 34.8667 27.4936C32.9474 28.572 30.6367 27.0301 29.8359 27.283C29.0352 27.537 28.7521 28.8059 28.6921 29.2122C28.6322 29.6186 28.5396 29.9572 27.5325 29.5943C26.5255 29.2313 27.0769 31.0293 27.239 31.3732C27.239 31.3732 27.3758 32.2886 26.7981 32.6611Z" fill="#A74C02"/>
<path d="M13.7496 112.067H10.6823C10.0394 112.067 9.32493 111.419 9.14604 110.234C8.96716 109.047 7.64553 108.401 7.35932 107.43C7.07311 106.46 8.53889 105.094 8.53889 105.094L8.78407 104.777L9.03871 104.447L11.4684 105.022C11.4684 105.022 11.5283 105.604 11.5662 106.345C11.5925 106.88 11.6062 107.498 11.5757 108.041C11.5041 109.335 11.9356 110.728 13.0794 110.98C14.2232 111.232 13.7496 112.067 13.7496 112.067Z" fill="#2C3A64"/>
<path d="M35.1021 112.066H26.9714C26.8935 112.051 26.8346 112.033 26.7988 112.015C26.2559 111.742 26.4263 109.652 26.4916 109.005C26.5042 108.886 26.5126 108.816 26.5126 108.816C26.5126 108.816 29.3716 106.516 29.7651 108.277C29.7777 108.332 29.7914 108.386 29.8072 108.439V108.44C30.3039 110.088 32.522 110.836 33.8037 111.044C34.7833 111.204 35.0369 111.779 35.1021 112.066Z" fill="#2C3A64"/>
<path d="M33.4655 64.9117C33.4655 64.9117 33.031 70.3596 32.5206 76.9091C31.8272 85.8058 30.9928 96.7334 30.9107 98.8033C30.7686 102.398 30.1951 108.148 30.1951 108.148C30.1951 108.148 28.8377 109.514 26.1208 108.938C26.1208 108.938 23.6996 100.729 23.0083 92.0453C22.9977 91.9035 22.9872 91.7596 22.9756 91.6167C22.3327 82.775 21.332 64.1582 21.332 64.1582L33.4655 64.9117Z" fill="#313896"/>
<path d="M33.4645 64.9117C33.4645 64.9117 33.0299 70.3596 32.5196 76.9091L23.0083 92.0453C22.9977 91.9035 22.9872 91.7596 22.9756 91.6167C22.3327 82.775 21.332 64.1582 21.332 64.1582L33.4645 64.9117Z" fill="#09005D"/>
<path d="M31.4804 65.5589C31.4804 65.5589 23.6538 85.29 18.5082 94.5625C13.3617 103.835 11.7538 106.422 11.7538 106.422C11.7538 106.422 8.80543 105.236 8.53711 104.428C8.53711 104.428 10.5048 86.5261 13.9509 82.1629C15.8987 79.6972 18.1852 72.2968 18.2925 69.7094C18.3999 67.1219 18.9891 62 18.9891 62L31.4804 65.5589Z" fill="#313896"/>
<path d="M13.6331 61.9733L13.5499 63.2421C13.5499 63.2421 14.3823 65.4962 12.0505 66.6529C12.0505 66.6529 11.0529 67.0582 11.0119 66.2761C10.9719 65.4952 11.0992 65.7883 11.0182 64.6888C10.9372 63.5882 11.3676 62.549 12.0905 62.1987L12.6839 61.5098L13.6331 61.9733Z" fill="#FFB27D"/>
<path d="M12.722 62.8952C13.588 63.1746 13.7269 63.1122 13.7269 63.1122C13.7269 63.1122 17.9433 55.3922 18.3705 54.6853C18.7977 53.9784 27.322 46.0288 27.322 46.0288L25.1312 37.8125C25.1312 37.8125 15.4358 50.4396 14.3888 52.2513C12.6589 55.2451 11.6445 62.1989 11.6445 62.1989C11.6445 62.1989 12.0412 62.6762 12.722 62.8952Z" fill="#A74C02"/>
<path d="M35.1173 49.2568C35.0867 50.9436 34.9889 52.8411 34.8584 54.7671C34.85 54.8814 34.8426 54.9957 34.8342 55.11C34.75 56.3037 34.6585 57.4995 34.5543 58.6657C34.5122 59.1334 34.468 59.5959 34.4207 60.0499L34.4133 60.1113C34.4101 60.2817 34.3891 60.4658 34.3701 60.634C33.9429 65.0036 33.4947 68.4545 33.4115 68.5075C33.3126 68.5741 33.2 68.6069 33.078 68.5932C31.9384 68.4493 28.5396 68.7096 25.7564 68.1C23.4078 67.6016 21.3864 66.6576 19.244 65.3835C18.9599 65.2142 18.3117 64.7665 18.3643 64.4321C18.4159 64.0638 18.5117 63.5326 18.6337 62.8649C19.0557 60.5409 19.7849 56.5428 20.0332 51.8643C20.0816 50.9923 20.1521 50.1319 20.2437 49.2853C20.4825 47.081 20.8656 44.9878 21.378 43.1274C22.3324 39.6722 23.734 37.0265 25.4934 35.9905C25.7227 35.8614 26.9602 36.653 28.0956 37.3853C29.1447 38.0615 30.2485 38.2488 31.3228 38.1546L32.2678 39.2065C33.4126 40.5452 34.6311 42.3263 34.9636 44.8587C34.9889 45.046 35.0099 45.2449 35.0278 45.4555C35.1204 46.4884 35.1425 47.7943 35.1173 49.2568Z" fill="#C95C03"/>
<path d="M35.1172 49.2556C35.0867 50.9424 34.9888 52.8399 34.8583 54.7659C34.8499 54.8802 34.8426 54.9945 34.8341 55.1088C28.327 51.0123 27.3242 43.5156 27.3242 43.5156C30.5252 43.6564 33.0685 44.3971 35.0288 45.4554C35.1203 46.4872 35.1424 47.7931 35.1172 49.2556Z" fill="#A74C02"/>
<path d="M51.5584 52.4829C51.6257 51.5124 51.1259 51.3505 51.1259 51.3505C51.1259 51.3505 41.3136 49.5621 40.4803 49.2986C39.6458 49.0351 32.5137 41.5733 32.5137 41.5733C32.5137 41.5733 29.7799 38.4726 27.5418 39.1573C25.5962 39.7521 24.8364 41.2781 24.5776 42.7321C24.2693 44.4645 25.0627 46.2074 26.5548 47.1281C29.903 49.1938 36.6069 53.2628 38.1853 53.7284C41.6988 54.7644 51.1396 53.811 51.1396 53.811C51.1396 53.811 51.5057 53.2448 51.5584 52.4829Z" fill="#C95C03"/>
<path d="M127.626 95.9735C127.797 89.4453 122.673 84.014 116.182 83.8422C109.691 83.6705 104.291 88.8234 104.12 95.3516C103.949 101.88 109.073 107.311 115.564 107.483C122.055 107.655 127.456 102.502 127.626 95.9735Z" fill="#E2810E"/>
<path d="M126.586 96.0665C126.804 89.5403 121.719 84.0744 115.23 83.858C108.741 83.6416 103.304 88.7567 103.087 95.2829C102.869 101.809 107.954 107.275 114.443 107.491C120.932 107.708 126.369 102.593 126.586 96.0665Z" fill="#FFB93E"/>
<path d="M114.838 106.579C111.977 106.579 109.287 105.458 107.264 103.424C105.24 101.389 104.127 98.6845 104.127 95.8071C104.127 92.9297 105.241 90.2248 107.264 88.1898C109.287 86.1548 111.977 85.0352 114.838 85.0352C117.699 85.0352 120.388 86.1558 122.412 88.1898C124.435 90.2248 125.549 92.9297 125.549 95.8071C125.549 98.6845 124.434 101.389 122.412 103.424C120.388 105.458 117.699 106.579 114.838 106.579ZM114.838 85.6775C109.284 85.6775 104.766 90.2216 104.766 95.8071C104.766 101.393 109.284 105.937 114.838 105.937C120.392 105.937 124.91 101.393 124.91 95.8071C124.91 90.2216 120.392 85.6775 114.838 85.6775Z" fill="#FFA412"/>
<path d="M96.9859 73.3054C97.0664 70.8878 95.1828 68.863 92.7789 68.7828C90.375 68.7027 88.361 70.5975 88.2805 73.0151C88.2 75.4327 90.0835 77.4576 92.4874 77.5377C94.8914 77.6179 96.9054 75.723 96.9859 73.3054Z" fill="white"/>
<path d="M94.4512 60.7049C94.4512 57.2201 97.2607 54.3945 100.726 54.3945C104.191 54.3945 107 57.2201 107 60.7049C107 64.1897 104.191 67.0153 100.726 67.0153C97.2596 67.0142 94.4512 64.1897 94.4512 60.7049Z" fill="white"/>
<path d="M95.404 52.0851C97.7475 47.9457 96.3108 42.6795 92.1949 40.3226C88.0791 37.9657 82.8427 39.4107 80.4992 43.55C78.1557 47.6893 79.5924 52.9556 83.7083 55.3125C87.8241 57.6693 93.0605 56.2244 95.404 52.0851Z" fill="white"/>
<path d="M57.7656 58.732V57.0494H63.3268C63.4143 57.0494 63.5209 57.0466 63.6467 57.0412C63.7779 57.0303 63.9229 57.0031 64.0814 56.9595C64.5353 56.8343 64.8634 56.6083 65.0657 56.2816C65.268 55.9494 65.3692 55.5628 65.3692 55.1217C65.3692 54.8549 65.3282 54.588 65.2462 54.3212C65.1696 54.0489 65.0356 53.8093 64.8442 53.6024C64.6583 53.3955 64.4041 53.2512 64.0814 53.1695C63.9393 53.1314 63.7943 53.1096 63.6467 53.1042C63.5045 53.0987 63.3979 53.096 63.3268 53.096H60.2345V51.25H63.4088C63.469 51.25 63.5866 51.2527 63.7615 51.2582C63.942 51.2636 64.1416 51.2827 64.3603 51.3153C65.0384 51.4188 65.5989 51.6448 66.0418 51.9933C66.4902 52.3418 66.821 52.7829 67.0343 53.3165C67.253 53.8447 67.3624 54.4274 67.3624 55.0645C67.3624 56.0392 67.1136 56.8452 66.616 57.4823C66.1183 58.1194 65.3665 58.5142 64.3603 58.6666C64.1416 58.6939 63.942 58.7129 63.7615 58.7238C63.5866 58.7293 63.469 58.732 63.4088 58.732H57.7656ZM57.7656 61.4111V59.8674H64.7622V61.4111H57.7656ZM58.9386 63.0121V51.25H60.9153V63.0121H58.9386Z" fill="#E69D43"/>
<path d="M110.34 97.3785V95.6958H115.901C115.989 95.6958 116.095 95.6931 116.221 95.6877C116.352 95.6768 116.497 95.6496 116.656 95.606C117.11 95.4808 117.438 95.2548 117.64 94.928C117.842 94.5959 117.943 94.2092 117.943 93.7682C117.943 93.5013 117.902 93.2345 117.82 92.9677C117.744 92.6954 117.61 92.4558 117.418 92.2489C117.233 92.042 116.978 91.8977 116.656 91.816C116.513 91.7779 116.369 91.7561 116.221 91.7506C116.079 91.7452 115.972 91.7425 115.901 91.7425H112.809V89.8965H115.983C116.043 89.8965 116.161 89.8992 116.336 89.9047C116.516 89.9101 116.716 89.9292 116.935 89.9618C117.613 90.0653 118.173 90.2913 118.616 90.6398C119.064 90.9883 119.395 91.4294 119.608 91.963C119.827 92.4912 119.937 93.0739 119.937 93.711C119.937 94.6857 119.688 95.4916 119.19 96.1288C118.693 96.7659 117.941 97.1607 116.935 97.3131C116.716 97.3404 116.516 97.3594 116.336 97.3703C116.161 97.3758 116.043 97.3785 115.983 97.3785H110.34ZM110.34 100.058V98.5138H117.336V100.058H110.34ZM111.513 101.659V89.8965H113.49V101.659H111.513Z" fill="#E69D43"/>
<path d="M84.0527 49.2608V47.8185H88.8886C88.9646 47.8185 89.0574 47.8162 89.1667 47.8115C89.2808 47.8022 89.4068 47.7789 89.5447 47.7415C89.9394 47.6342 90.2247 47.4405 90.4006 47.1604C90.5766 46.8757 90.6645 46.5443 90.6645 46.1662C90.6645 45.9375 90.6289 45.7088 90.5575 45.4801C90.491 45.2467 90.3745 45.0414 90.2081 44.864C90.0464 44.6866 89.8253 44.563 89.5447 44.4929C89.4211 44.4603 89.2951 44.4416 89.1667 44.4369C89.0431 44.4323 88.9504 44.4299 88.8886 44.4299H86.1996V42.8477H88.9599C89.0122 42.8477 89.1144 42.85 89.2666 42.8547C89.4235 42.8593 89.597 42.8757 89.7872 42.9037C90.3769 42.9923 90.8642 43.186 91.2494 43.4848C91.6393 43.7835 91.927 44.1616 92.1124 44.619C92.3026 45.0717 92.3977 45.5711 92.3977 46.1172C92.3977 46.9527 92.1814 47.6435 91.7487 48.1896C91.316 48.7357 90.6622 49.0741 89.7872 49.2048C89.597 49.2281 89.4235 49.2445 89.2666 49.2538C89.1144 49.2585 89.0122 49.2608 88.9599 49.2608H84.0527ZM84.0527 51.5572V50.234H90.1367V51.5572H84.0527ZM85.0727 52.9294V42.8477H86.7916V52.9294H85.0727Z" fill="#313896"/>
<path d="M98.6562 61.7117V60.8704H101.558C101.603 60.8704 101.659 60.869 101.725 60.8663C101.793 60.8609 101.869 60.8472 101.951 60.8255C102.188 60.7628 102.359 60.6498 102.465 60.4865C102.571 60.3204 102.623 60.1271 102.623 59.9065C102.623 59.7731 102.602 59.6397 102.559 59.5063C102.519 59.3702 102.449 59.2504 102.349 59.1469C102.252 59.0434 102.12 58.9713 101.951 58.9305C101.877 58.9114 101.802 58.9005 101.725 58.8978C101.65 58.8951 101.595 58.8937 101.558 58.8937H99.9444V57.9707H101.601C101.632 57.9707 101.693 57.9721 101.785 57.9748C101.879 57.9775 101.983 57.987 102.097 58.0034C102.451 58.0551 102.743 58.1681 102.974 58.3424C103.208 58.5166 103.381 58.7371 103.492 59.004C103.606 59.2681 103.663 59.5594 103.663 59.878C103.663 60.3653 103.533 60.7683 103.274 61.0868C103.014 61.4054 102.622 61.6028 102.097 61.679C101.983 61.6926 101.879 61.7022 101.785 61.7076C101.693 61.7103 101.632 61.7117 101.601 61.7117H98.6562ZM98.6562 63.0513V62.2794H102.307V63.0513H98.6562ZM99.2682 63.8517V57.9707H100.3V63.8517H99.2682Z" fill="#313896"/>
<path d="M91.1465 73.6643V73.0634H93.0808C93.1112 73.0634 93.1483 73.0624 93.1921 73.0605C93.2377 73.0566 93.2881 73.0469 93.3433 73.0313C93.5012 72.9866 93.6153 72.9059 93.6856 72.7892C93.756 72.6705 93.7912 72.5325 93.7912 72.3749C93.7912 72.2796 93.7769 72.1843 93.7484 72.089C93.7218 71.9918 93.6752 71.9062 93.6086 71.8323C93.5439 71.7584 93.4555 71.7069 93.3433 71.6777C93.2938 71.6641 93.2434 71.6563 93.1921 71.6544C93.1426 71.6524 93.1055 71.6515 93.0808 71.6515H92.0052V70.9922H93.1093C93.1303 70.9922 93.1712 70.9932 93.232 70.9951C93.2948 70.997 93.3642 71.0039 93.4403 71.0155C93.6761 71.0525 93.8711 71.1332 94.0252 71.2577C94.1811 71.3821 94.2962 71.5396 94.3704 71.7302C94.4464 71.9189 94.4845 72.127 94.4845 72.3545C94.4845 72.7026 94.3979 72.9905 94.2249 73.218C94.0518 73.4455 93.7903 73.5865 93.4403 73.641C93.3642 73.6507 93.2948 73.6575 93.232 73.6614C93.1712 73.6634 93.1303 73.6643 93.1093 73.6643H91.1465ZM91.1465 74.6212V74.0698H93.5801V74.6212H91.1465ZM91.5545 75.1929V70.9922H92.242V75.1929H91.5545Z" fill="#313896"/>
<path d="M111.996 37.3271C111.78 37.3271 111.576 37.2851 111.384 37.2011C111.192 37.1171 111.025 36.9981 110.883 36.8441C110.743 36.6901 110.642 36.5081 110.58 36.2981L111.279 36.1091C111.329 36.2811 111.42 36.4141 111.552 36.5081C111.686 36.6001 111.833 36.6451 111.993 36.6431C112.135 36.6431 112.262 36.6101 112.374 36.5441C112.486 36.4781 112.574 36.3891 112.638 36.2771C112.702 36.1631 112.734 36.0361 112.734 35.8961C112.734 35.6821 112.665 35.5031 112.527 35.3591C112.389 35.2151 112.211 35.1431 111.993 35.1431C111.927 35.1431 111.862 35.1521 111.798 35.1701C111.736 35.1881 111.676 35.2131 111.618 35.2451L111.288 34.6751L112.74 33.4331L112.803 33.6071H110.748V32.9261H113.397V33.6101L112.23 34.7321L112.224 34.5191C112.486 34.5371 112.709 34.6101 112.893 34.7381C113.079 34.8661 113.221 35.0311 113.319 35.2331C113.419 35.4351 113.469 35.6561 113.469 35.8961C113.469 36.1681 113.402 36.4121 113.268 36.6281C113.136 36.8441 112.958 37.0151 112.734 37.1411C112.512 37.2651 112.266 37.3271 111.996 37.3271ZM115.8 37.3361C115.494 37.3361 115.224 37.2711 114.99 37.1411C114.756 37.0091 114.573 36.8261 114.441 36.5921C114.311 36.3581 114.246 36.0881 114.246 35.7821V34.3901C114.246 34.0841 114.311 33.8141 114.441 33.5801C114.573 33.3461 114.756 33.1641 114.99 33.0341C115.224 32.9021 115.494 32.8361 115.8 32.8361C116.106 32.8361 116.375 32.9021 116.607 33.0341C116.841 33.1641 117.024 33.3461 117.156 33.5801C117.288 33.8141 117.354 34.0841 117.354 34.3901V35.7821C117.354 36.0881 117.288 36.3581 117.156 36.5921C117.024 36.8261 116.841 37.0091 116.607 37.1411C116.375 37.2711 116.106 37.3361 115.8 37.3361ZM115.8 36.6491C115.952 36.6491 116.09 36.6131 116.214 36.5411C116.338 36.4671 116.436 36.3691 116.508 36.2471C116.58 36.1231 116.616 35.9851 116.616 35.8331V34.3361C116.616 34.1821 116.58 34.0441 116.508 33.9221C116.436 33.7981 116.338 33.7001 116.214 33.6281C116.09 33.5541 115.952 33.5171 115.8 33.5171C115.648 33.5171 115.51 33.5541 115.386 33.6281C115.262 33.7001 115.164 33.7981 115.092 33.9221C115.02 34.0441 114.984 34.1821 114.984 34.3361V35.8331C114.984 35.9851 115.02 36.1231 115.092 36.2471C115.164 36.3691 115.262 36.4671 115.386 36.5411C115.51 36.6131 115.648 36.6491 115.8 36.6491ZM118.795 37.2461L118.315 36.7661L122.158 32.9261L122.638 33.4091L118.795 37.2461ZM121.738 37.3361C121.54 37.3361 121.359 37.2881 121.195 37.1921C121.033 37.0941 120.903 36.9641 120.805 36.8021C120.707 36.6381 120.658 36.4561 120.658 36.2561C120.658 36.0601 120.708 35.8801 120.808 35.7161C120.908 35.5521 121.04 35.4211 121.204 35.3231C121.368 35.2251 121.546 35.1761 121.738 35.1761C121.936 35.1761 122.117 35.2251 122.281 35.3231C122.445 35.4191 122.575 35.5491 122.671 35.7131C122.769 35.8751 122.818 36.0561 122.818 36.2561C122.818 36.4561 122.769 36.6381 122.671 36.8021C122.575 36.9641 122.445 37.0941 122.281 37.1921C122.117 37.2881 121.936 37.3361 121.738 37.3361ZM121.738 36.7181C121.82 36.7181 121.896 36.6971 121.966 36.6551C122.038 36.6131 122.095 36.5571 122.137 36.4871C122.179 36.4171 122.2 36.3401 122.2 36.2561C122.2 36.1721 122.179 36.0951 122.137 36.0251C122.095 35.9551 122.038 35.8991 121.966 35.8571C121.896 35.8151 121.82 35.7941 121.738 35.7941C121.654 35.7941 121.577 35.8151 121.507 35.8571C121.437 35.8991 121.38 35.9551 121.336 36.0251C121.294 36.0951 121.273 36.1721 121.273 36.2561C121.273 36.3401 121.294 36.4171 121.336 36.4871C121.38 36.5571 121.437 36.6131 121.507 36.6551C121.577 36.6971 121.654 36.7181 121.738 36.7181ZM119.215 34.9961C119.017 34.9961 118.836 34.9481 118.672 34.8521C118.508 34.7541 118.377 34.6241 118.279 34.4621C118.183 34.2981 118.135 34.1161 118.135 33.9161C118.135 33.7201 118.185 33.5401 118.285 33.3761C118.385 33.2121 118.517 33.0811 118.681 32.9831C118.845 32.8851 119.023 32.8361 119.215 32.8361C119.413 32.8361 119.593 32.8851 119.755 32.9831C119.919 33.0791 120.05 33.2091 120.148 33.3731C120.246 33.5351 120.295 33.7161 120.295 33.9161C120.295 34.1161 120.246 34.2981 120.148 34.4621C120.05 34.6241 119.919 34.7541 119.755 34.8521C119.593 34.9481 119.413 34.9961 119.215 34.9961ZM119.215 34.3781C119.299 34.3781 119.376 34.3571 119.446 34.3151C119.516 34.2731 119.572 34.2171 119.614 34.1471C119.656 34.0771 119.677 34.0001 119.677 33.9161C119.677 33.8321 119.656 33.7551 119.614 33.6851C119.572 33.6151 119.516 33.5591 119.446 33.5171C119.376 33.4751 119.299 33.4541 119.215 33.4541C119.131 33.4541 119.054 33.4751 118.984 33.5171C118.914 33.5591 118.858 33.6151 118.816 33.6851C118.774 33.7551 118.753 33.8321 118.753 33.9161C118.753 34.0001 118.774 34.0771 118.816 34.1471C118.858 34.2171 118.914 34.2731 118.984 34.3151C119.054 34.3571 119.131 34.3781 119.215 34.3781Z" fill="white"/>
</svg>
