<svg width="18" height="24" viewBox="0 0 18 24" fill="none" xmlns="http://www.w3.org/2000/svg">
<path d="M9.0001 0C4.3681 0 0.600098 3.768 0.600098 8.4C0.600098 14.7 9.0001 24 9.0001 24C9.0001 24 17.4001 14.7 17.4001 8.4C17.4001 3.768 13.6321 0 9.0001 0ZM9.0001 2.4C10.3201 2.4 11.4001 3.48 11.4001 4.8C11.4001 6.132 10.3201 7.2 9.0001 7.2C7.6801 7.2 6.6001 6.132 6.6001 4.8C6.6001 3.48 7.6801 2.4 9.0001 2.4ZM9.0001 14.4C6.9961 14.4 5.2321 13.38 4.2001 11.82C4.2241 10.236 7.4041 9.36 9.0001 9.36C10.5961 9.36 13.7761 10.236 13.8001 11.82C12.7681 13.38 11.0041 14.4 9.0001 14.4Z" fill="#313896"/>
</svg>
