<svg width="250" height="160" viewBox="0 0 250 160" fill="none" xmlns="http://www.w3.org/2000/svg">
<path d="M157.298 20.5857C153.743 26.1034 161.228 37.0266 176.107 58.7396C193.622 84.2991 215.725 116.551 232.534 111.495C244.908 107.774 252.746 84.3385 249.103 66.2766C240.428 23.2455 165.893 7.24947 157.298 20.5857Z" fill="url(#paint0_linear_1070_73857)"/>
<path d="M234.259 142.916C233.837 145.945 229.518 154.942 106.124 156.085C42.2467 156.676 31.0509 154.379 21.0689 144.315C-0.503427 122.565 -2.79742 78.2241 15.793 50.0595C40.8755 12.0607 94.6472 17.8336 123.363 29.2555C126.577 30.5341 129.168 31.7495 131.671 33.3264C176.288 61.4504 176.446 91.0248 222.571 129.905C230.643 136.711 234.77 139.246 234.259 142.916Z" fill="url(#paint1_linear_1070_73857)"/>
<path d="M181.161 145.738C181.015 146.228 180.277 146.029 180.398 145.532C182.734 135.987 182.155 140.137 184.112 132.006C189.005 111.677 183.883 101.949 183.504 91.1911C183.125 80.4348 191.392 67.8357 208.805 74.2719C223.024 79.5271 234.24 83.2903 239.719 83.1436C240.768 83.115 241.41 84.2874 240.833 85.1641C237.015 90.9549 226.971 103.881 213.609 103.431C196.408 102.851 196.718 98.158 192.599 102.26C188.48 106.362 188.142 110.824 187.44 119.182C186.835 126.379 186.791 126.921 181.161 145.738Z" fill="#BDD0FB"/>
<path d="M186.729 112.212C186.369 110.866 186.119 109.543 185.925 108.19C185.736 106.841 185.606 105.481 185.573 104.115C185.506 101.388 185.753 98.6189 186.558 95.965C186.965 94.6422 187.518 93.3552 188.238 92.1589C188.958 90.965 189.84 89.8569 190.885 88.9218C191.925 87.9855 193.119 87.2221 194.352 86.6078C194.967 86.3168 195.576 86.015 196.208 85.7586C196.829 85.4807 197.471 85.2457 198.109 85.0048C199.396 84.5515 200.709 84.1651 202.051 83.8871C203.393 83.6188 204.758 83.4542 206.126 83.4077C207.493 83.3599 208.863 83.4267 210.214 83.5901C211.566 83.7536 212.899 84.004 214.218 84.2879C216.854 84.8628 219.441 85.5463 222.069 85.9947C224.692 86.4587 227.362 86.6329 230.023 86.4862H230.024C230.15 86.479 230.258 86.5756 230.264 86.7009C230.271 86.8249 230.178 86.9311 230.055 86.9406C227.362 87.1624 224.638 87.0575 221.963 86.6579C219.285 86.2738 216.667 85.6214 214.049 85.1085C211.433 84.5909 208.794 84.2474 206.165 84.3786C204.852 84.4406 203.547 84.6159 202.262 84.8902C200.977 85.1741 199.717 85.563 198.48 86.0174C197.866 86.2583 197.249 86.4933 196.648 86.7712C196.04 87.0277 195.45 87.3294 194.855 87.6205C193.695 88.2133 192.615 88.9122 191.661 89.7782C189.755 91.5112 188.451 93.8312 187.707 96.3157C186.948 98.8049 186.696 101.454 186.756 104.086C186.789 105.404 186.886 106.724 187.056 108.035C187.225 109.341 187.463 110.662 187.781 111.915L187.786 111.935C187.86 112.227 187.683 112.525 187.391 112.6C187.103 112.674 186.807 112.5 186.729 112.212Z" fill="url(#paint2_linear_1070_73857)"/>
<path opacity="0.5" d="M190.718 146.33C191.163 146.262 191.627 146.123 192.069 145.968C192.515 145.813 192.951 145.63 193.378 145.423C194.229 145.008 195.054 144.537 195.839 144.003C197.418 142.947 198.869 141.707 200.236 140.384C202.965 137.72 205.313 134.685 207.543 131.55C208.666 129.988 209.77 128.401 210.972 126.87C212.174 125.346 213.503 123.865 215.136 122.727C215.951 122.161 216.841 121.695 217.782 121.371C218.722 121.043 219.708 120.869 220.69 120.816C222.662 120.713 224.603 121.068 226.463 121.596C226.531 121.615 226.569 121.685 226.55 121.752C226.532 121.816 226.467 121.856 226.401 121.841H226.399C224.528 121.436 222.612 121.157 220.728 121.34C219.79 121.435 218.868 121.637 217.994 121.963C217.12 122.29 216.299 122.748 215.545 123.301C214.031 124.41 212.797 125.874 211.642 127.39C210.483 128.908 209.412 130.509 208.296 132.087C207.185 133.667 206.038 135.232 204.823 136.75C204.514 137.125 204.193 137.491 203.879 137.864C203.563 138.233 203.252 138.608 202.913 138.959L201.914 140.025L200.86 141.04C199.435 142.372 197.899 143.598 196.22 144.611C195.388 145.127 194.505 145.564 193.595 145.929C192.679 146.287 191.747 146.591 190.732 146.66C190.642 146.666 190.564 146.598 190.557 146.507C190.551 146.422 190.612 146.348 190.695 146.335L190.718 146.33Z" fill="white"/>
<path d="M56.719 145.463C56.719 145.463 42.1991 155.541 33.2426 146.486C24.9167 138.068 24.9882 128.943 16.2331 126.965C15.2244 126.738 14.831 125.501 15.5118 124.723C18.2231 121.624 24.9024 116.237 36.5011 120.069C52.2348 125.267 56.719 145.463 56.719 145.463Z" fill="#BDD0FB"/>
<path d="M55.5824 145.029C54.6452 145.03 53.7725 144.809 52.9104 144.539C52.0532 144.261 51.2162 143.916 50.4221 143.494C48.8208 142.67 47.3388 141.639 45.9521 140.505L44.9244 139.639L43.9443 138.722C43.6116 138.421 43.3052 138.097 42.9928 137.777C42.6828 137.455 42.3669 137.139 42.0616 136.813C40.8586 135.496 39.7152 134.131 38.604 132.749C37.4892 131.372 36.4149 129.968 35.2655 128.649C34.1209 127.329 32.9059 126.064 31.4597 125.14C30.7395 124.678 29.9633 124.307 29.1466 124.06C28.3299 123.814 27.4762 123.682 26.6142 123.65C24.8817 123.591 23.1457 123.956 21.4562 124.435H21.4539C21.3859 124.454 21.3167 124.414 21.2977 124.348C21.2798 124.283 21.3144 124.216 21.3776 124.194C23.048 123.595 24.8042 123.15 26.6201 123.124C27.5251 123.113 28.4396 123.211 29.3219 123.455C30.2054 123.695 31.0507 124.068 31.8329 124.538C33.4008 125.483 34.7111 126.761 35.9034 128.085C37.0969 129.416 38.2034 130.802 39.3253 132.164C41.5537 134.899 43.8823 137.535 46.534 139.811C47.8634 140.94 49.262 141.99 50.7655 142.864C51.5142 143.306 52.2952 143.691 53.0964 144.022C53.4982 144.186 53.9084 144.329 54.3245 144.446C54.737 144.562 55.171 144.664 55.5788 144.701L55.5979 144.702C55.6885 144.71 55.7541 144.79 55.7457 144.88C55.7374 144.966 55.6658 145.029 55.5824 145.029Z" fill="url(#paint3_linear_1070_73857)"/>
<path d="M70.3073 144.074C71.6689 144.853 58.1339 125.415 55.3713 96.0608C54.0693 82.2284 55.1293 65.0682 47.7513 57.9618C41.6109 52.0469 19.3053 54.1187 11.9953 54.9799C11.082 55.0872 10.7052 56.2096 11.3705 56.8442C14.6505 59.9751 21.6279 67.3142 23.1207 74.3574C25.088 83.6418 33.3888 89.9944 41.0505 92.0579C48.7123 94.1214 52.933 95.9189 55.9257 108.576C58.9196 121.232 66.4395 141.861 70.3073 144.074Z" fill="#BDD0FB"/>
<path d="M21.9119 59.5002C26.5583 60.0083 31.0867 61.4623 35.1918 63.7512C37.2473 64.8891 39.1622 66.2965 40.8719 67.9294C42.5674 69.5742 44.0589 71.4504 45.2024 73.5294L45.6268 74.3107C45.7663 74.5719 45.882 74.845 46.0108 75.1122C46.1324 75.3806 46.2647 75.6513 46.3768 75.9185L46.713 76.7212C47.1637 77.7911 47.6096 78.8622 48.0448 79.9393C48.9176 82.091 49.7558 84.2559 50.5594 86.435C52.169 90.791 53.6403 95.197 54.8362 99.6937C54.8672 99.8118 54.7968 99.9334 54.6788 99.9645C54.5655 99.9943 54.4487 99.9311 54.4117 99.8213L54.4093 99.8142C53.6832 97.6231 52.9166 95.4367 52.1082 93.2695C51.3105 91.0975 50.4879 88.9362 49.6413 86.7833L48.3632 83.5581L47.0492 80.3472C46.6129 79.2761 46.1646 78.2098 45.7115 77.1458L45.3729 76.3467C45.2608 76.0795 45.1356 75.8314 45.0176 75.5726C44.8959 75.3173 44.7886 75.0549 44.6563 74.8044L44.2545 74.0566C43.179 72.0611 41.7518 70.2744 40.1553 68.6641C39.3386 67.8769 38.4933 67.1136 37.5776 66.4361L37.239 66.1761L36.8908 65.9292C36.6583 65.7657 36.4294 65.5952 36.1921 65.4353C35.7152 65.124 35.2407 64.8056 34.7459 64.5193C32.7893 63.3373 30.6884 62.395 28.5316 61.609C26.3759 60.8253 24.1355 60.2218 21.8737 59.8544L21.8618 59.8521C21.7652 59.8365 21.6997 59.7447 21.7152 59.6481C21.733 59.5539 21.8189 59.4895 21.9119 59.5002Z" fill="url(#paint4_linear_1070_73857)"/>
<path d="M57.3808 146.311C58.2166 146.751 52.6735 137.209 52.2491 128.802C51.8234 120.394 49.9277 106.044 42.6796 97.4595C35.4316 88.8752 27.4956 88.0928 17.4946 95.8958C9.16038 102.399 3.96193 105.681 0.913208 106.291C0.158479 106.442 -0.226635 107.294 0.140595 107.971C2.09597 111.573 7.62469 119.849 16.9068 119.265C28.7476 118.522 43.0969 110.822 47.4703 117.246C51.8437 123.669 51.2821 127.264 51.4168 130.308C51.5516 133.353 51.8508 143.395 57.3808 146.311Z" fill="#BDD0FB"/>
<path d="M20.8716 106.221C21.525 105.593 22.2177 105.029 22.9319 104.483C23.6461 103.94 24.383 103.422 25.152 102.95C26.6817 101.999 28.3176 101.188 30.0607 100.629C30.9323 100.352 31.8313 100.139 32.7506 100.021C33.6698 99.9093 34.6106 99.8938 35.5441 100.009C35.7766 100.048 36.0115 100.069 36.2416 100.12C36.4706 100.174 36.7066 100.218 36.9284 100.281L38.2364 100.688L39.5169 101.187L40.7581 101.784C42.3856 102.642 43.8569 103.804 45.0814 105.169C46.3154 106.531 47.2776 108.101 48.0693 109.726L48.3662 110.336C48.4675 110.538 48.5414 110.753 48.6309 110.959C48.799 111.378 48.9802 111.792 49.1364 112.214L49.574 113.49C49.729 113.912 49.8268 114.351 49.9519 114.782C50.4444 116.508 50.7842 118.266 51.0727 120.026C51.0906 120.134 51.0179 120.235 50.9106 120.253C50.808 120.27 50.7114 120.205 50.6876 120.106L50.6864 120.1C50.2631 118.379 49.8601 116.654 49.2831 114.987C49.0208 114.145 48.6905 113.33 48.3829 112.508C48.2171 112.103 48.0288 111.707 47.8523 111.306C47.7593 111.108 47.6818 110.903 47.5769 110.711L47.2716 110.131C46.4633 108.585 45.482 107.14 44.3147 105.874C43.1451 104.61 41.7584 103.567 40.2406 102.767L39.0757 102.215L37.8691 101.753L36.6291 101.376C36.4229 101.318 36.2226 101.28 36.0199 101.23C35.8172 101.182 35.6085 101.162 35.4023 101.126C34.5724 101.017 33.7235 101.023 32.8793 101.119C32.034 101.208 31.1922 101.386 30.3648 101.627C28.7075 102.108 27.1062 102.826 25.5669 103.662C24.8003 104.086 24.0396 104.529 23.3016 105.008C22.5659 105.489 21.8374 105.996 21.1435 106.528L21.1387 106.531C21.0493 106.601 20.9205 106.583 20.8514 106.493C20.787 106.411 20.7965 106.293 20.8716 106.221Z" fill="url(#paint5_linear_1070_73857)"/>
<path d="M123.905 121C123.905 121 122.284 116.734 120.392 117.124C118.5 117.515 116.429 118.969 116.429 118.969L113.389 123.083C113.389 123.083 121.924 126.446 124.925 124.519C124.925 124.519 133.644 126.025 144.653 124.218C143.059 120.852 142.11 117.483 141.552 114.867C135.976 118.024 129.97 120.384 123.905 121Z" fill="url(#paint6_linear_1070_73857)"/>
<path d="M170.087 90.0498C170.087 90.0498 157.605 105.777 141.553 114.867C142.111 117.483 143.06 120.853 144.654 124.219C152.981 122.852 162.618 119.59 170.789 112.341L170.087 90.0498Z" fill="#11077B"/>
<path d="M110.501 122.5C94.9628 116.393 89.2532 107.475 88.996 99.5819C84.7595 98.82 79.1644 98.0551 74.965 98.3553C79.7635 129 108.306 125.508 108.306 125.508L110.501 122.5Z" fill="url(#paint7_linear_1070_73857)"/>
<path d="M106.697 123.437C106.697 123.437 108.004 122.033 110.422 122.474C112.84 122.916 114.992 123.755 116.499 122.474C118.006 121.193 118.536 122.913 118.536 122.913L114.024 126.345L106.697 123.437Z" fill="url(#paint8_linear_1070_73857)"/>
<path d="M104 125.836C104 125.836 104.895 122.091 107.594 122.605C110.292 123.118 116.417 126.451 117.995 125.836C119.574 125.222 121.592 123.754 122.627 124.273L120.803 126.541C120.803 126.541 125.492 123.835 126.3 125.498L118.497 129.89C118.497 129.89 107.082 128.747 104 125.836Z" fill="url(#paint9_linear_1070_73857)"/>
<path d="M37.2673 155.018C37.2673 155.018 33.3971 105.476 61.6106 88.2882C61.6106 88.2882 69.4988 83.0782 79.327 93.1677C89.1564 103.256 85.9908 113.738 77.7424 123.56C69.4941 133.383 61.0931 145.696 63.0926 155.517C60.7509 156.647 56.213 157.963 50.2372 157.974C44.1993 157.986 39.6137 156.152 37.2673 155.018Z" fill="#11077B"/>
<path d="M75.8302 73.2324C75.8231 73.892 66.4277 87.2413 66.4277 87.2413C66.4277 87.2413 68.1137 90.5644 76.1653 93.2612L83.114 78.9672L75.8302 73.2324Z" fill="url(#paint10_linear_1070_73857)"/>
<path d="M72.1367 119.066C72.1367 119.066 89.9617 134 109.21 127.483C110.404 127.079 111.709 127.167 112.824 127.755L118.358 130.678C120.68 131.906 123.556 131.099 124.905 128.845C125.674 127.558 126.329 126.09 126.459 124.681L115.632 120.297L116.431 118.968C116.431 118.968 111.144 118.519 109.761 122.31C109.761 122.31 99.6921 126.5 82.7101 107.814C82.7077 107.816 75.0018 114.371 72.1367 119.066Z" fill="url(#paint11_linear_1070_73857)"/>
<path d="M71.1769 119.002C71.1006 119.002 71.0242 118.98 70.9563 118.934C63.4293 113.845 59.8881 105.633 59.8535 105.551C59.7689 105.351 59.8619 105.119 60.0622 105.033C60.2625 104.949 60.4938 105.042 60.5797 105.242C60.6142 105.322 64.0695 113.325 71.3986 118.279C71.5787 118.4 71.6264 118.646 71.5047 118.826C71.4272 118.941 71.3032 119.002 71.1769 119.002Z" fill="url(#paint12_linear_1070_73857)"/>
<path d="M82.3566 107.653C82.2266 107.653 82.1003 107.59 82.0251 107.472C82.0025 107.436 79.7085 103.864 75.3387 96.0381C74.0081 93.655 72.2625 92.1461 70.1486 91.5545C66.6432 90.5729 63.263 92.4551 63.2285 92.4741C63.0389 92.5815 62.7992 92.5147 62.6907 92.3262C62.5822 92.1378 62.649 91.8957 62.8386 91.7883C62.9876 91.7036 66.2271 89.7559 70.052 90.8222C72.3782 91.4722 74.5887 93.0777 76.0267 95.6528C80.3809 103.452 82.6642 107.009 82.6869 107.045C82.8049 107.229 82.7524 107.472 82.5688 107.59C82.5044 107.633 82.4305 107.653 82.3566 107.653Z" fill="url(#paint13_linear_1070_73857)"/>
<path d="M83.2286 65.582C83.2286 65.582 86.5718 73.2646 86.7959 77.2961C87.0201 81.3288 87.8893 83.9445 83.2286 84.7568C78.5678 85.5691 74.6416 83.2468 72.5145 79.2296C72.5145 79.2296 69.182 73.0403 69.9296 70.5057C70.6772 67.9711 83.2286 65.582 83.2286 65.582Z" fill="url(#paint14_linear_1070_73857)"/>
<path d="M74.1077 76.3425L74.3736 76.2256C74.711 76.0765 74.8553 75.6745 74.686 75.3465C74.029 74.0762 72.7473 71.1659 74.4022 70.486C76.5353 69.6105 84.9839 67.887 86.807 64.8884C88.5585 62.0055 87.0061 58.2853 84.6739 57.2273C84.5177 57.157 84.3341 57.213 84.2542 57.3645L84.0599 57.7331C83.9264 57.9848 83.5544 57.9466 83.4757 57.6734C83.3994 57.411 83.05 57.3597 82.9057 57.5911C82.3454 58.4881 80.8323 59.9433 76.7868 60.6899C71.0375 61.7515 67.2365 64.0785 67.1411 68.054C67.1351 68.3069 66.8669 68.4464 66.6511 68.3152C66.2266 68.0564 65.547 67.9347 64.6396 68.6981C63.061 70.0268 63.7072 73.4715 67.1685 76.3055C67.333 76.4403 67.3319 76.6967 67.153 76.8124C66.5259 77.2215 65.5899 78.1936 68.0139 79.4901C70.5213 80.8308 72.3932 80.7211 73.1145 80.6018C73.2934 80.572 73.409 80.399 73.3709 80.2213L72.6018 76.7277C72.5577 76.5297 72.7092 76.3425 72.9107 76.3425H74.1077Z" fill="url(#paint15_linear_1070_73857)"/>
<path d="M74.2524 77.0796C74.2524 77.0796 72.9766 72.1726 70.778 73.5478C68.5782 74.9243 71.919 79.0465 73.6872 79.2301L74.2524 77.0796Z" fill="url(#paint16_linear_1070_73857)"/>
<path d="M112.822 127.757C112.822 127.757 117.352 132.189 118.226 131.544C118.537 131.315 119.322 130.48 120.083 129.552C120.62 128.897 120.676 127.97 120.216 127.259L119.147 125.61C118.129 124.039 115.95 123.709 114.538 124.938C113.825 125.56 113.179 126.457 112.822 127.757Z" fill="url(#paint17_linear_1070_73857)"/>
<path d="M184.728 156.514C184.728 156.514 184.172 140.022 172.598 119.459C168.978 113.026 167.69 105.539 168.818 98.2442L170.085 90.0511C170.085 90.0511 185.969 84.6742 203.577 89.8245C203.577 89.8245 227.991 104.956 211.674 156.514C209.143 157.68 204.463 159.439 198.364 159.47C192.091 159.502 187.278 157.689 184.728 156.514Z" fill="#11077B"/>
<path d="M172.789 79.5941L176.908 89.4928C177.168 90.1178 177.731 90.5639 178.398 90.6784C180.773 91.0863 186.516 91.7221 190.287 89.2411C190.737 88.9453 190.851 88.3346 190.544 87.8921L182.934 76.9629L172.789 79.5941Z" fill="url(#paint18_linear_1070_73857)"/>
<path d="M182.95 126.115C182.382 126.264 182.101 126.902 182.371 127.422L194.287 150.279C194.489 150.665 194.934 150.855 195.352 150.734L234.33 139.476C234.815 139.335 235.095 138.828 234.954 138.343L228.241 115.09C228.102 114.613 227.609 114.333 227.129 114.459L182.95 126.115Z" fill="#BDD0FB"/>
<path d="M185.464 123.428C184.906 123.562 184.589 124.152 184.788 124.69L194.327 150.61C194.5 151.081 195.009 151.339 195.49 151.199L234.351 139.975C234.835 139.836 235.127 139.345 235.021 138.853L229.634 113.907C229.521 113.383 228.999 113.053 228.477 113.178L185.464 123.428Z" fill="#BDD0FB"/>
<path d="M188.848 120.812C188.167 120.916 187.717 121.578 187.872 122.249L194.351 150.231C194.504 150.892 195.18 151.289 195.832 151.102L234.104 140.048C234.719 139.87 235.082 139.235 234.922 138.615L229.037 115.774C228.885 115.186 228.313 114.808 227.713 114.899L188.848 120.812Z" fill="#307AFF"/>
<path d="M219.828 131.483C222.798 109.037 205.507 91.7764 205.507 91.7764L195.219 103.774C203.03 113.514 206.742 122.439 208.439 129.448C210.688 128.794 216.103 127.758 219.828 131.483Z" fill="#11077B"/>
<path d="M208.438 129.711C208.319 129.711 208.212 129.63 208.183 129.51C206.079 120.815 201.648 112.211 195.013 103.938C194.922 103.825 194.94 103.659 195.053 103.569C195.167 103.478 195.332 103.496 195.423 103.609C202.106 111.943 206.571 120.615 208.693 129.386C208.728 129.526 208.641 129.67 208.5 129.703C208.48 129.709 208.458 129.711 208.438 129.711Z" fill="url(#paint19_linear_1070_73857)"/>
<path d="M208.439 129.449C210.015 135.964 209.849 140.826 209.61 143.146C209.519 144.021 208.817 144.703 207.939 144.765C206.943 144.836 205.587 144.926 204.376 144.997C203.044 145.073 201.565 144.231 200.577 143.527C200.072 143.168 199.419 143.728 199.7 144.28C200.439 145.724 202.312 147.01 203.602 147.766C204.071 148.042 203.983 148.743 203.46 148.892L197.939 150.457C207.009 159.006 212.998 149.441 212.998 149.441C217.002 143.252 219.072 137.2 219.829 131.484C216.104 127.758 210.689 128.793 208.439 129.449Z" fill="url(#paint20_linear_1070_73857)"/>
<path d="M177.05 64.4485C176.878 64.6119 169.75 78.6136 169.75 78.6136L177.829 82.5151L186.556 70.2476C186.556 70.2476 179.947 61.7206 177.05 64.4485Z" fill="url(#paint21_linear_1070_73857)"/>
<path d="M182.882 71.7196L178.854 78.4384C178.793 78.5398 178.72 78.6328 178.633 78.7139C178.154 79.16 176.512 80.4589 175.243 78.6912C174.162 77.1836 173.147 75.8131 172.06 75.2478C171.426 74.9174 170.643 75.181 170.321 75.8203C169.657 77.1359 168.372 79.8196 167.564 82.3637C167.361 83.0019 167.69 83.6865 168.31 83.937C169.946 84.6002 173.179 85.7989 176.048 86.1949C176.519 86.2605 176.986 86.0613 177.267 85.6772C178.501 83.9859 181.98 79.259 183.167 78.0758C184.27 76.9761 186.307 77.3911 187.224 77.6547C187.572 77.7549 187.943 77.7072 188.253 77.52C189.184 76.9594 190.808 75.5626 189.322 73.1986C188.952 72.6106 189.141 71.8281 189.721 71.4464C190.761 70.763 191.888 69.4796 190.814 67.4006C189.726 65.2966 187.784 65.1069 186.462 65.2692C185.876 65.3407 185.282 65.0342 185.057 64.4879C184.957 64.2458 184.76 64.0382 184.392 63.9643C183.699 63.8235 183.244 63.189 183.38 62.4948C183.613 61.3044 183.437 59.7574 181.536 58.7114C178.051 56.7946 174.998 59.9185 174.221 62.5556C173.445 65.1928 177.343 67.0559 179.794 67.3672C181.595 67.5962 182.582 69.5619 182.98 70.5889C183.124 70.9598 183.089 71.3761 182.882 71.7196Z" fill="url(#paint22_linear_1070_73857)"/>
<path d="M181.654 80.5427C181.654 80.5427 183.204 76.0055 185.188 76.1725C187.172 76.3395 188.734 78.3158 186.274 80.5391C183.216 83.304 181.654 80.5427 181.654 80.5427Z" fill="url(#paint23_linear_1070_73857)"/>
<path d="M77.0508 91.3379L82 102C84.3005 102.542 83.1519 110.013 85.2271 110.294C86.3577 106.805 90.3212 103.237 92.5 100C83.8532 97.897 77.0508 91.3379 77.0508 91.3379Z" fill="#11077B"/>
<path opacity="0.2" d="M219.987 36.1452H176.733C175.809 36.1452 175.059 35.3961 175.059 34.4705C175.059 33.5461 175.807 32.7959 176.733 32.7959H219.987C220.911 32.7959 221.661 33.5461 221.661 34.4705C221.661 35.3949 220.912 36.1452 219.987 36.1452Z" fill="white"/>
<path opacity="0.53" d="M225.184 42.7047H181.93C181.006 42.7047 180.256 41.9557 180.256 41.0301C180.256 40.1057 181.005 39.3555 181.93 39.3555H225.184C226.108 39.3555 226.858 40.1045 226.858 41.0301C226.858 41.9545 226.11 42.7047 225.184 42.7047Z" fill="white"/>
<path opacity="0.53" d="M212.884 55.8209H181.93C181.006 55.8209 180.256 55.0719 180.256 54.1463C180.256 53.2219 181.005 52.4717 181.93 52.4717H212.884C213.809 52.4717 214.558 53.2219 214.558 54.1463C214.558 55.0719 213.81 55.8209 212.884 55.8209Z" fill="white"/>
<path opacity="0.2" d="M230.036 49.2633H186.781C185.857 49.2633 185.107 48.5143 185.107 47.5887C185.107 46.6643 185.856 45.9141 186.781 45.9141H230.036C230.96 45.9141 231.71 46.6643 231.71 47.5887C231.71 48.5131 230.96 49.2633 230.036 49.2633Z" fill="white"/>
<path opacity="0.2" d="M52.5476 124.853H9.29314C8.3691 124.853 7.61914 124.104 7.61914 123.179C7.61914 122.254 8.36791 121.504 9.29314 121.504H52.5476C53.4716 121.504 54.2216 122.253 54.2216 123.179C54.2216 124.103 53.4716 124.853 52.5476 124.853Z" fill="white"/>
<path opacity="0.53" d="M57.7448 131.411H14.4904C13.5664 131.411 12.8164 130.662 12.8164 129.736C12.8164 128.812 13.5652 128.062 14.4904 128.062H57.7448C58.6689 128.062 59.4188 128.812 59.4188 129.736C59.4188 130.662 58.6689 131.411 57.7448 131.411Z" fill="white"/>
<path opacity="0.53" d="M45.445 144.529H14.4904C13.5664 144.529 12.8164 143.78 12.8164 142.854C12.8164 141.93 13.5652 141.18 14.4904 141.18H45.445C46.369 141.18 47.119 141.93 47.119 142.854C47.119 143.78 46.369 144.529 45.445 144.529Z" fill="white"/>
<path opacity="0.2" d="M62.5952 137.97H19.342C18.4179 137.97 17.668 137.221 17.668 136.296C17.668 135.371 18.4167 134.621 19.342 134.621H62.5964C63.5204 134.621 64.2704 135.371 64.2704 136.296C64.2692 137.221 63.5204 137.97 62.5952 137.97Z" fill="white"/>
<g opacity="0.64">
<path d="M110.754 35.3081C110.618 35.3081 110.487 35.2366 110.418 35.109C110.253 34.8072 110.092 34.4971 109.94 34.187C109.847 33.9973 109.924 33.7671 110.115 33.6741C110.305 33.581 110.535 33.6586 110.628 33.8494C110.775 34.15 110.93 34.4494 111.09 34.7416C111.192 34.9277 111.124 35.1602 110.938 35.2616C110.879 35.2938 110.816 35.3081 110.754 35.3081Z" fill="white"/>
<path d="M109.066 31.41C108.905 31.41 108.755 31.3075 108.702 31.1465C108.494 30.5107 108.309 29.8559 108.155 29.2011C108.106 28.9947 108.234 28.7884 108.44 28.7395C108.645 28.6906 108.853 28.8182 108.902 29.0245C109.051 29.6579 109.229 30.2912 109.431 30.9067C109.497 31.1083 109.387 31.3242 109.187 31.391C109.146 31.4041 109.105 31.41 109.066 31.41ZM108.001 26.3098C107.806 26.3098 107.639 26.1619 107.621 25.9627C107.557 25.2936 107.521 24.6149 107.514 23.9446C107.511 23.7323 107.681 23.5593 107.893 23.5569C107.894 23.5569 107.895 23.5569 107.898 23.5569C108.107 23.5569 108.278 23.7263 108.28 23.9362C108.288 24.5851 108.322 25.2423 108.384 25.89C108.404 26.1011 108.249 26.2884 108.039 26.3074C108.026 26.3086 108.014 26.3098 108.001 26.3098ZM108.087 21.1011C108.071 21.1011 108.054 21.0999 108.037 21.0975C107.827 21.07 107.679 20.878 107.706 20.6681C107.792 20.0025 107.907 19.3334 108.05 18.6762C108.096 18.4698 108.299 18.3374 108.506 18.3828C108.712 18.4281 108.843 18.632 108.799 18.8384C108.661 19.4741 108.549 20.1218 108.465 20.7647C108.441 20.9603 108.277 21.1011 108.087 21.1011ZM109.332 16.0414C109.288 16.0414 109.243 16.0342 109.2 16.0175C109.001 15.9436 108.899 15.7241 108.973 15.5249C109.206 14.8951 109.468 14.2678 109.753 13.6606C109.842 13.4698 110.071 13.3863 110.263 13.477C110.455 13.5664 110.537 13.7954 110.447 13.9875C110.171 14.5755 109.917 15.1826 109.692 15.7909C109.634 15.9448 109.487 16.0414 109.332 16.0414ZM111.669 11.3849C111.597 11.3849 111.525 11.3646 111.46 11.3228C111.283 11.2071 111.232 10.9698 111.348 10.7921C111.714 10.2303 112.108 9.67564 112.52 9.14606C112.65 8.97907 112.891 8.94925 113.058 9.07926C113.225 9.20927 113.255 9.45021 113.125 9.6172C112.725 10.1301 112.344 10.6656 111.99 11.2095C111.917 11.324 111.794 11.3849 111.669 11.3849ZM114.975 7.3605C114.875 7.3605 114.776 7.32114 114.701 7.2448C114.553 7.09332 114.557 6.85 114.708 6.70329C115.189 6.23573 115.695 5.78248 116.214 5.35667C116.377 5.22189 116.619 5.24694 116.753 5.41034C116.886 5.57375 116.863 5.81588 116.699 5.94947C116.197 6.36097 115.707 6.7999 115.241 7.25196C115.168 7.32472 115.072 7.3605 114.975 7.3605ZM119.089 4.16988C118.96 4.16988 118.833 4.10427 118.761 3.98619C118.651 3.80489 118.708 3.56992 118.888 3.45899C119.462 3.10952 120.057 2.78032 120.656 2.48213C120.846 2.3879 121.076 2.46543 121.17 2.65388C121.265 2.84353 121.187 3.07373 120.999 3.16796C120.418 3.45661 119.843 3.77507 119.289 4.11262C119.226 4.15079 119.157 4.16988 119.089 4.16988ZM123.81 1.97401C123.649 1.97401 123.5 1.87263 123.446 1.71161C123.38 1.51122 123.488 1.29414 123.689 1.22615C124.324 1.01384 124.976 0.82658 125.63 0.667944C125.836 0.617848 126.042 0.74428 126.092 0.950627C126.142 1.15578 126.016 1.36332 125.81 1.41342C125.178 1.56609 124.546 1.74739 123.932 1.95373C123.891 1.96805 123.849 1.97401 123.81 1.97401ZM136.069 1.2679C136.043 1.2679 136.017 1.26551 135.99 1.25955C135.354 1.12477 134.705 1.01623 134.062 0.936314C133.852 0.910073 133.703 0.719232 133.728 0.509307C133.754 0.299382 133.945 0.149095 134.155 0.175335C134.82 0.257635 135.491 0.369754 136.147 0.509307C136.354 0.553439 136.487 0.756208 136.443 0.963747C136.406 1.14385 136.247 1.2679 136.069 1.2679ZM128.9 0.88264C128.706 0.88264 128.539 0.735931 128.52 0.537933C128.498 0.326815 128.652 0.139553 128.862 0.118083C129.531 0.0500958 130.209 0.0107348 130.878 0C131.093 0 131.264 0.165793 131.267 0.376911C131.27 0.588029 131.101 0.763364 130.89 0.76575C130.243 0.776484 129.586 0.814653 128.938 0.880254C128.926 0.88264 128.913 0.88264 128.9 0.88264Z" fill="white"/>
<path d="M140.138 2.53197C140.089 2.53197 140.039 2.52243 139.991 2.50215C139.683 2.37452 139.367 2.25167 139.055 2.13836C138.856 2.0656 138.753 1.84613 138.826 1.64694C138.899 1.44775 139.118 1.34517 139.317 1.41793C139.64 1.53602 139.966 1.66245 140.284 1.79365C140.48 1.87476 140.573 2.099 140.492 2.29461C140.431 2.44251 140.288 2.53197 140.138 2.53197Z" fill="white"/>
</g>
<g opacity="0.64">
<path d="M152.969 15.6193C152.815 15.6193 152.671 15.5263 152.611 15.3748C152.49 15.0623 152.361 14.7498 152.226 14.4468C152.14 14.2536 152.229 14.027 152.422 13.9411C152.615 13.8552 152.841 13.9435 152.927 14.1367C153.066 14.4504 153.199 14.7736 153.326 15.0957C153.402 15.2925 153.304 15.5155 153.107 15.5919C153.063 15.6109 153.016 15.6193 152.969 15.6193Z" fill="white"/>
<path d="M131.201 47.4492C130.914 47.4492 130.627 47.4444 130.342 47.4337C130.131 47.4265 129.966 47.2488 129.974 47.0365C129.981 46.8254 130.164 46.6643 130.371 46.6679C131.008 46.6918 131.655 46.6882 132.294 46.6572C132.509 46.6488 132.685 46.811 132.695 47.0222C132.704 47.2333 132.542 47.4134 132.33 47.4229C131.956 47.4396 131.575 47.4492 131.201 47.4492ZM127.197 47.1009C127.176 47.1009 127.153 47.0985 127.13 47.0949C126.481 46.9804 125.827 46.8373 125.188 46.6691C124.983 46.6154 124.861 46.4055 124.915 46.2004C124.969 45.9952 125.179 45.8735 125.384 45.9272C126.002 46.0906 126.634 46.229 127.263 46.3387C127.471 46.3757 127.611 46.5737 127.574 46.7824C127.542 46.9697 127.381 47.1009 127.197 47.1009ZM135.467 47.058C135.286 47.058 135.125 46.9291 135.09 46.7443C135.052 46.5355 135.189 46.3363 135.398 46.2982C136.027 46.1825 136.658 46.0393 137.273 45.8712C137.477 45.8163 137.688 45.9368 137.743 46.1407C137.798 46.3447 137.677 46.5558 137.474 46.6107C136.838 46.7836 136.187 46.9315 135.536 47.0508C135.513 47.0556 135.49 47.058 135.467 47.058ZM140.374 45.5849C140.225 45.5849 140.084 45.4978 140.022 45.3511C139.939 45.1567 140.03 44.9313 140.224 44.849C140.812 44.5985 141.396 44.3206 141.96 44.0224C142.147 43.9234 142.379 43.9949 142.478 44.1822C142.577 44.3695 142.505 44.6009 142.318 44.6999C141.735 45.0088 141.13 45.2962 140.523 45.5539C140.475 45.5754 140.423 45.5849 140.374 45.5849ZM144.837 43.0718C144.718 43.0718 144.601 43.0169 144.526 42.9119C144.402 42.7402 144.441 42.5004 144.613 42.3764C145.132 42.003 145.641 41.6035 146.126 41.1884C146.287 41.0512 146.529 41.0703 146.666 41.2301C146.803 41.3912 146.784 41.6333 146.625 41.7705C146.124 42.1987 145.598 42.6114 145.061 42.9978C144.992 43.0479 144.915 43.0718 144.837 43.0718ZM148.642 39.6414C148.551 39.6414 148.461 39.6092 148.387 39.5448C148.228 39.404 148.215 39.1619 148.356 39.0033C148.781 38.5262 149.19 38.0252 149.574 37.5147C149.702 37.3453 149.941 37.3119 150.111 37.4384C150.28 37.566 150.313 37.8057 150.187 37.9751C149.791 38.5023 149.368 39.02 148.928 39.5126C148.853 39.5984 148.748 39.6414 148.642 39.6414ZM151.612 35.4644C151.549 35.4644 151.484 35.4489 151.426 35.4155C151.241 35.3117 151.176 35.0791 151.278 34.8942C151.589 34.336 151.881 33.7575 152.145 33.1767C152.232 32.9834 152.46 32.8975 152.652 32.9858C152.845 33.0729 152.929 33.3007 152.842 33.4927C152.571 34.0939 152.269 34.6903 151.947 35.2676C151.877 35.394 151.747 35.4644 151.612 35.4644ZM153.604 30.741C153.568 30.741 153.532 30.7363 153.495 30.7255C153.292 30.6647 153.176 30.4512 153.236 30.2484C153.418 29.6354 153.576 29.008 153.706 28.383C153.749 28.1754 153.951 28.0418 154.159 28.086C154.366 28.1289 154.498 28.3317 154.456 28.5392C154.322 29.1857 154.159 29.8345 153.97 30.4679C153.921 30.6325 153.77 30.741 153.604 30.741ZM154.512 25.6933C154.503 25.6933 154.494 25.6933 154.485 25.6921C154.274 25.6778 154.115 25.4953 154.129 25.2842C154.163 24.7761 154.18 24.2608 154.18 23.7515C154.18 23.6215 154.179 23.4915 154.177 23.3615C154.173 23.1503 154.342 22.975 154.553 22.9714C154.761 22.9655 154.94 23.136 154.943 23.3483C154.946 23.4831 154.947 23.6179 154.947 23.7515C154.947 24.2775 154.929 24.8107 154.893 25.3355C154.88 25.5382 154.712 25.6933 154.512 25.6933ZM154.291 20.5716C154.105 20.5716 153.942 20.4356 153.913 20.246C153.816 19.6138 153.692 18.9781 153.543 18.3578C153.495 18.1515 153.621 17.9451 153.827 17.8962C154.032 17.8473 154.24 17.9738 154.289 18.1801C154.442 18.8218 154.57 19.4778 154.67 20.1315C154.702 20.3402 154.558 20.5358 154.349 20.568C154.33 20.5704 154.31 20.5716 154.291 20.5716Z" fill="white"/>
<path d="M122.265 45.6575C122.216 45.6575 122.166 45.648 122.117 45.6277C121.798 45.4941 121.479 45.3533 121.168 45.2066C120.976 45.1172 120.893 44.8882 120.984 44.6961C121.075 44.5041 121.302 44.4218 121.494 44.5124C121.795 44.6544 122.104 44.7904 122.412 44.9192C122.608 45.0003 122.7 45.2245 122.619 45.4201C122.557 45.5692 122.414 45.6575 122.265 45.6575Z" fill="white"/>
</g>
<path d="M121.643 38.8715C121.736 38.9455 121.867 38.9526 121.967 38.8882L124.842 37.0562C126.281 37.736 127.839 38.1917 129.465 38.3813L130.936 41.455C130.987 41.5624 131.101 41.6256 131.22 41.6125L135.281 41.1473C135.401 41.1342 135.497 41.0459 135.524 40.929L136.26 37.6024C137.802 37.049 139.217 36.2534 140.466 35.2658L143.68 36.4001C143.792 36.4395 143.919 36.4037 143.992 36.3107L146.536 33.1081C146.61 33.0139 146.617 32.8839 146.552 32.7837L144.721 29.908C145.401 28.4683 145.856 26.9094 146.046 25.2825L149.118 23.8118C149.225 23.7605 149.289 23.646 149.276 23.5267L148.811 19.463C148.797 19.3437 148.709 19.2471 148.592 19.2209L145.267 18.4838C144.714 16.9415 143.919 15.5257 142.931 14.2769L144.065 11.0612C144.105 10.9491 144.069 10.8227 143.976 10.7487L140.774 8.20458C140.681 8.13063 140.55 8.12347 140.45 8.18788L137.575 10.02C136.136 9.34008 134.578 8.88445 132.952 8.6948L131.482 5.62107C131.43 5.51372 131.316 5.45051 131.197 5.46363L127.134 5.9288C127.015 5.94192 126.919 6.03019 126.892 6.14708L126.156 9.47367C124.614 10.0259 123.199 10.8227 121.95 11.8103L118.736 10.676C118.624 10.6366 118.497 10.6724 118.423 10.7654L115.88 13.968C115.806 14.061 115.799 14.1922 115.864 14.2924L117.695 17.1681C117.015 18.6078 116.56 20.1667 116.37 21.7937L113.298 23.2643C113.19 23.3156 113.127 23.4301 113.14 23.5494L113.605 27.6119C113.619 27.7312 113.707 27.8278 113.824 27.854L117.149 28.5912C117.702 30.1334 118.497 31.5492 119.485 32.798L118.351 36.0137C118.311 36.1258 118.347 36.2522 118.44 36.3262L121.643 38.8715Z" fill="#313896"/>
<path opacity="0.56" d="M131.212 27.9387C129.435 27.9387 127.759 26.8533 127.095 25.0951C126.68 23.9966 126.717 22.8015 127.2 21.7304C127.683 20.6593 128.554 19.841 129.652 19.426C130.751 19.0109 131.945 19.0479 133.016 19.5321C134.087 20.0152 134.905 20.8871 135.319 21.9856C136.177 24.2542 135.029 26.7972 132.761 27.6548C132.252 27.8468 131.727 27.9387 131.212 27.9387ZM131.208 20.6736C130.866 20.6736 130.524 20.7356 130.195 20.8597C129.48 21.1304 128.912 21.6636 128.597 22.3601C128.282 23.0579 128.259 23.8356 128.528 24.5524C129.086 26.0303 130.742 26.7781 132.219 26.2199C132.935 25.9491 133.502 25.416 133.817 24.7182C134.132 24.0205 134.156 23.2428 133.886 22.5271C133.616 21.8115 133.083 21.2437 132.386 20.9288C132.01 20.7595 131.609 20.6736 131.208 20.6736Z" fill="white"/>
<path opacity="0.56" d="M131.243 33.5921C130.986 33.5921 130.728 33.5826 130.473 33.5623C130.4 33.5564 130.326 33.5504 130.254 33.5432C130.121 33.5301 130.023 33.4192 130.023 33.2892C130.023 33.2808 130.023 33.2725 130.025 33.2641C130.039 33.1234 130.165 33.022 130.304 33.0351C130.98 33.1019 131.668 33.0959 132.35 33.0184C137.064 32.4781 140.597 28.5921 140.851 24.0048C140.86 23.8294 140.865 23.6541 140.865 23.4764C140.865 23.1126 140.845 22.744 140.802 22.3743C140.51 19.823 139.242 17.5388 137.232 15.9417C135.222 14.3446 132.711 13.6254 130.162 13.9176C125.267 14.4782 121.646 18.6445 121.645 23.4597C121.645 23.8235 121.665 24.192 121.708 24.5618C121.906 26.2925 122.568 27.9349 123.623 29.3101C123.659 29.3567 123.676 29.4115 123.676 29.4652C123.676 29.5415 123.641 29.6179 123.575 29.668C123.463 29.7538 123.304 29.7324 123.218 29.6203C122.108 28.1711 121.41 26.4416 121.202 24.619C121.157 24.229 121.135 23.8414 121.135 23.4585C121.136 18.3881 124.949 13.9999 130.103 13.4095C132.788 13.103 135.433 13.8592 137.55 15.541C139.667 17.2227 141.002 19.6285 141.31 22.3158C141.354 22.7058 141.377 23.0935 141.377 23.4764C141.375 28.5468 137.562 32.9349 132.408 33.5253C132.021 33.5695 131.631 33.5921 131.243 33.5921Z" fill="white"/>
<g opacity="0.64">
<path d="M86.05 41.7142C85.9594 41.7142 85.8724 41.6665 85.8259 41.5819C85.7221 41.3922 85.622 41.199 85.5278 41.0034C85.4658 40.8769 85.5194 40.7231 85.6458 40.6622C85.7722 40.6014 85.9248 40.6527 85.9868 40.7803C86.0786 40.9688 86.174 41.1537 86.2742 41.3361C86.3421 41.4602 86.2968 41.6152 86.1728 41.6832C86.1335 41.7035 86.0905 41.7142 86.05 41.7142Z" fill="white"/>
<path d="M85.2705 40.006C85.1667 40.006 85.069 39.9428 85.0308 39.839C84.8842 39.4454 84.7554 39.0398 84.6469 38.6355C84.6099 38.4995 84.691 38.3588 84.8281 38.323C84.9641 38.286 85.1047 38.3671 85.1405 38.5043C85.2442 38.8943 85.3682 39.2832 85.5089 39.6625C85.5578 39.7949 85.4911 39.9416 85.3587 39.9917C85.3301 40.0012 85.2991 40.006 85.2705 40.006ZM84.6302 37.6145C84.5074 37.6145 84.4001 37.5262 84.3786 37.401C84.3619 37.3044 84.3476 37.2078 84.3321 37.1112C84.2856 36.7915 84.2487 36.4671 84.226 36.1474C84.2153 36.0067 84.3214 35.8838 84.4621 35.8731C84.604 35.8611 84.7256 35.9685 84.7363 36.1092C84.759 36.417 84.7936 36.7295 84.8389 37.036C84.8532 37.129 84.8675 37.2221 84.883 37.3151C84.9068 37.4547 84.8126 37.5859 84.6731 37.6097C84.6588 37.6133 84.6445 37.6145 84.6302 37.6145ZM84.4466 35.1455C84.4454 35.1455 84.443 35.1455 84.4418 35.1455C84.3011 35.1431 84.1891 35.0262 84.1914 34.8843C84.1998 34.4644 84.2284 34.041 84.2773 33.6235C84.294 33.4828 84.4204 33.3826 84.5599 33.3993C84.7006 33.416 84.8007 33.5424 84.784 33.682C84.7375 34.0827 84.7101 34.4907 84.7017 34.8938C84.6994 35.0346 84.5861 35.1455 84.4466 35.1455ZM84.7316 32.686C84.7137 32.686 84.6958 32.6848 84.6779 32.6801C84.5396 32.6503 84.4526 32.5143 84.4812 32.3771C84.5694 31.9668 84.6779 31.5553 84.8031 31.1557C84.846 31.0209 84.9891 30.9458 85.1238 30.9887C85.2586 31.0317 85.3325 31.1748 85.2907 31.3096C85.1691 31.6949 85.0654 32.0897 84.9807 32.4845C84.9557 32.6037 84.8496 32.686 84.7316 32.686ZM85.4756 30.3244C85.4422 30.3244 85.4088 30.3172 85.3766 30.3041C85.2466 30.2492 85.1858 30.0989 85.2407 29.9689C85.404 29.5825 85.5876 29.1996 85.7879 28.8299C85.8547 28.7058 86.0097 28.6593 86.1337 28.7261C86.2577 28.7929 86.3042 28.9479 86.2374 29.072C86.0455 29.4274 85.869 29.796 85.7116 30.1681C85.6699 30.2659 85.5757 30.3244 85.4756 30.3244ZM86.6512 28.1452C86.6023 28.1452 86.5534 28.1309 86.5093 28.1023C86.3924 28.0235 86.3602 27.8649 86.4389 27.748C86.6726 27.3985 86.9242 27.0574 87.1889 26.7318C87.2783 26.6221 87.4393 26.6054 87.5478 26.6948C87.6575 26.7843 87.6742 26.9453 87.5847 27.0538C87.3308 27.3663 87.0875 27.6955 86.8634 28.0319C86.8145 28.1058 86.7334 28.1452 86.6512 28.1452ZM88.2131 26.2249C88.1487 26.2249 88.0843 26.201 88.0342 26.1509C87.9341 26.0519 87.9329 25.8897 88.0307 25.7895C88.3252 25.4901 88.6364 25.2015 88.9571 24.9319C89.0644 24.8413 89.2265 24.8544 89.3172 24.9629C89.4078 25.0715 89.3947 25.2325 89.2862 25.3231C88.9774 25.5832 88.6781 25.8611 88.3943 26.1485C88.3454 26.1998 88.2799 26.2249 88.2131 26.2249ZM90.1077 24.6325C90.0266 24.6325 89.9467 24.5944 89.8978 24.5228C89.8179 24.4071 89.8465 24.2473 89.9622 24.1674C90.3068 23.9288 90.668 23.7046 91.0341 23.4994C91.1569 23.4314 91.3131 23.4744 91.3822 23.5984C91.4514 23.7213 91.4073 23.8775 91.2833 23.9467C90.9315 24.1435 90.5846 24.3594 90.2531 24.5884C90.2078 24.617 90.1565 24.6325 90.1077 24.6325ZM92.2669 23.4255C92.1692 23.4255 92.075 23.3682 92.0332 23.2728C91.976 23.144 92.0356 22.9925 92.1644 22.9364C92.5483 22.7683 92.9442 22.6156 93.3436 22.4832C93.4783 22.4391 93.6214 22.5118 93.6667 22.6454C93.7108 22.779 93.6381 22.9233 93.5045 22.9686C93.1206 23.0951 92.7391 23.2418 92.3707 23.404C92.3361 23.4183 92.3015 23.4255 92.2669 23.4255ZM100.756 22.7122C100.736 22.7122 100.714 22.7098 100.693 22.7039C100.302 22.6049 99.9012 22.5237 99.503 22.4629C99.3635 22.4414 99.2681 22.3114 99.2896 22.1719C99.3111 22.0323 99.4422 21.9369 99.5805 21.9584C99.9954 22.0216 100.412 22.1063 100.818 22.2101C100.955 22.2446 101.038 22.3842 101.003 22.5202C100.974 22.6347 100.869 22.7122 100.756 22.7122ZM94.6158 22.6478C94.4989 22.6478 94.394 22.5679 94.3666 22.4486C94.3356 22.3114 94.4214 22.1743 94.5585 22.1421C94.9019 22.0633 95.2536 21.9977 95.6042 21.9465C95.6698 21.9369 95.7353 21.9274 95.8009 21.919C95.9404 21.8999 96.0692 21.9989 96.0871 22.1385C96.1049 22.278 96.0072 22.4069 95.8677 22.4248C95.8045 22.4331 95.7413 22.4414 95.6781 22.451C95.3407 22.5011 95.0021 22.5643 94.6718 22.6394C94.6539 22.6466 94.6348 22.6478 94.6158 22.6478ZM98.3095 22.3365C98.3048 22.3365 98.3 22.3365 98.294 22.3365C97.8946 22.3138 97.4868 22.3091 97.0791 22.3246C96.9396 22.3305 96.8191 22.2196 96.8144 22.0788C96.8096 21.9381 96.9193 21.8188 97.06 21.8141C97.4833 21.7986 97.9065 21.8021 98.3226 21.826C98.4633 21.8343 98.5706 21.9548 98.5635 22.0955C98.5563 22.2315 98.4431 22.3365 98.3095 22.3365Z" fill="white"/>
<path d="M102.552 23.3072C102.52 23.3072 102.486 23.3012 102.454 23.2881C102.262 23.2082 102.067 23.133 101.87 23.0627C101.738 23.0149 101.669 22.8682 101.716 22.7358C101.764 22.6034 101.909 22.5331 102.043 22.582C102.247 22.6547 102.45 22.7335 102.65 22.8158C102.78 22.8694 102.842 23.0197 102.788 23.1497C102.748 23.2487 102.652 23.3072 102.552 23.3072Z" fill="white"/>
</g>
<g opacity="0.64">
<path d="M109.778 30.7181C109.676 30.7181 109.579 30.6561 109.54 30.5535C109.465 30.3579 109.386 30.1647 109.301 29.975C109.244 29.8462 109.302 29.6947 109.432 29.6386C109.561 29.5826 109.713 29.6398 109.769 29.7699C109.856 29.9678 109.938 30.1682 110.017 30.3722C110.067 30.5034 110.001 30.6513 109.87 30.7026C109.839 30.7133 109.808 30.7181 109.778 30.7181Z" fill="white"/>
<path d="M97.5322 48.5315C97.1602 48.5315 96.7846 48.516 96.4162 48.485C96.2755 48.4731 96.1718 48.349 96.1825 48.2095C96.1944 48.0687 96.3184 47.9638 96.4579 47.9757C96.8859 48.0115 97.3223 48.027 97.7563 48.0186C97.9006 48.0222 98.0139 48.1284 98.0163 48.2691C98.0186 48.4099 97.9066 48.5268 97.7659 48.5291C97.6872 48.5303 97.6097 48.5315 97.5322 48.5315ZM99.0822 48.4397C98.9546 48.4397 98.8437 48.3443 98.8294 48.2143C98.8127 48.0735 98.9129 47.9471 99.0536 47.9304C99.174 47.9161 99.2956 47.9006 99.4172 47.8827C99.7248 47.8373 100.034 47.7801 100.334 47.7145C100.471 47.6847 100.608 47.7706 100.638 47.9089C100.669 48.0461 100.582 48.1833 100.444 48.2131C100.131 48.2822 99.8107 48.3407 99.4899 48.3884C99.3636 48.4075 99.2384 48.4242 99.112 48.4385C99.1024 48.4385 99.0917 48.4397 99.0822 48.4397ZM95.1237 48.3073C95.1082 48.3073 95.0927 48.3061 95.076 48.3025C94.6349 48.219 94.1937 48.1129 93.7633 47.9853C93.6274 47.9447 93.5511 47.8028 93.5904 47.668C93.631 47.532 93.7728 47.4557 93.9076 47.495C94.3213 47.6179 94.7469 47.7205 95.1702 47.8004C95.3085 47.8266 95.4003 47.9602 95.3741 48.0986C95.3514 48.2214 95.2441 48.3073 95.1237 48.3073ZM101.666 47.8684C101.559 47.8684 101.458 47.8004 101.424 47.693C101.38 47.5594 101.452 47.4151 101.586 47.3698C101.996 47.235 102.404 47.0764 102.797 46.901C102.926 46.8438 103.078 46.901 103.135 47.0299C103.192 47.1587 103.135 47.3102 103.006 47.3674C102.597 47.5499 102.173 47.7145 101.747 47.8552C101.72 47.8636 101.692 47.8684 101.666 47.8684ZM104.082 46.7877C103.993 46.7877 103.907 46.7424 103.86 46.6601C103.789 46.5372 103.831 46.3822 103.954 46.3106C104.328 46.0947 104.694 45.8586 105.045 45.6069C105.159 45.5246 105.319 45.5508 105.401 45.6653C105.484 45.7798 105.457 45.9397 105.343 46.022C104.979 46.2844 104.598 46.5301 104.209 46.7543C104.169 46.777 104.124 46.7877 104.082 46.7877ZM106.228 45.2431C106.157 45.2431 106.087 45.2145 106.037 45.1572C105.944 45.0511 105.953 44.89 106.058 44.797C106.381 44.5107 106.693 44.2054 106.986 43.8881C107.081 43.7844 107.243 43.7772 107.347 43.8738C107.451 43.9692 107.457 44.1315 107.362 44.2352C107.057 44.5656 106.733 44.8841 106.397 45.1811C106.349 45.2216 106.288 45.2431 106.228 45.2431ZM108.022 43.2977C107.968 43.2977 107.915 43.281 107.869 43.2464C107.756 43.1617 107.734 43.0019 107.818 42.8886C108.077 42.5439 108.323 42.1813 108.545 41.8115C108.618 41.6911 108.776 41.6517 108.896 41.7257C109.016 41.7984 109.056 41.9559 108.982 42.0763C108.749 42.4604 108.495 42.8373 108.226 43.1951C108.176 43.2619 108.1 43.2977 108.022 43.2977ZM109.391 41.0315C109.354 41.0315 109.317 41.0231 109.281 41.0064C109.154 40.9456 109.099 40.7941 109.16 40.6665C109.344 40.2753 109.512 39.8721 109.657 39.4654C109.704 39.333 109.85 39.2626 109.983 39.3103C110.116 39.358 110.186 39.5036 110.138 39.6371C109.988 40.0594 109.814 40.4792 109.622 40.886C109.578 40.9778 109.486 41.0315 109.391 41.0315ZM110.278 38.5374C110.258 38.5374 110.237 38.535 110.217 38.5303C110.08 38.4969 109.997 38.3585 110.03 38.2213C110.132 37.8015 110.215 37.3721 110.274 36.9451C110.293 36.8055 110.422 36.7065 110.563 36.7268C110.702 36.7459 110.8 36.8747 110.781 37.0155C110.719 37.4604 110.633 37.9065 110.527 38.343C110.497 38.4599 110.394 38.5374 110.278 38.5374ZM110.643 35.9157C110.639 35.9157 110.637 35.9157 110.633 35.9157C110.493 35.911 110.382 35.7917 110.388 35.651C110.394 35.4959 110.396 35.3408 110.396 35.1846C110.396 34.9091 110.386 34.6288 110.369 34.352C110.359 34.2113 110.466 34.0896 110.607 34.0801C110.746 34.0729 110.869 34.1779 110.879 34.3186C110.898 34.6073 110.907 34.8983 110.906 35.1846C110.906 35.3468 110.904 35.509 110.898 35.67C110.893 35.8072 110.78 35.9157 110.643 35.9157ZM110.472 33.2738C110.349 33.2738 110.241 33.1855 110.221 33.0603C110.15 32.6333 110.057 32.2063 109.944 31.79C109.907 31.654 109.988 31.5133 110.124 31.4763C110.26 31.4405 110.401 31.5204 110.438 31.6564C110.555 32.0882 110.651 32.5331 110.725 32.9768C110.748 33.1163 110.653 33.2476 110.515 33.2702C110.5 33.2726 110.485 33.2738 110.472 33.2738Z" fill="white"/>
<path d="M92.5728 47.5516C92.5406 47.5516 92.5072 47.5456 92.4762 47.5325C92.2747 47.4502 92.0768 47.3619 91.8813 47.2701C91.7537 47.2104 91.6988 47.0578 91.7585 46.9301C91.8181 46.8025 91.9707 46.7477 92.0983 46.8073C92.2867 46.8956 92.4774 46.9802 92.6706 47.059C92.8005 47.1126 92.8637 47.2617 92.8101 47.3929C92.7683 47.4919 92.673 47.5516 92.5728 47.5516Z" fill="white"/>
</g>
<path d="M92.1636 43.6757C92.216 43.7174 92.2888 43.721 92.346 43.6852L93.9604 42.6559C94.7688 43.0376 95.6439 43.294 96.5572 43.4002L97.3823 45.1261C97.4109 45.1869 97.4753 45.2215 97.5421 45.2143L99.8229 44.9531C99.8897 44.946 99.9446 44.8959 99.9589 44.8315L100.373 42.9636C101.238 42.6535 102.032 42.2062 102.733 41.6516L104.539 42.2885C104.602 42.3112 104.672 42.2909 104.714 42.2384L106.142 40.4397C106.184 40.3873 106.187 40.3145 106.152 40.2573L105.123 38.6423C105.504 37.8336 105.761 36.9581 105.867 36.0444L107.592 35.2191C107.653 35.1904 107.689 35.126 107.68 35.0592L107.419 32.7775C107.412 32.7107 107.362 32.6558 107.296 32.6415L105.429 32.2276C105.119 31.3617 104.672 30.5661 104.118 29.866L104.754 28.0601C104.777 27.9969 104.757 27.9265 104.704 27.8848L102.906 26.4559C102.854 26.4141 102.781 26.4105 102.724 26.4463L101.109 27.4757C100.301 27.094 99.4259 26.8376 98.5126 26.7314L97.6875 25.0055C97.6589 24.9446 97.5945 24.9089 97.5278 24.9172L95.2469 25.1784C95.1801 25.1856 95.1253 25.2357 95.111 25.3013L94.6972 27.1691C93.8316 27.4793 93.0364 27.9265 92.3365 28.4812L90.5313 27.8442C90.4681 27.8216 90.3978 27.8419 90.3561 27.8943L88.9277 29.693C88.8859 29.7455 88.8824 29.8183 88.9181 29.8755L89.9471 31.4905C89.5656 32.2992 89.3092 33.1747 89.2031 34.0883L87.4778 34.9137C87.417 34.9423 87.3824 35.0067 87.3896 35.0735L87.6507 37.3553C87.6579 37.4221 87.7079 37.4769 87.7723 37.4913L89.6395 37.9051C89.9495 38.7711 90.3966 39.5655 90.951 40.2668L90.3143 42.0726C90.2917 42.1358 90.3119 42.2062 90.3644 42.248L92.1636 43.6757Z" fill="#313896"/>
<path opacity="0.56" d="M97.5382 37.3618C96.6118 37.3618 95.7366 36.7953 95.3897 35.878C95.1727 35.3043 95.1929 34.6817 95.4445 34.1223C95.6961 33.5641 96.1515 33.1371 96.7238 32.92C97.2973 32.7029 97.9197 32.7232 98.4789 32.9749C99.0369 33.2265 99.4638 33.6822 99.6808 34.2547C100.128 35.4379 99.5293 36.7654 98.3454 37.2127C98.0807 37.3141 97.8065 37.3618 97.5382 37.3618ZM97.5358 33.2814C97.3224 33.2814 97.1102 33.3196 96.9051 33.3971C95.9858 33.7442 95.5196 34.7759 95.8678 35.6967C96.2147 36.6163 97.2461 37.0815 98.1665 36.7344C99.0858 36.3861 99.552 35.3556 99.2038 34.436C99.0357 33.9899 98.7043 33.6368 98.2703 33.4412C98.0354 33.3351 97.7862 33.2814 97.5358 33.2814Z" fill="white"/>
<path opacity="0.56" d="M97.555 40.8224C97.4859 40.8224 97.4155 40.8212 97.3464 40.8188C97.2403 40.8152 97.1329 40.8081 97.028 40.7985C97.0221 40.7985 97.0149 40.7973 97.009 40.7973C97.003 40.7962 96.997 40.7962 96.9911 40.7962H96.9887C96.8563 40.783 96.7586 40.6721 96.7586 40.5421C96.7586 40.5337 96.7586 40.5254 96.7598 40.5171C96.7741 40.3763 96.8969 40.2737 97.0388 40.288C97.4108 40.325 97.7899 40.3214 98.1643 40.2785C100.973 39.9565 103.021 37.4743 102.836 34.6809C102.83 34.5962 102.823 34.5103 102.813 34.4244C102.482 31.5284 99.8586 29.4411 96.9625 29.7739C94.2714 30.0828 92.2803 32.3729 92.2791 35.0208C92.2791 35.2212 92.291 35.4228 92.3137 35.6268C92.4222 36.5786 92.787 37.4815 93.3665 38.2377C93.4022 38.2842 93.4189 38.3391 93.4189 38.3928C93.4189 38.4691 93.3843 38.5454 93.3188 38.5955C93.2067 38.6814 93.0469 38.6599 92.9611 38.5478C92.3256 37.7177 91.9262 36.7277 91.8057 35.684C91.7807 35.461 91.7676 35.2391 91.7676 35.0196C91.7676 32.1165 93.9519 29.6033 96.9028 29.2646C100.077 28.9008 102.956 31.1885 103.32 34.3648C103.345 34.5879 103.358 34.8097 103.358 35.0292C103.358 37.9323 101.174 40.4455 98.2227 40.7842C98.2168 40.7854 98.2108 40.7854 98.2048 40.7866C97.9878 40.8105 97.7708 40.8224 97.555 40.8224Z" fill="white"/>
<path d="M48.3809 94.4681L47.7359 94.7198L47.7287 94.7222C47.619 94.7651 47.495 94.7103 47.4521 94.6005C47.4092 94.4908 47.464 94.3667 47.5737 94.3238L48.2343 94.0674C48.344 94.0244 48.468 94.0793 48.5097 94.189C48.5526 94.2988 48.4978 94.4228 48.3881 94.4646L48.3809 94.4681Z" fill="white"/>
<path d="M45.8587 95.6133L45.2554 95.9544L45.2494 95.958C45.1457 96.0165 45.0134 95.9807 44.9538 95.8757C44.8953 95.7719 44.9311 95.6395 45.036 95.5799L45.6536 95.2328C45.7574 95.1744 45.8897 95.2113 45.9481 95.3151C46.0066 95.4189 45.9696 95.5513 45.8659 95.6097L45.8587 95.6133Z" fill="white"/>
<path d="M43.5184 97.0984L42.9651 97.5171L42.9592 97.5218C42.8626 97.5946 42.7243 97.5755 42.6516 97.4789C42.5788 97.3823 42.5979 97.2439 42.6945 97.1712L43.2596 96.7453C43.3562 96.6726 43.4933 96.6917 43.5661 96.7883C43.6388 96.8849 43.6197 97.0221 43.5231 97.0948L43.5184 97.0984Z" fill="white"/>
<path d="M41.3867 98.8744L40.8883 99.3575L40.8835 99.3622C40.7953 99.4481 40.6546 99.4457 40.5688 99.3575C40.4829 99.2692 40.4853 99.1285 40.5735 99.0426L41.0827 98.5512C41.1709 98.4665 41.3116 98.4689 41.3962 98.5571C41.4809 98.6454 41.4785 98.7861 41.3903 98.8708L41.3867 98.8744Z" fill="white"/>
<path d="M39.4789 100.892L39.0378 101.428L39.0342 101.433C38.9555 101.53 38.8136 101.543 38.717 101.464C38.6205 101.385 38.6073 101.243 38.686 101.147L39.1355 100.6C39.2142 100.505 39.3561 100.491 39.4515 100.569C39.5469 100.648 39.5612 100.79 39.4825 100.886L39.4789 100.892Z" fill="white"/>
<path d="M37.8059 103.109L37.4244 103.69L37.4208 103.695C37.3517 103.8 37.2098 103.83 37.1049 103.761C36.9999 103.691 36.9701 103.549 37.0393 103.444L37.428 102.854C37.4971 102.749 37.639 102.72 37.7439 102.79C37.8489 102.859 37.8775 103.001 37.8083 103.106L37.8059 103.109Z" fill="white"/>
<path d="M36.3692 105.489L36.0485 106.106L36.0461 106.11C35.9865 106.224 35.847 106.268 35.7337 106.208C35.6205 106.15 35.5763 106.009 35.636 105.896L35.9638 105.269C36.0235 105.156 36.1618 105.113 36.275 105.172C36.3883 105.231 36.4312 105.37 36.3728 105.483L36.3692 105.489Z" fill="white"/>
<path d="M35.1752 108.001L34.9153 108.646L34.9129 108.651C34.864 108.772 34.7281 108.829 34.6077 108.781C34.4873 108.732 34.43 108.596 34.4777 108.476L34.7424 107.821C34.7913 107.702 34.9272 107.643 35.0465 107.692C35.1657 107.741 35.2241 107.877 35.1752 107.996V108.001Z" fill="white"/>
<path d="M34.2333 110.616L34.0366 111.282L34.0354 111.288C33.9984 111.413 33.8661 111.486 33.7409 111.449C33.6157 111.412 33.543 111.28 33.5799 111.155L33.7803 110.477C33.8172 110.352 33.9484 110.28 34.0736 110.317C34.1988 110.354 34.2703 110.486 34.2333 110.611V110.616Z" fill="white"/>
<path d="M33.5451 113.31L33.414 113.992L33.4128 113.998C33.3878 114.128 33.2626 114.214 33.1326 114.189C33.0026 114.164 32.9168 114.039 32.9418 113.909L33.0766 113.215C33.1016 113.085 33.2268 113 33.3568 113.025C33.4867 113.05 33.5714 113.175 33.5463 113.305L33.5451 113.31Z" fill="white"/>
<path d="M33.1232 116.056L33.0612 116.748V116.754C33.0493 116.888 32.9313 116.987 32.7977 116.975C32.6642 116.963 32.5652 116.845 32.5771 116.711L32.6415 116.008C32.6535 115.874 32.7715 115.776 32.905 115.788C33.0386 115.8 33.1363 115.918 33.1244 116.052L33.1232 116.056Z" fill="white"/>
<path d="M32.9822 118.831L32.9918 119.525V119.531C32.9942 119.667 32.8845 119.778 32.7497 119.781C32.6138 119.783 32.5029 119.673 32.5005 119.538L32.4922 118.831C32.491 118.696 32.5995 118.585 32.7342 118.583C32.869 118.582 32.9799 118.69 32.9822 118.825V118.831Z" fill="white"/>
<path d="M33.1241 121.606L33.2016 122.296L33.2028 122.302C33.2183 122.438 33.1205 122.562 32.9834 122.578C32.8475 122.593 32.7235 122.496 32.708 122.358L32.6305 121.656C32.615 121.52 32.714 121.397 32.8499 121.381C32.9858 121.366 33.1086 121.465 33.1241 121.601V121.606Z" fill="white"/>
<path d="M33.535 124.355L33.678 125.035L33.6792 125.041C33.7079 125.177 33.6208 125.31 33.4849 125.339C33.349 125.368 33.2154 125.281 33.1868 125.145L33.0426 124.453C33.0139 124.317 33.101 124.184 33.2369 124.156C33.3728 124.127 33.5052 124.214 33.5338 124.35L33.535 124.355Z" fill="white"/>
<path d="M34.1998 127.054L34.4049 127.718L34.4061 127.724C34.4478 127.859 34.3727 128.001 34.238 128.043C34.1032 128.085 33.9613 128.009 33.9196 127.875L33.7122 127.198C33.6716 127.065 33.7467 126.923 33.8803 126.881C34.0138 126.841 34.1557 126.916 34.1974 127.049L34.1998 127.054Z" fill="white"/>
<path d="M35.1105 129.681L35.374 130.324L35.3764 130.329C35.4301 130.46 35.368 130.611 35.2357 130.665C35.1045 130.719 34.9543 130.657 34.8995 130.525L34.6324 129.87C34.5787 129.739 34.6419 129.588 34.7731 129.535C34.9042 129.481 35.0545 129.544 35.1081 129.675L35.1105 129.681Z" fill="white"/>
<path d="M36.2504 132.217L36.57 132.835L36.5724 132.84C36.6379 132.967 36.5891 133.125 36.4603 133.19C36.3327 133.256 36.1753 133.207 36.1097 133.078L35.7866 132.45C35.7211 132.322 35.7711 132.166 35.8987 132.1C36.0263 132.035 36.1825 132.085 36.2481 132.212L36.2504 132.217Z" fill="white"/>
<path d="M37.6064 134.643L37.9784 135.23L37.9819 135.235C38.0594 135.358 38.0237 135.52 37.9009 135.597C37.7781 135.675 37.6159 135.639 37.5384 135.516L37.1616 134.919C37.0841 134.796 37.1211 134.633 37.2439 134.557C37.3667 134.48 37.5289 134.517 37.6064 134.639V134.643Z" fill="white"/>
<path d="M39.1696 136.944L39.5917 137.496L39.5953 137.501C39.6847 137.618 39.662 137.785 39.5452 137.874C39.4284 137.963 39.2614 137.941 39.172 137.824L38.7452 137.261C38.6569 137.144 38.6796 136.978 38.7964 136.889C38.9133 136.8 39.079 136.823 39.1684 136.94L39.1696 136.944Z" fill="white"/>
<path d="M40.9269 139.097L41.3955 139.61L41.3991 139.614C41.4993 139.724 41.4909 139.895 41.3812 139.995C41.2715 140.095 41.101 140.087 41.0009 139.977L40.5251 139.453C40.425 139.344 40.4333 139.174 40.543 139.074C40.6527 138.974 40.822 138.982 40.9222 139.092L40.9269 139.097Z" fill="white"/>
<path d="M42.8687 141.084L43.3814 141.553L43.3862 141.558C43.4971 141.659 43.5042 141.831 43.4029 141.942C43.3015 142.053 43.1298 142.06 43.019 141.959L42.4979 141.48C42.3882 141.379 42.3799 141.207 42.4812 141.098C42.5826 140.988 42.7543 140.979 42.864 141.081L42.8687 141.084Z" fill="white"/>
<path d="M44.9817 142.887L45.5361 143.305L45.5409 143.309C45.6613 143.401 45.6864 143.572 45.5946 143.694C45.5028 143.815 45.3311 143.84 45.2094 143.748L44.6455 143.32C44.5251 143.228 44.5012 143.056 44.593 142.936C44.6848 142.815 44.8565 142.791 44.9769 142.883L44.9817 142.887Z" fill="white"/>
<path d="M47.2554 144.479L47.8468 144.841L47.8527 144.845C47.9839 144.925 48.0244 145.096 47.9445 145.227C47.8647 145.358 47.6942 145.399 47.563 145.319L46.9597 144.948C46.8297 144.868 46.7892 144.697 46.8691 144.567C46.949 144.437 47.1195 144.397 47.2494 144.477L47.2554 144.479Z" fill="white"/>
<path d="M49.6746 145.838L50.2993 146.14L50.3053 146.142C50.4448 146.209 50.5032 146.377 50.4365 146.517C50.3697 146.656 50.2016 146.715 50.0621 146.648L49.4254 146.339C49.2859 146.271 49.2286 146.104 49.2954 145.965C49.3634 145.826 49.5303 145.769 49.6686 145.835L49.6746 145.838Z" fill="white"/>
<path d="M52.216 146.952L52.867 147.193L52.8729 147.196C53.0196 147.249 53.0947 147.413 53.041 147.56C52.9874 147.706 52.824 147.781 52.6774 147.728L52.0145 147.481C51.8678 147.426 51.7939 147.264 51.8475 147.117C51.9024 146.97 52.0646 146.896 52.2112 146.95L52.216 146.952Z" fill="white"/>
<path d="M54.8518 147.821L55.5231 148L55.529 148.001C55.6816 148.042 55.7723 148.199 55.7317 148.352C55.6912 148.504 55.5338 148.595 55.3812 148.554L54.698 148.371C54.5454 148.33 54.4548 148.173 54.4965 148.021C54.537 147.869 54.6944 147.778 54.8458 147.82L54.8518 147.821Z" fill="white"/>
<path d="M57.5582 148.442L58.2426 148.559L58.2486 148.56C58.406 148.586 58.5121 148.736 58.4847 148.894C58.4584 149.051 58.3082 149.158 58.1508 149.13H58.1496L57.4521 149.01C57.2947 148.982 57.1898 148.833 57.2172 148.677C57.2447 148.519 57.3937 148.414 57.5499 148.442H57.5582Z" fill="white"/>
<path d="M60.308 148.815L61.0008 148.87H61.0067C61.1677 148.883 61.2869 149.024 61.275 149.185C61.2619 149.346 61.1212 149.465 60.9602 149.454H60.959L60.2544 149.396C60.0946 149.383 59.9742 149.242 59.9873 149.083C60.0004 148.923 60.1411 148.802 60.3009 148.815H60.308Z" fill="white"/>
<path d="M63.0817 148.944L63.7756 148.939H63.7816C63.9449 148.938 64.0773 149.069 64.0785 149.233C64.0797 149.396 63.9485 149.529 63.7852 149.53H63.784L63.0769 149.533C62.9148 149.535 62.7825 149.403 62.7813 149.24C62.7801 149.078 62.9112 148.945 63.0746 148.944H63.0817Z" fill="white"/>
<path d="M65.8586 148.839L66.5501 148.777H66.5561C66.7194 148.762 66.8637 148.883 66.878 149.045C66.8923 149.208 66.7719 149.353 66.6098 149.367L65.9051 149.43C65.7418 149.444 65.5987 149.324 65.5832 149.162C65.5689 148.998 65.6893 148.855 65.8515 148.84L65.8586 148.839Z" fill="white"/>
<path d="M68.6159 148.503L69.3002 148.384L69.3062 148.383C69.4684 148.354 69.6222 148.462 69.6496 148.625C69.6782 148.787 69.5697 148.941 69.4076 148.968L68.7112 149.089C68.5491 149.117 68.3965 149.009 68.3679 148.846C68.3392 148.684 68.4477 148.532 68.6099 148.503H68.6159Z" fill="white"/>
<path d="M71.3381 147.943L72.0105 147.769L72.0165 147.768C72.1763 147.726 72.3384 147.822 72.379 147.981C72.4207 148.141 72.3241 148.303 72.1655 148.344L71.4812 148.52C71.3226 148.561 71.1592 148.465 71.1187 148.307C71.0782 148.148 71.1736 147.985 71.3321 147.944L71.3381 147.943Z" fill="white"/>
<path d="M74.0048 147.166L74.6618 146.938L74.6677 146.935C74.8239 146.882 74.9932 146.964 75.0469 147.12C75.1005 147.276 75.0183 147.446 74.8621 147.5L74.1944 147.731C74.0382 147.785 73.8689 147.702 73.8152 147.546C73.7616 147.39 73.8438 147.22 74 147.167L74.0048 147.166Z" fill="white"/>
<path d="M76.6008 146.176L77.2375 145.897L77.2435 145.895C77.3949 145.828 77.5713 145.897 77.6381 146.048C77.7049 146.2 77.6357 146.376 77.4843 146.443L76.8369 146.727C76.6855 146.794 76.509 146.725 76.4434 146.573C76.3767 146.422 76.4458 146.245 76.5972 146.18L76.6008 146.176Z" fill="white"/>
<path d="M79.1129 144.986L79.7269 144.66L79.7317 144.658C79.8783 144.58 80.0596 144.636 80.1371 144.782C80.2146 144.929 80.1585 145.11 80.0131 145.188L79.3895 145.518C79.2428 145.595 79.0616 145.539 78.9841 145.394C78.9066 145.247 78.9627 145.066 79.1081 144.988L79.1129 144.986Z" fill="white"/>
<path d="M81.5369 143.619L82.1283 143.252L82.1319 143.249C82.2726 143.162 82.4586 143.205 82.5456 143.346C82.6327 143.486 82.5897 143.673 82.449 143.76L81.8493 144.132C81.7086 144.219 81.5238 144.176 81.4356 144.035C81.3485 143.894 81.3915 143.71 81.5334 143.621L81.5369 143.619Z" fill="white"/>
<path d="M83.8672 142.096L84.4359 141.693L84.4395 141.691C84.5754 141.594 84.7626 141.626 84.8592 141.762C84.9557 141.898 84.9235 142.085 84.7876 142.182L84.2117 142.59C84.0758 142.686 83.8886 142.654 83.7921 142.518C83.6955 142.382 83.7277 142.195 83.8636 142.098L83.8672 142.096Z" fill="white"/>
<path d="M86.1079 140.437L86.6539 140.003L86.6575 140C86.7875 139.896 86.9783 139.918 87.082 140.049C87.1857 140.179 87.1643 140.37 87.0331 140.474L86.4811 140.913C86.3511 141.016 86.1615 140.995 86.0578 140.864C85.9541 140.734 85.9755 140.544 86.1067 140.44L86.1079 140.437Z" fill="white"/>
<path d="M88.2551 138.661L88.7797 138.2L88.7821 138.198C88.9073 138.088 89.0992 138.1 89.2089 138.225C89.3186 138.351 89.3067 138.543 89.1815 138.652L88.6521 139.116C88.5269 139.226 88.3361 139.214 88.2253 139.088C88.1156 138.963 88.1275 138.772 88.2539 138.661H88.2551Z" fill="white"/>
<path d="M90.3241 136.787L90.8285 136.305L90.8309 136.303C90.9525 136.187 91.1433 136.192 91.2589 136.312C91.3746 136.434 91.3698 136.625 91.2494 136.74L90.7403 137.226C90.6186 137.342 90.4279 137.337 90.3122 137.215C90.1966 137.093 90.2013 136.903 90.3229 136.787H90.3241Z" fill="white"/>
<path d="M92.3156 134.831L92.8032 134.331L92.8044 134.33C92.9212 134.21 93.1132 134.207 93.2336 134.325C93.354 134.443 93.3564 134.635 93.2384 134.755L92.7472 135.258C92.6303 135.379 92.4384 135.38 92.3179 135.263C92.1975 135.146 92.1963 134.954 92.3132 134.833L92.3156 134.831Z" fill="white"/>
<path d="M94.2443 132.809L94.7177 132.295L94.7189 132.294C94.8321 132.169 95.0253 132.162 95.1493 132.276C95.2733 132.389 95.2805 132.582 95.1672 132.706L94.6915 133.224C94.5782 133.348 94.385 133.355 94.2622 133.242C94.1382 133.128 94.1311 132.935 94.2443 132.812V132.809Z" fill="white"/>
<path d="M96.1178 130.734L96.5792 130.208L96.5804 130.207C96.6913 130.08 96.8844 130.067 97.0108 130.178C97.1372 130.289 97.1503 130.482 97.0394 130.609L96.5756 131.137C96.4647 131.263 96.2716 131.276 96.1452 131.164C96.0176 131.053 96.0057 130.861 96.1178 130.734Z" fill="white"/>
<path d="M97.9476 128.617L98.3995 128.082L98.4007 128.081C98.5092 127.952 98.7023 127.936 98.8311 128.045C98.9599 128.154 98.9766 128.347 98.8669 128.476L98.4138 129.011C98.3053 129.14 98.1122 129.156 97.9834 129.047C97.8546 128.939 97.8379 128.745 97.9476 128.617Z" fill="white"/>
<path d="M99.7443 126.468L100.189 125.928C100.296 125.797 100.489 125.778 100.619 125.885C100.751 125.992 100.77 126.185 100.662 126.317V126.318L100.216 126.859C100.109 126.989 99.916 127.008 99.786 126.901C99.6549 126.793 99.6358 126.599 99.7443 126.468Z" fill="white"/>
<path d="M101.516 124.3L101.957 123.756C102.063 123.623 102.257 123.603 102.389 123.711C102.521 123.817 102.542 124.01 102.434 124.142L101.993 124.687C101.886 124.819 101.693 124.839 101.561 124.733C101.429 124.625 101.409 124.432 101.516 124.3Z" fill="white"/>
<path d="M103.277 122.12L103.716 121.574C103.822 121.442 104.016 121.42 104.149 121.527C104.281 121.634 104.302 121.828 104.195 121.96L103.755 122.507C103.649 122.639 103.455 122.659 103.322 122.553C103.191 122.446 103.171 122.253 103.277 122.12Z" fill="white"/>
<path d="M105.036 119.936L105.475 119.391C105.583 119.258 105.776 119.238 105.909 119.344C106.042 119.452 106.062 119.645 105.956 119.778L105.516 120.324C105.409 120.456 105.216 120.476 105.083 120.37C104.948 120.262 104.928 120.068 105.036 119.936Z" fill="white"/>
<path d="M106.802 117.755L107.245 117.212C107.354 117.08 107.548 117.061 107.68 117.168C107.813 117.277 107.832 117.471 107.725 117.603V117.605L107.281 118.146C107.174 118.278 106.979 118.298 106.847 118.19C106.713 118.082 106.694 117.887 106.802 117.755Z" fill="white"/>
<path d="M108.587 115.59L109.038 115.052C109.148 114.921 109.343 114.903 109.475 115.012C109.606 115.122 109.624 115.318 109.514 115.449L109.513 115.45L109.063 115.987C108.953 116.118 108.759 116.136 108.628 116.027C108.496 115.916 108.478 115.721 108.587 115.59Z" fill="white"/>
<path d="M110.4 113.444L110.859 112.912C110.971 112.782 111.166 112.768 111.296 112.88C111.426 112.992 111.441 113.188 111.329 113.318L111.327 113.319L110.87 113.849L110.868 113.85C110.756 113.98 110.561 113.994 110.431 113.882C110.302 113.77 110.288 113.574 110.4 113.444Z" fill="white"/>
<path d="M112.252 111.332L112.723 110.81C112.837 110.682 113.034 110.672 113.161 110.787C113.289 110.901 113.299 111.098 113.184 111.226L113.183 111.227L112.714 111.746L112.713 111.747C112.599 111.875 112.402 111.884 112.274 111.77C112.147 111.655 112.137 111.458 112.252 111.332Z" fill="white"/>
<path d="M114.154 109.262L114.638 108.752C114.756 108.627 114.954 108.622 115.078 108.742C115.203 108.86 115.208 109.058 115.089 109.182L115.087 109.183L114.606 109.689L114.605 109.69C114.487 109.814 114.289 109.82 114.165 109.701C114.041 109.583 114.036 109.386 114.154 109.262Z" fill="white"/>
<path d="M116.116 107.245L116.617 106.751C116.74 106.63 116.938 106.632 117.058 106.754C117.18 106.876 117.178 107.074 117.056 107.195L117.054 107.197L116.556 107.688L116.554 107.69C116.431 107.81 116.233 107.809 116.113 107.686C115.992 107.563 115.994 107.365 116.116 107.245Z" fill="white"/>
<path d="M118.146 105.294L118.666 104.818C118.794 104.701 118.992 104.711 119.108 104.837C119.225 104.965 119.216 105.163 119.089 105.28L119.087 105.282L118.572 105.753L118.57 105.756C118.442 105.873 118.244 105.863 118.128 105.736C118.01 105.608 118.019 105.41 118.146 105.294Z" fill="white"/>
<path d="M120.254 103.426L120.794 102.974C120.926 102.863 121.124 102.879 121.235 103.013C121.346 103.145 121.329 103.343 121.196 103.454L121.194 103.457L120.659 103.904L120.657 103.906C120.525 104.017 120.327 103.999 120.216 103.867C120.105 103.735 120.122 103.537 120.254 103.426Z" fill="white"/>
<path d="M122.447 101.654L123.01 101.23C123.148 101.125 123.345 101.152 123.45 101.292C123.555 101.43 123.527 101.627 123.388 101.732L123.384 101.734L122.829 102.154L122.825 102.157C122.687 102.261 122.49 102.233 122.385 102.095C122.281 101.956 122.309 101.759 122.447 101.654Z" fill="white"/>
<path d="M124.733 100.002L125.318 99.61C125.463 99.5134 125.658 99.5515 125.755 99.6959C125.851 99.8402 125.813 100.036 125.669 100.132L125.665 100.135L125.087 100.522L125.083 100.525C124.939 100.621 124.744 100.582 124.647 100.438C124.55 100.295 124.589 100.099 124.733 100.002Z" fill="white"/>
<path d="M127.11 98.483L127.716 98.1239C127.867 98.0357 128.06 98.0846 128.148 98.2349C128.236 98.3852 128.187 98.5784 128.037 98.6667L128.034 98.669L127.434 99.0233L127.43 99.0257C127.28 99.1139 127.087 99.0638 126.999 98.9147C126.91 98.7645 126.961 98.5712 127.11 98.483Z" fill="white"/>
<path d="M129.568 97.0989L130.194 96.7744C130.349 96.6945 130.539 96.7554 130.619 96.9104C130.699 97.0655 130.638 97.2563 130.483 97.3362L130.48 97.3386L129.861 97.6583L129.857 97.6607C129.702 97.7406 129.512 97.6797 129.432 97.5247C129.352 97.3696 129.413 97.1788 129.568 97.0989Z" fill="white"/>
<path d="M132.099 95.8535L132.742 95.5649C132.902 95.4933 133.089 95.5649 133.16 95.7235C133.232 95.8834 133.16 96.0706 133.002 96.1422L132.998 96.1446L132.363 96.4296L132.359 96.4308C132.199 96.5024 132.012 96.4308 131.941 96.271C131.868 96.1124 131.939 95.9251 132.099 95.8535Z" fill="white"/>
<path d="M134.695 94.7517L135.353 94.4988C135.516 94.4356 135.7 94.5179 135.763 94.6813C135.826 94.8447 135.744 95.0284 135.581 95.0916L135.577 95.0928L134.927 95.3421L134.924 95.3433C134.76 95.4065 134.577 95.3242 134.514 95.1608C134.45 94.9986 134.532 94.8149 134.695 94.7517Z" fill="white"/>
<path d="M137.349 93.7939L138.02 93.5768C138.187 93.5232 138.367 93.615 138.421 93.782C138.474 93.949 138.382 94.1291 138.215 94.1828L138.212 94.184L137.549 94.3975L137.545 94.3987C137.378 94.4523 137.2 94.3605 137.145 94.1935C137.09 94.0265 137.182 93.8476 137.349 93.7939Z" fill="white"/>
<path d="M140.049 92.9819L140.731 92.8018C140.902 92.7565 141.076 92.8579 141.121 93.0284C141.166 93.199 141.065 93.3732 140.894 93.4185L140.891 93.4197L140.217 93.5974L140.212 93.5986C140.042 93.6439 139.868 93.5413 139.824 93.372C139.777 93.2002 139.879 93.0261 140.049 92.9819Z" fill="white"/>
<path d="M142.789 92.3158L143.48 92.1727C143.653 92.1369 143.822 92.2479 143.858 92.4208C143.894 92.5938 143.783 92.7631 143.61 92.7989L143.605 92.8001L142.923 92.9409L142.918 92.942C142.745 92.9778 142.577 92.8669 142.541 92.694C142.507 92.521 142.618 92.3516 142.789 92.3158Z" fill="white"/>
<path d="M145.561 91.8002L146.259 91.694C146.434 91.6678 146.596 91.7882 146.624 91.9624C146.65 92.1377 146.529 92.2999 146.355 92.3274L146.351 92.3286L145.661 92.4323L145.657 92.4335C145.483 92.4598 145.319 92.3393 145.293 92.1652C145.266 91.9898 145.386 91.8264 145.561 91.8002Z" fill="white"/>
<path d="M148.357 91.4327L149.059 91.3647C149.236 91.348 149.392 91.4769 149.41 91.6534C149.427 91.8299 149.298 91.9862 149.121 92.0041H149.117L148.424 92.0708H148.419C148.243 92.0875 148.087 91.9587 148.07 91.7822C148.053 91.6069 148.182 91.4506 148.357 91.4327Z" fill="white"/>
<path d="M151.169 91.2149L151.874 91.1839C152.051 91.1767 152.2 91.3139 152.209 91.4904C152.216 91.6681 152.079 91.8172 151.902 91.8256H151.898L151.201 91.8554H151.197C151.019 91.8625 150.87 91.7254 150.862 91.5488C150.856 91.3723 150.993 91.222 151.169 91.2149Z" fill="white"/>
<path d="M153.989 91.1485L154.693 91.1556C154.871 91.1568 155.014 91.3023 155.012 91.4812C155.011 91.659 154.865 91.8021 154.686 91.7997H154.682L153.985 91.7926H153.98C153.803 91.7902 153.66 91.6447 153.662 91.4669C153.666 91.2892 153.811 91.1461 153.989 91.1485Z" fill="white"/>
<path d="M156.807 91.232L157.51 91.2762C157.688 91.2869 157.823 91.4408 157.812 91.6185C157.801 91.7962 157.647 91.931 157.47 91.9203H157.465L156.77 91.8761H156.765C156.587 91.8654 156.453 91.7115 156.463 91.5338C156.475 91.3561 156.629 91.2213 156.807 91.232Z" fill="white"/>
<path d="M159.617 91.467L160.317 91.5493C160.495 91.5696 160.621 91.7306 160.601 91.9083C160.581 92.086 160.42 92.2125 160.242 92.1922H160.237L159.546 92.1111H159.541C159.363 92.0896 159.237 91.9298 159.258 91.752C159.28 91.5731 159.439 91.4467 159.617 91.467Z" fill="white"/>
<path d="M162.411 91.8536L163.106 91.974C163.282 92.0051 163.4 92.172 163.369 92.3486C163.338 92.5251 163.171 92.6432 162.995 92.6122L162.99 92.611L162.304 92.4917L162.3 92.4905C162.123 92.4595 162.005 92.2925 162.036 92.116C162.067 91.9407 162.234 91.8226 162.411 91.8536Z" fill="white"/>
<path d="M165.18 92.3903L165.866 92.5478C166.042 92.5883 166.15 92.7625 166.11 92.9366C166.069 93.112 165.895 93.2205 165.721 93.1799L165.716 93.1787L165.038 93.0225L165.033 93.0213C164.859 92.9808 164.749 92.8066 164.79 92.6325C164.831 92.4583 165.004 92.3498 165.18 92.3903Z" fill="white"/>
<path d="M167.914 93.0774L168.591 93.2731C168.764 93.3232 168.863 93.5033 168.814 93.6762C168.764 93.8492 168.584 93.9482 168.411 93.8993L168.406 93.8981L167.738 93.7048L167.733 93.7036C167.56 93.6535 167.461 93.4734 167.511 93.3017C167.562 93.1263 167.741 93.0273 167.914 93.0774Z" fill="white"/>
<path d="M170.608 93.913L171.274 94.1456C171.444 94.2052 171.534 94.3913 171.474 94.5607C171.414 94.73 171.228 94.8207 171.059 94.7611L171.054 94.7599L170.397 94.5297L170.392 94.5285C170.223 94.4688 170.133 94.2828 170.192 94.1134C170.253 93.9428 170.439 93.8534 170.608 93.913Z" fill="white"/>
<path d="M173.251 94.8989L173.903 95.1685C174.07 95.2377 174.149 95.4285 174.081 95.5955C174.011 95.7625 173.821 95.8412 173.654 95.7732L173.649 95.772L173.005 95.506L173 95.5048C172.833 95.4357 172.755 95.2448 172.824 95.0778C172.894 94.9097 173.085 94.8297 173.251 94.8989Z" fill="white"/>
<path d="M175.835 96.0306L176.47 96.336C176.634 96.4147 176.702 96.6103 176.623 96.7725C176.544 96.9359 176.349 97.0039 176.187 96.9252L176.183 96.9228L175.556 96.621L175.552 96.6186C175.39 96.5399 175.321 96.3443 175.4 96.1821C175.476 96.0211 175.672 95.9519 175.835 96.0306Z" fill="white"/>
<path d="M178.35 97.3063L178.968 97.6474C179.126 97.7345 179.184 97.9349 179.097 98.0935C179.01 98.2521 178.809 98.3094 178.651 98.2223L178.647 98.2199L178.038 97.8824L178.034 97.88C177.876 97.7929 177.818 97.5926 177.907 97.4351C177.993 97.2765 178.192 97.2192 178.35 97.3063Z" fill="white"/>
<path d="M180.792 98.7252L181.389 99.101C181.543 99.1976 181.588 99.4003 181.492 99.5542C181.395 99.7081 181.192 99.7534 181.038 99.6568L181.035 99.6544L180.446 99.2834L180.442 99.2811C180.288 99.1844 180.243 98.9817 180.34 98.8278C180.436 98.6751 180.639 98.6286 180.792 98.7252Z" fill="white"/>
<path d="M183.145 100.28L183.72 100.687C183.868 100.792 183.903 100.997 183.798 101.146C183.694 101.294 183.488 101.33 183.339 101.225L183.337 101.223L182.768 100.82L182.766 100.817C182.618 100.712 182.582 100.507 182.687 100.358C182.791 100.21 182.996 100.175 183.145 100.28Z" fill="white"/>
<path d="M185.421 101.937L185.981 102.361C186.127 102.471 186.156 102.679 186.045 102.824C185.935 102.97 185.728 102.998 185.582 102.887L185.581 102.886L185.024 102.464L185.023 102.463C184.877 102.353 184.85 102.146 184.96 102.001C185.069 101.856 185.276 101.827 185.421 101.937Z" fill="white"/>
<path d="M187.645 103.651L188.197 104.084C188.34 104.196 188.366 104.405 188.253 104.548C188.141 104.691 187.932 104.717 187.789 104.604L187.239 104.172C187.094 104.06 187.069 103.853 187.181 103.708C187.293 103.564 187.502 103.539 187.645 103.651Z" fill="white"/>
<path d="M189.852 105.384L190.402 105.816C190.547 105.928 190.573 106.137 190.46 106.281C190.348 106.426 190.139 106.452 189.995 106.339H189.993L189.441 105.906C189.297 105.792 189.272 105.585 189.385 105.441C189.499 105.296 189.707 105.271 189.852 105.384Z" fill="white"/>
<path d="M192.063 107.098L192.621 107.519L192.622 107.52C192.769 107.631 192.797 107.839 192.686 107.985C192.575 108.132 192.368 108.161 192.221 108.05L191.661 107.625C191.515 107.514 191.486 107.307 191.596 107.16C191.707 107.014 191.915 106.985 192.061 107.096L192.063 107.098Z" fill="white"/>
<path d="M194.312 108.757L194.882 109.157L194.885 109.16C195.036 109.266 195.071 109.472 194.967 109.623C194.86 109.773 194.654 109.809 194.504 109.704L193.928 109.298C193.778 109.192 193.742 108.986 193.848 108.835C193.954 108.685 194.161 108.649 194.311 108.755L194.312 108.757Z" fill="white"/>
<path d="M196.618 110.317L197.207 110.687L197.212 110.69C197.368 110.787 197.415 110.993 197.317 111.149C197.219 111.305 197.014 111.352 196.858 111.254L196.26 110.878C196.103 110.78 196.057 110.575 196.155 110.419C196.252 110.263 196.457 110.216 196.614 110.314L196.618 110.317Z" fill="white"/>
<path d="M199.011 111.729L199.625 112.053L199.631 112.056C199.794 112.142 199.856 112.344 199.772 112.507C199.686 112.671 199.484 112.733 199.321 112.648L198.694 112.318C198.53 112.232 198.468 112.03 198.554 111.867C198.64 111.703 198.842 111.641 199.005 111.727L199.011 111.729Z" fill="white"/>
<path d="M201.507 112.932L202.148 113.191L202.157 113.195C202.328 113.264 202.411 113.458 202.342 113.63C202.272 113.802 202.078 113.884 201.906 113.815L201.248 113.549C201.078 113.48 200.994 113.285 201.063 113.114C201.133 112.943 201.327 112.859 201.499 112.929L201.507 112.932Z" fill="white"/>
<path d="M204.11 113.85L204.777 114.026L204.787 114.029C204.966 114.076 205.072 114.26 205.025 114.439C204.977 114.618 204.793 114.724 204.614 114.676L203.926 114.494C203.748 114.446 203.641 114.262 203.689 114.085C203.737 113.906 203.92 113.8 204.099 113.847L204.11 113.85Z" fill="white"/>
<path d="M206.806 114.415L207.489 114.494L207.502 114.495C207.686 114.516 207.818 114.682 207.797 114.867C207.775 115.051 207.61 115.183 207.425 115.161L206.717 115.079C206.533 115.058 206.401 114.891 206.422 114.707C206.444 114.523 206.611 114.391 206.794 114.412L206.806 114.415Z" fill="white"/>
<path d="M209.548 114.565L210.234 114.53L210.248 114.529C210.434 114.519 210.591 114.662 210.601 114.848C210.61 115.034 210.467 115.192 210.281 115.201L209.567 115.237C209.382 115.247 209.224 115.104 209.215 114.918C209.206 114.733 209.349 114.574 209.535 114.566L209.548 114.565Z" fill="white"/>
<path d="M212.275 114.258L212.948 114.113L212.961 114.11C213.143 114.071 213.322 114.187 213.361 114.368C213.401 114.55 213.285 114.729 213.104 114.769L212.406 114.919C212.225 114.958 212.045 114.843 212.006 114.66C211.966 114.479 212.082 114.299 212.264 114.259L212.275 114.258Z" fill="white"/>
<path d="M214.922 113.523L215.566 113.277L215.578 113.272C215.752 113.206 215.947 113.294 216.013 113.468C216.08 113.642 215.991 113.838 215.817 113.903L215.151 114.157C214.977 114.224 214.781 114.136 214.716 113.962C214.649 113.788 214.737 113.592 214.911 113.526L214.922 113.523Z" fill="white"/>
<path d="M217.44 112.408L218.045 112.077L218.055 112.072C218.218 111.982 218.424 112.042 218.514 112.205C218.603 112.369 218.543 112.575 218.38 112.665L217.756 113.007C217.593 113.096 217.387 113.037 217.297 112.873C217.208 112.71 217.268 112.504 217.431 112.414L217.44 112.408Z" fill="white"/>
<path d="M219.793 110.964L220.352 110.559L220.36 110.553C220.512 110.443 220.724 110.477 220.833 110.628C220.943 110.779 220.91 110.992 220.758 111.102L220.182 111.519C220.031 111.629 219.819 111.595 219.709 111.444C219.599 111.292 219.633 111.08 219.784 110.97L219.793 110.964Z" fill="white"/>
<path d="M221.952 109.243L222.46 108.775L222.467 108.769C222.606 108.641 222.82 108.651 222.947 108.788C223.074 108.926 223.065 109.141 222.927 109.267L222.405 109.749C222.267 109.877 222.052 109.867 221.926 109.73C221.798 109.592 221.808 109.377 221.945 109.251L221.952 109.243Z" fill="white"/>
<path d="M223.905 107.286L224.359 106.764L224.365 106.756C224.488 106.615 224.703 106.6 224.845 106.723C224.987 106.846 225.001 107.062 224.879 107.204L224.412 107.739C224.29 107.881 224.074 107.896 223.933 107.773C223.791 107.65 223.777 107.434 223.9 107.293L223.905 107.286Z" fill="white"/>
<path d="M225.637 105.128L226.034 104.562L226.039 104.555C226.146 104.401 226.359 104.363 226.513 104.471C226.667 104.578 226.705 104.792 226.597 104.946L226.19 105.528C226.082 105.682 225.869 105.72 225.716 105.611C225.562 105.504 225.524 105.29 225.632 105.137L225.637 105.128Z" fill="white"/>
<path d="M227.131 102.8L227.466 102.194L227.471 102.186C227.562 102.021 227.77 101.961 227.934 102.052C228.099 102.144 228.158 102.351 228.068 102.516L227.723 103.136C227.631 103.301 227.424 103.361 227.259 103.269C227.095 103.177 227.035 102.969 227.127 102.805L227.131 102.8Z" fill="white"/>
<path d="M228.377 100.329L228.647 99.6916L228.651 99.6833C228.725 99.5091 228.925 99.428 229.099 99.502C229.273 99.5759 229.354 99.7763 229.28 99.9504L229.003 100.604C228.929 100.778 228.728 100.859 228.554 100.785C228.38 100.711 228.299 100.511 228.373 100.337L228.377 100.329Z" fill="white"/>
<path d="M229.354 97.7425L229.555 97.0805L229.557 97.0709C229.612 96.8896 229.804 96.7871 229.985 96.8419C230.166 96.8968 230.269 97.0888 230.214 97.2701L230.008 97.95C229.953 98.1313 229.761 98.2339 229.581 98.1778C229.4 98.123 229.297 97.9309 229.353 97.7508L229.354 97.7425Z" fill="white"/>
<path d="M230.058 95.0629L230.194 94.383L230.195 94.3758C230.232 94.1898 230.413 94.0693 230.599 94.1063C230.785 94.1433 230.906 94.3246 230.869 94.5106L230.729 95.206C230.692 95.3921 230.511 95.5125 230.325 95.4756C230.139 95.4386 230.019 95.2573 230.055 95.0712L230.058 95.0629Z" fill="white"/>
<path d="M230.507 92.3281L230.581 91.6387L230.582 91.6316C230.602 91.4431 230.772 91.3059 230.961 91.3262C231.15 91.3465 231.287 91.5159 231.267 91.7055L231.19 92.4104C231.17 92.5989 231.001 92.736 230.811 92.7158C230.623 92.6955 230.486 92.5261 230.506 92.3365L230.507 92.3281Z" fill="white"/>
<path d="M230.715 89.5624L230.73 88.8682V88.8611C230.735 88.6702 230.892 88.5199 231.082 88.5235C231.273 88.5283 231.423 88.6857 231.419 88.8754L231.404 89.5839C231.399 89.7747 231.242 89.925 231.052 89.9202C230.861 89.9154 230.711 89.758 230.716 89.5684L230.715 89.5624Z" fill="white"/>
<path d="M230.691 86.7864L230.651 86.0934V86.0862C230.64 85.8954 230.784 85.732 230.975 85.7213C231.166 85.7105 231.329 85.8549 231.34 86.0457L231.382 86.7518C231.393 86.9426 231.247 87.1061 231.058 87.1168C230.867 87.1275 230.703 86.982 230.693 86.7924L230.691 86.7864Z" fill="white"/>
<path d="M230.448 84.0201L230.354 83.3319L230.353 83.3259C230.327 83.1363 230.46 82.9621 230.649 82.9359C230.838 82.9097 231.012 83.0433 231.038 83.2317L231.134 83.9331C231.16 84.1227 231.027 84.2968 230.838 84.3231C230.649 84.3493 230.475 84.2157 230.448 84.0273V84.0201Z" fill="white"/>
<path d="M229.997 81.2796L229.852 80.5998L229.851 80.5938C229.812 80.4066 229.931 80.2229 230.118 80.1823C230.306 80.143 230.489 80.2622 230.53 80.4495L230.676 81.1413C230.716 81.3285 230.596 81.5122 230.409 81.5528C230.222 81.5921 230.038 81.4729 229.998 81.2856L229.997 81.2796Z" fill="white"/>
<path d="M229.347 78.5767L229.155 77.9087L229.154 77.9028C229.102 77.7179 229.208 77.5259 229.392 77.4734C229.577 77.4209 229.769 77.527 229.822 77.7119L230.016 78.3918C230.069 78.5767 229.962 78.7687 229.778 78.8212C229.593 78.8737 229.401 78.7675 229.348 78.5826L229.347 78.5767Z" fill="white"/>
<path d="M228.513 75.9265L228.275 75.2729L228.273 75.2669C228.207 75.0856 228.3 74.8864 228.482 74.8208C228.663 74.7552 228.862 74.8483 228.928 75.0296L229.168 75.6939C229.234 75.8752 229.141 76.0744 228.96 76.14C228.778 76.2056 228.579 76.1114 228.514 75.9313L228.513 75.9265Z" fill="white"/>
<path d="M227.5 73.3366L227.219 72.7008L227.217 72.6961C227.14 72.5195 227.219 72.3144 227.396 72.2357C227.572 72.1581 227.777 72.2381 227.856 72.4146L228.141 73.0611C228.219 73.2376 228.139 73.4427 227.962 73.5203C227.786 73.5978 227.581 73.5179 227.503 73.3414L227.5 73.3366Z" fill="white"/>
<path d="M226.315 70.8218L225.993 70.2063L225.991 70.2015C225.902 70.031 225.967 69.8199 226.139 69.7304C226.309 69.6409 226.521 69.7065 226.61 69.8783L226.937 70.5045C227.026 70.6751 226.959 70.8862 226.789 70.9756C226.618 71.0651 226.407 70.9983 226.318 70.8277L226.315 70.8218Z" fill="white"/>
<path d="M224.967 68.3919L224.604 67.7991L224.601 67.7943C224.499 67.6297 224.552 67.4138 224.716 67.3124C224.881 67.2111 225.097 67.2635 225.198 67.4281L225.566 68.0317C225.668 68.1963 225.615 68.4122 225.451 68.5124C225.286 68.6137 225.07 68.5613 224.97 68.3967L224.967 68.3919Z" fill="white"/>
<path d="M223.457 66.0598L223.052 65.4968L223.048 65.4909C222.936 65.3346 222.971 65.1175 223.128 65.0042C223.284 64.8921 223.501 64.9267 223.613 65.0829L224.029 65.6566C224.142 65.8129 224.108 66.0312 223.951 66.1445C223.795 66.2578 223.577 66.2232 223.464 66.067L223.463 66.0658L223.457 66.0598Z" fill="white"/>
<path d="M221.77 63.8555L221.324 63.3211L221.32 63.3175C221.199 63.172 221.218 62.9561 221.363 62.8345C221.509 62.7128 221.723 62.7307 221.845 62.8762L222.3 63.4165C222.423 63.5621 222.404 63.7791 222.259 63.902C222.113 64.0248 221.896 64.0058 221.773 63.8602L221.772 63.8591L221.77 63.8555Z" fill="white"/>
<path d="M219.94 61.7553L219.467 61.2436L219.465 61.2412C219.338 61.104 219.347 60.8905 219.483 60.7641C219.62 60.6377 219.832 60.6448 219.958 60.7808L220.439 61.2961C220.566 61.4332 220.559 61.6479 220.422 61.7755C220.285 61.9032 220.07 61.896 219.943 61.7588L219.942 61.7577L219.94 61.7553Z" fill="white"/>
<path d="M218.011 59.7371L217.518 59.2433L217.515 59.2409C217.385 59.1109 217.385 58.901 217.515 58.771C217.645 58.6409 217.854 58.6398 217.984 58.7698L218.484 59.2648C218.615 59.3948 218.615 59.6059 218.486 59.7371C218.356 59.8683 218.145 59.8695 218.014 59.7395L218.013 59.7383L218.011 59.7371Z" fill="white"/>
<path d="M216.014 57.7879L215.505 57.3096L215.503 57.3084C215.372 57.1844 215.365 56.978 215.489 56.8468C215.613 56.7156 215.818 56.7073 215.951 56.8313L216.466 57.3108C216.598 57.4349 216.606 57.6424 216.482 57.7748C216.358 57.9072 216.151 57.9156 216.018 57.7915L216.017 57.7903L216.014 57.7879Z" fill="white"/>
<path d="M213.955 55.896L213.433 55.4321L213.432 55.4309C213.299 55.3128 213.288 55.11 213.406 54.9764C213.524 54.844 213.726 54.8309 213.859 54.949L214.386 55.4142C214.519 55.5322 214.532 55.7362 214.414 55.8698C214.296 56.0034 214.092 56.0165 213.959 55.8984L213.958 55.8972L213.955 55.896Z" fill="white"/>
<path d="M211.849 54.0581L211.317 53.6049L211.316 53.6037C211.183 53.4916 211.168 53.2936 211.28 53.1612C211.392 53.03 211.587 53.0133 211.72 53.1242L212.259 53.5751C212.393 53.6872 212.411 53.8876 212.299 54.0224C212.187 54.1571 211.987 54.175 211.852 54.0629L211.85 54.0605L211.849 54.0581Z" fill="white"/>
<path d="M209.706 52.2623L209.164 51.8209L209.162 51.8197C209.035 51.716 209.016 51.5275 209.12 51.3999C209.223 51.2735 209.409 51.2532 209.537 51.3546L210.087 51.7923C210.218 51.8961 210.239 52.0869 210.134 52.2169C210.03 52.3481 209.84 52.3696 209.71 52.2646L209.709 52.2635L209.706 52.2623Z" fill="white"/>
<path d="M207.521 50.5136L206.969 50.083L206.968 50.0818C206.845 49.9852 206.823 49.8075 206.919 49.6846C207.015 49.5617 207.191 49.5391 207.314 49.6333L207.873 50.0591C208 50.1557 208.023 50.3358 207.928 50.4611C207.831 50.5875 207.651 50.6114 207.526 50.5159L207.525 50.5148L207.521 50.5136Z" fill="white"/>
<path d="M205.302 48.8123L204.742 48.3948L204.74 48.3936C204.622 48.3053 204.597 48.1372 204.686 48.0191C204.774 47.901 204.94 47.876 205.058 47.963L205.625 48.3769C205.747 48.4652 205.773 48.6345 205.685 48.7562C205.597 48.8779 205.427 48.9041 205.306 48.8158C205.306 48.8158 205.304 48.8158 205.304 48.8147L205.302 48.8123Z" fill="white"/>
<path d="M203.047 47.1594L202.477 46.7551L202.475 46.7539C202.362 46.6728 202.335 46.5153 202.416 46.402C202.496 46.2887 202.652 46.2624 202.765 46.3412L203.342 46.7419C203.459 46.823 203.488 46.9817 203.407 47.0986C203.326 47.2155 203.167 47.2441 203.05 47.163C203.05 47.163 203.049 47.163 203.049 47.1618L203.047 47.1594Z" fill="white"/>
<path d="M200.752 45.5577L200.172 45.1653L200.171 45.1641C200.066 45.0925 200.039 44.9494 200.109 44.8445C200.18 44.7407 200.32 44.7121 200.425 44.78L201.014 45.1641C201.124 45.2357 201.155 45.3824 201.083 45.4909C201.012 45.6007 200.865 45.6317 200.757 45.5601C200.756 45.5601 200.756 45.5589 200.754 45.5589L200.752 45.5577Z" fill="white"/>
<path d="M198.419 44.0142L197.829 43.6396L197.828 43.6385C197.732 43.5776 197.704 43.4512 197.764 43.3558C197.824 43.2615 197.949 43.2329 198.045 43.2902L198.644 43.6563C198.744 43.7172 198.775 43.8472 198.715 43.9474C198.654 44.0476 198.524 44.0786 198.424 44.0177C198.423 44.0177 198.423 44.0166 198.421 44.0166L198.419 44.0142Z" fill="white"/>
<path d="M196.039 42.5479L195.434 42.196L195.432 42.1948C195.346 42.1447 195.316 42.0338 195.366 41.9479C195.415 41.8632 195.525 41.8334 195.609 41.8811L196.223 42.2234C196.313 42.2735 196.345 42.3869 196.295 42.4775C196.245 42.567 196.132 42.5992 196.041 42.5491C196.04 42.5491 196.04 42.5479 196.039 42.5479Z" fill="white"/>
<path d="M193.598 41.185L193.081 40.9191L193.079 40.9179C193.006 40.8797 192.977 40.7902 193.014 40.7175C193.051 40.6459 193.139 40.6161 193.211 40.6519L193.739 40.9083C193.817 40.9453 193.849 41.0383 193.811 41.1159C193.774 41.1934 193.681 41.2256 193.603 41.1874C193.602 41.1874 193.602 41.1862 193.601 41.1862L193.598 41.185Z" fill="white"/>
<path d="M191.578 35.25L190.636 39.1527L188.398 36.8364L191.578 35.25Z" fill="#7D97F4"/>
<path d="M174.572 28.7725L182.879 40.5641C183.038 40.7895 183.282 40.941 183.555 40.9827C183.828 41.0245 184.106 40.9541 184.325 40.7859L195.845 31.9965C195.978 31.8963 196.035 31.7257 195.991 31.5647C195.947 31.4049 195.811 31.2868 195.646 31.2677L174.572 28.7725Z" fill="#91B3FA"/>
<path d="M191.578 35.2503L174.572 28.7725L189.723 36.6745L189.508 37.7682L191.578 35.2503Z" fill="#7D97F4"/>
<path d="M188.619 37.5109L190.639 39.1534L189.724 36.6748L188.619 37.5109Z" fill="#7D97F4"/>
<defs>
<linearGradient id="paint0_linear_1070_73857" x1="252.617" y1="130.988" x2="164.687" y2="-20.8344" gradientUnits="userSpaceOnUse">
<stop stop-color="#E6ECFD"/>
<stop offset="1" stop-color="#E9EFFD"/>
</linearGradient>
<linearGradient id="paint1_linear_1070_73857" x1="152.346" y1="187.023" x2="68.4055" y2="42.0906" gradientUnits="userSpaceOnUse">
<stop stop-color="#E6ECFD"/>
<stop offset="1" stop-color="#E9EFFD"/>
</linearGradient>
<linearGradient id="paint2_linear_1070_73857" x1="185.563" y1="98.0047" x2="230.267" y2="98.0047" gradientUnits="userSpaceOnUse">
<stop stop-color="#DAE3FE"/>
<stop offset="1" stop-color="#E9EFFD"/>
</linearGradient>
<linearGradient id="paint3_linear_1070_73857" x1="21.2921" y1="134.076" x2="55.746" y2="134.076" gradientUnits="userSpaceOnUse">
<stop stop-color="#DAE3FE"/>
<stop offset="1" stop-color="#E9EFFD"/>
</linearGradient>
<linearGradient id="paint4_linear_1070_73857" x1="21.7155" y1="79.7351" x2="54.844" y2="79.7351" gradientUnits="userSpaceOnUse">
<stop stop-color="#DAE3FE"/>
<stop offset="1" stop-color="#E9EFFD"/>
</linearGradient>
<linearGradient id="paint5_linear_1070_73857" x1="20.8084" y1="110.093" x2="51.0762" y2="110.093" gradientUnits="userSpaceOnUse">
<stop stop-color="#DAE3FE"/>
<stop offset="1" stop-color="#E9EFFD"/>
</linearGradient>
<linearGradient id="paint6_linear_1070_73857" x1="113.388" y1="119.991" x2="144.653" y2="119.991" gradientUnits="userSpaceOnUse">
<stop stop-color="#FEBBBA"/>
<stop offset="1" stop-color="#FF928E"/>
</linearGradient>
<linearGradient id="paint7_linear_1070_73857" x1="115.881" y1="135.184" x2="53.9293" y2="78.9619" gradientUnits="userSpaceOnUse">
<stop stop-color="#FEBBBA"/>
<stop offset="1" stop-color="#FF928E"/>
</linearGradient>
<linearGradient id="paint8_linear_1070_73857" x1="118.654" y1="116.867" x2="111.417" y2="124.423" gradientUnits="userSpaceOnUse">
<stop stop-color="#FEBBBA"/>
<stop offset="1" stop-color="#FF928E"/>
</linearGradient>
<linearGradient id="paint9_linear_1070_73857" x1="119.606" y1="122.699" x2="70.5504" y2="147.092" gradientUnits="userSpaceOnUse">
<stop stop-color="#FEBBBA"/>
<stop offset="1" stop-color="#FF928E"/>
</linearGradient>
<linearGradient id="paint10_linear_1070_73857" x1="69.4475" y1="97.6486" x2="75.9694" y2="79.8457" gradientUnits="userSpaceOnUse">
<stop stop-color="#FEBBBA"/>
<stop offset="1" stop-color="#FF928E"/>
</linearGradient>
<linearGradient id="paint11_linear_1070_73857" x1="100.925" y1="120.691" x2="78.191" y2="137.4" gradientUnits="userSpaceOnUse">
<stop stop-color="#FEBBBA"/>
<stop offset="1" stop-color="#FF928E"/>
</linearGradient>
<linearGradient id="paint12_linear_1070_73857" x1="55.3438" y1="87.5599" x2="65.5282" y2="111.586" gradientUnits="userSpaceOnUse">
<stop stop-color="#09005D"/>
<stop offset="1" stop-color="#1A0F91"/>
</linearGradient>
<linearGradient id="paint13_linear_1070_73857" x1="65.6877" y1="83.15" x2="75.8805" y2="107.196" gradientUnits="userSpaceOnUse">
<stop stop-color="#09005D"/>
<stop offset="1" stop-color="#1A0F91"/>
</linearGradient>
<linearGradient id="paint14_linear_1070_73857" x1="83.9287" y1="72.3439" x2="64.8127" y2="86.965" gradientUnits="userSpaceOnUse">
<stop stop-color="#FEBBBA"/>
<stop offset="1" stop-color="#FF928E"/>
</linearGradient>
<linearGradient id="paint15_linear_1070_73857" x1="70.4759" y1="60.7622" x2="88.283" y2="83.68" gradientUnits="userSpaceOnUse">
<stop stop-color="#090056"/>
<stop offset="1" stop-color="#020039"/>
</linearGradient>
<linearGradient id="paint16_linear_1070_73857" x1="81.5589" y1="69.2453" x2="62.4429" y2="83.8664" gradientUnits="userSpaceOnUse">
<stop stop-color="#FEBBBA"/>
<stop offset="1" stop-color="#FF928E"/>
</linearGradient>
<linearGradient id="paint17_linear_1070_73857" x1="112.822" y1="127.9" x2="120.527" y2="127.9" gradientUnits="userSpaceOnUse">
<stop stop-color="#FEBBBA"/>
<stop offset="1" stop-color="#FF928E"/>
</linearGradient>
<linearGradient id="paint18_linear_1070_73857" x1="183.342" y1="88.7086" x2="178.325" y2="73.6636" gradientUnits="userSpaceOnUse">
<stop stop-color="#FEBBBA"/>
<stop offset="1" stop-color="#FF928E"/>
</linearGradient>
<linearGradient id="paint19_linear_1070_73857" x1="191.123" y1="110.91" x2="212.537" y2="122.306" gradientUnits="userSpaceOnUse">
<stop stop-color="#4F52FF"/>
<stop offset="1" stop-color="#4042E2"/>
</linearGradient>
<linearGradient id="paint20_linear_1070_73857" x1="213.783" y1="132.535" x2="197.479" y2="163.876" gradientUnits="userSpaceOnUse">
<stop stop-color="#FEBBBA"/>
<stop offset="1" stop-color="#FF928E"/>
</linearGradient>
<linearGradient id="paint21_linear_1070_73857" x1="179.399" y1="67.0955" x2="174.389" y2="96.5661" gradientUnits="userSpaceOnUse">
<stop stop-color="#FEBBBA"/>
<stop offset="1" stop-color="#FF928E"/>
</linearGradient>
<linearGradient id="paint22_linear_1070_73857" x1="184.662" y1="81.0452" x2="169.903" y2="65.3721" gradientUnits="userSpaceOnUse">
<stop stop-color="#090056"/>
<stop offset="1" stop-color="#020039"/>
</linearGradient>
<linearGradient id="paint23_linear_1070_73857" x1="183.741" y1="99.2641" x2="184.633" y2="78.5687" gradientUnits="userSpaceOnUse">
<stop stop-color="#FEBBBA"/>
<stop offset="1" stop-color="#FF928E"/>
</linearGradient>
</defs>
</svg>
