<svg width="14" height="24" viewBox="0 0 14 24" fill="none" xmlns="http://www.w3.org/2000/svg">
<path d="M14.0008 17.4C14.0008 19.1504 13.3054 20.8292 12.0677 22.0669C10.8299 23.3046 9.15121 24 7.40078 24C5.65035 24 3.97162 23.3046 2.73388 22.0669C1.49614 20.8292 0.800781 19.1504 0.800781 17.4L0.800781 4.8C0.800781 3.52696 1.30649 2.30606 2.20667 1.40589C3.10684 0.505713 4.32774 4.20586e-08 5.60078 5.72394e-08C6.87382 7.24203e-08 8.09472 0.505713 8.99489 1.40589C9.89507 2.30606 10.4008 3.52696 10.4008 4.8L10.4008 15C10.4008 15.7956 10.0847 16.5587 9.5221 17.1213C8.95949 17.6839 8.19643 18 7.40078 18C6.60513 18 5.84207 17.6839 5.27946 17.1213C4.71685 16.5587 4.40078 15.7956 4.40078 15L4.40078 6L6.20078 6L6.20078 15C6.20078 15.3183 6.32721 15.6235 6.55225 15.8485C6.7773 16.0736 7.08252 16.2 7.40078 16.2C7.71904 16.2 8.02427 16.0736 8.24931 15.8485C8.47435 15.6235 8.60078 15.3183 8.60078 15L8.60078 4.8C8.60078 4.40603 8.52318 4.01592 8.37242 3.65195C8.22166 3.28797 8.00068 2.95725 7.7221 2.67868C7.44353 2.4001 7.11281 2.17912 6.74883 2.02836C6.38486 1.8776 5.99475 1.8 5.60078 1.8C5.20682 1.8 4.81671 1.8776 4.45273 2.02836C4.08875 2.17912 3.75804 2.4001 3.47946 2.67868C3.20089 2.95725 2.97991 3.28797 2.82914 3.65195C2.67838 4.01592 2.60078 4.40603 2.60078 4.8L2.60078 17.4C2.60078 18.673 3.10649 19.8939 4.00667 20.7941C4.90684 21.6943 6.12774 22.2 7.40078 22.2C8.67382 22.2 9.89472 21.6943 10.7949 20.7941C11.6951 19.8939 12.2008 18.673 12.2008 17.4L12.2008 6L14.0008 6L14.0008 17.4Z" fill="#313896"/>
</svg>
