<svg width="192" height="44" viewBox="0 0 192 44" fill="none" xmlns="http://www.w3.org/2000/svg">
<path fill-rule="evenodd" clip-rule="evenodd" d="M105.866 34.2289H104.142C103.851 34.2289 103.764 34.251 103.506 34.5375L100.866 37.5128V34.6036C100.866 34.306 100.726 34.2289 100.51 34.2289H99.2492C99.0013 34.2289 98.8828 34.306 98.8828 34.6036V42.4278C98.8828 42.7253 99.0121 42.8025 99.2492 42.8025H100.51C100.726 42.8025 100.866 42.7253 100.866 42.4278V40.1026L101.652 39.254C102.342 40.4221 103.473 42.3837 103.473 42.3837C103.635 42.6592 103.808 42.8025 104.109 42.8025H105.661C105.898 42.8025 105.952 42.549 105.855 42.3837L103.118 37.7663L105.984 34.5815C106.103 34.4713 106.103 34.2289 105.866 34.2289ZM110.866 41.0172H110.058V36.0362H110.823C111.114 36.0362 111.189 35.8929 111.189 35.6615V34.6036C111.189 34.3722 111.114 34.2289 110.823 34.2289H107.277C106.987 34.2289 106.911 34.3722 106.911 34.6036V35.6615C106.911 35.8929 106.987 36.0362 107.277 36.0362H108.053V41.0172H107.245C106.954 41.0172 106.879 41.1605 106.879 41.3919V42.4168C106.879 42.6482 106.954 42.7914 107.245 42.7914H110.855C111.146 42.7914 111.222 42.6482 111.222 42.4168V41.3919C111.232 41.1605 111.157 41.0172 110.866 41.0172ZM118.549 34.2289H112.633C112.342 34.2289 112.267 34.3722 112.267 34.6036V35.6835C112.267 35.9149 112.342 36.0582 112.633 36.0582H114.595V42.4168C114.595 42.7143 114.735 42.7914 114.961 42.7914H116.222C116.448 42.7914 116.588 42.7143 116.588 42.4168V36.0582H118.539C118.83 36.0582 118.905 35.9149 118.905 35.6835V34.6036C118.916 34.3722 118.84 34.2289 118.549 34.2289ZM126.653 40.2568C126.653 39.9483 126.556 39.816 126.276 39.816H125.026C124.746 39.816 124.724 40.0254 124.681 40.2899C124.584 40.918 124.035 41.1715 123.345 41.1715C122.504 41.1715 121.933 40.6976 121.933 39.8711V37.1602C121.933 36.3337 122.504 35.8599 123.345 35.8599C124.035 35.8599 124.39 36.0582 124.66 36.488C124.757 36.6423 124.778 36.8957 125.037 36.8957H126.265C126.556 36.8957 126.664 36.8296 126.664 36.5211C126.502 34.8681 124.929 34.0416 123.345 34.0416C121.825 34.0416 119.929 34.9452 119.929 36.9839V40.0585C119.929 42.1082 121.825 43.0008 123.345 43.0008C124.918 43.0008 126.653 41.9429 126.653 40.2568ZM134.725 34.2289H133.464C133.237 34.2289 133.097 34.306 133.097 34.6036V37.5459H130.252V34.6036C130.252 34.306 130.123 34.2289 129.886 34.2289H128.625C128.399 34.2289 128.259 34.306 128.259 34.6036V42.4278C128.259 42.7253 128.399 42.8025 128.625 42.8025H129.886C130.123 42.8025 130.252 42.7253 130.252 42.4278V39.4854H133.097V42.4278C133.097 42.7253 133.237 42.8025 133.464 42.8025H134.725C134.951 42.8025 135.091 42.7253 135.091 42.4278V34.6036C135.091 34.306 134.951 34.2289 134.725 34.2289ZM143.065 40.9731H139.003V39.254H142.419C142.71 39.254 142.785 39.1108 142.785 38.8794V37.8655C142.785 37.6341 142.71 37.4908 142.419 37.4908H139.003V36.0692H142.85C143.141 36.0692 143.216 35.926 143.216 35.6946V34.6146C143.216 34.3832 143.141 34.2399 142.85 34.2399H137.354C137.063 34.2399 136.988 34.3832 136.988 34.6146V42.4388C136.988 42.6702 137.063 42.8135 137.354 42.8135H143.065C143.356 42.8135 143.432 42.6702 143.432 42.4388V41.3698C143.432 41.1164 143.356 40.9731 143.065 40.9731ZM151.417 34.2289H150.188C149.962 34.2289 149.822 34.306 149.822 34.6036V39.1218L147.117 34.6587C146.956 34.3942 146.859 34.2179 146.546 34.2179H145.35C145.059 34.2179 144.983 34.3611 144.983 34.5926V42.4168C144.983 42.7143 145.124 42.7914 145.35 42.7914H146.611C146.837 42.7914 146.977 42.7143 146.977 42.4168V37.8765L149.682 42.3506C149.844 42.6151 149.941 42.7914 150.253 42.7914H151.417C151.708 42.7914 151.783 42.6482 151.783 42.4168V34.5926C151.783 34.306 151.643 34.2289 151.417 34.2289ZM161.072 37.8214C160.566 37.612 158.691 37.3255 158.691 36.5321C158.691 35.948 159.391 35.7717 159.812 35.7717C160.189 35.7717 160.652 35.8929 160.9 36.1244C161.051 36.2786 161.116 36.3888 161.169 36.51C161.234 36.6753 161.266 36.8627 161.514 36.8627H162.764C163.055 36.8627 163.131 36.8076 163.131 36.499C163.131 34.7799 161.363 34.0195 159.736 34.0195C158.141 34.0857 156.643 34.9232 156.643 36.6092C156.643 38.2622 157.829 38.7912 159.111 39.1989C160.2 39.5515 161.331 39.5626 161.331 40.2899C161.331 41.0172 160.771 41.1715 160.081 41.1715C159.607 41.1715 159.09 41.0503 158.831 40.7417C158.669 40.5434 158.605 40.378 158.594 40.2017C158.572 39.8711 158.432 39.8381 158.13 39.8381H156.891C156.6 39.8381 156.525 39.9042 156.525 40.2017C156.525 42.031 158.357 42.9678 159.952 42.9678C161.913 42.9678 163.346 42.0861 163.346 40.2348C163.346 38.4936 161.988 38.1079 161.072 37.8214ZM168.476 41.0172H167.667V36.0362H168.433C168.724 36.0362 168.799 35.8929 168.799 35.6615V34.6036C168.799 34.3722 168.724 34.2289 168.433 34.2289H164.887C164.596 34.2289 164.521 34.3722 164.521 34.6036V35.6615C164.521 35.8929 164.596 36.0362 164.887 36.0362H165.663V41.0172H164.855C164.564 41.0172 164.488 41.1605 164.488 41.3919V42.4168C164.488 42.6482 164.564 42.7914 164.855 42.7914H168.465C168.756 42.7914 168.831 42.6482 168.831 42.4168V41.3919C168.853 41.1605 168.777 41.0172 168.476 41.0172ZM176.935 34.2289H175.707C175.48 34.2289 175.34 34.306 175.34 34.6036V39.1218L172.635 34.6587C172.474 34.3942 172.377 34.2179 172.064 34.2179H170.868C170.577 34.2179 170.502 34.3611 170.502 34.5926V42.4168C170.502 42.7143 170.642 42.7914 170.868 42.7914H172.129C172.355 42.7914 172.495 42.7143 172.495 42.4168V37.8765L175.2 42.3506C175.362 42.6151 175.459 42.7914 175.771 42.7914H176.935C177.226 42.7914 177.301 42.6482 177.301 42.4168V34.5926C177.301 34.306 177.161 34.2289 176.935 34.2289ZM186.17 34.2289H184.446C184.155 34.2289 184.069 34.251 183.81 34.5375L181.17 37.5128V34.6036C181.17 34.306 181.03 34.2289 180.814 34.2289H179.554C179.317 34.2289 179.187 34.306 179.187 34.6036V42.4278C179.187 42.7253 179.317 42.8025 179.554 42.8025H180.814C181.03 42.8025 181.17 42.7253 181.17 42.4278V40.1026L181.957 39.254C182.646 40.4221 183.778 42.3837 183.778 42.3837C183.94 42.6592 184.112 42.8025 184.414 42.8025H185.965C186.203 42.8025 186.256 42.549 186.159 42.3837L183.422 37.7663L186.289 34.5815C186.418 34.4713 186.418 34.2289 186.17 34.2289Z" fill="#00B6BE" stroke="white" stroke-width="0.606" stroke-miterlimit="22.9256"/>
<path fill-rule="evenodd" clip-rule="evenodd" d="M47.9003 6.92057H40.5725C40.3462 6.92057 40.2169 6.95362 40.163 7.01974C40.1091 7.08586 40.0876 7.22911 40.0876 7.41645V27.4067C40.0876 27.6381 40.1199 27.7704 40.1845 27.8255C40.2492 27.8806 40.3893 27.9026 40.5725 27.9026H43.7946C43.9778 27.9026 44.1179 27.8806 44.1825 27.8255C44.2472 27.7704 44.2795 27.6381 44.2795 27.4067V21.4008H47.868C50.4866 21.4008 52.491 20.7066 53.8596 19.4833C55.2605 18.2271 55.9825 16.3977 55.9825 14.1717C55.9825 11.9567 55.2605 10.1053 53.8703 8.83804C52.5125 7.61482 50.5082 6.92057 47.9003 6.92057ZM10.0111 24.0236C7.39249 10.4029 13.869 9.2568 9.9249 4.26475C21.6387 0.0330715 28.2876 7.42748 26.0677 16.3537C24.9362 12.122 15.3777 16.3537 10.0111 24.0236ZM15.9596 0C7.14464 0 0 7.31726 0 16.3316C0 19.8139 1.06685 23.0318 2.87725 25.6876C4.03031 26.5802 6.77825 27.032 7.65112 27.0651C7.26318 26.4259 6.92911 26.0623 7.07998 25.4341C16.9833 24.2109 15.9596 18.7671 24.0956 16.3537C24.5267 17.1912 25.3888 19.4172 23.9124 22.635C26.1647 22.2824 28.2984 23.8252 29.473 25.0484C31.0355 22.5249 31.93 19.5384 31.93 16.3316C31.9192 7.31726 24.7745 0 15.9596 0ZM28.8156 26.0072C22.2637 18.3593 14.8389 30.8229 4.55834 27.7594C5.86227 29.1259 7.40327 30.2499 9.10591 31.0874C17.0588 31.396 21.6602 20.8278 28.1259 26.8998C28.363 26.6133 28.6001 26.3157 28.8156 26.0072ZM27.307 27.8145C22.4577 22.6791 17.8993 31.969 12.1125 32.1894C13.341 32.498 14.6341 32.6632 15.9596 32.6632C16.3475 32.6632 16.7247 32.6522 17.1019 32.6192C19.7205 30.6796 23.115 26.0402 26.3586 28.7181C26.6819 28.4316 27.0052 28.134 27.307 27.8145ZM25.281 29.5887C23.5999 30.8339 21.671 31.7486 19.5804 32.2445C21.0029 31.0102 22.921 28.1781 25.281 29.5887ZM47.868 17.8414H44.2795V10.6674H47.868C49.1827 10.6674 50.1633 11.02 50.8315 11.6041C51.6073 12.2763 51.9737 13.224 51.9737 14.2709C51.9737 15.2957 51.6073 16.2435 50.8207 16.9157C50.1418 17.4887 49.1719 17.8414 47.868 17.8414ZM74.9594 21.3347V13.4664C74.9594 11.2735 74.0542 9.64251 72.7395 8.50745C71.0584 7.06383 68.72 6.40263 66.6617 6.40263C64.6143 6.40263 62.2866 7.06382 60.627 8.49642C59.3123 9.63148 58.4179 11.2624 58.4179 13.4664V21.3347C58.4179 23.5277 59.3123 25.1697 60.627 26.3047C62.2866 27.7373 64.6035 28.3985 66.6617 28.3985C68.72 28.3985 71.0584 27.7373 72.7395 26.2937C74.0542 25.1586 74.9594 23.5277 74.9594 21.3347ZM70.7567 13.9403V20.8719C70.7567 22.062 70.3364 23.0097 69.6252 23.6709C68.8924 24.3432 67.8579 24.7068 66.651 24.7068C65.4548 24.7068 64.4311 24.3432 63.6983 23.6709C62.987 23.0097 62.5668 22.062 62.5668 20.8719V13.9403C62.5668 12.7501 62.987 11.8024 63.6983 11.1412C64.4203 10.469 65.4548 10.1053 66.651 10.1053C67.8579 10.1053 68.8924 10.469 69.6252 11.1412C70.3472 11.8024 70.7567 12.7501 70.7567 13.9403ZM92.5786 24.1779H82.7399V7.41645C82.7399 7.18503 82.7075 7.05278 82.6429 6.99768C82.5782 6.94258 82.4381 6.92057 82.2549 6.92057H79.0328C78.8496 6.92057 78.7096 6.94258 78.6449 6.99768C78.5802 7.05278 78.5479 7.18503 78.5479 7.41645V27.4067C78.5479 27.5941 78.5695 27.7373 78.6233 27.8034C78.6772 27.8695 78.8065 27.9026 79.0328 27.9026H92.5893C92.8156 27.9026 92.9449 27.8695 92.9988 27.8034C93.0527 27.7373 93.0743 27.5941 93.0743 27.4067V24.6738C93.0743 24.4864 93.0527 24.3432 92.9988 24.2771C92.9342 24.2109 92.8049 24.1779 92.5786 24.1779ZM107.945 6.92057C107.999 6.92057 108.032 6.93158 108.053 6.9426L108.064 6.95363C108.075 6.97567 108.075 6.99768 108.075 7.03074C108.075 7.08584 108.064 7.14096 108.042 7.18504L101.286 20.0343V27.4177C101.286 27.6491 101.253 27.7814 101.189 27.8365C101.124 27.8916 100.984 27.9136 100.801 27.9136H97.5464C97.3416 27.9136 97.2123 27.8916 97.1477 27.8365C97.0938 27.7814 97.0615 27.6491 97.0615 27.4177V20.0343L90.0461 7.19607C90.0246 7.15199 90.0138 7.09687 90.0138 7.04177C90.0138 7.00871 90.0138 6.97564 90.0246 6.96462L90.0354 6.95363C90.0569 6.94261 90.1 6.93157 90.1431 6.93157H93.8932C94.195 6.93157 94.3997 6.94258 94.5398 7.03074C94.6907 7.1189 94.8308 7.31729 95.014 7.68095C96.4795 10.1494 97.8697 13.0477 99.2383 15.6264C100.596 12.9926 102.029 10.3368 103.322 7.66992C103.495 7.30626 103.624 7.1189 103.764 7.03074C103.904 6.9536 104.109 6.93157 104.4 6.93157H107.945V6.92057ZM125.392 16.6071H118.258C118.032 16.6071 117.903 16.6402 117.849 16.7063C117.795 16.7724 117.773 16.9157 117.773 17.103V19.7037C117.773 19.8911 117.795 20.0343 117.849 20.1005C117.903 20.1666 118.032 20.1996 118.258 20.1996H121.653V20.6735C121.653 22.029 121.265 23.0097 120.597 23.6709C119.864 24.3983 118.808 24.7178 117.579 24.7178C116.372 24.7178 115.359 24.3542 114.648 23.682C113.937 23.0208 113.538 22.073 113.538 20.8829V14.1827C113.538 12.9816 113.948 11.9677 114.67 11.2404C115.381 10.5241 116.383 10.1164 117.579 10.1164C118.657 10.1164 119.519 10.3478 120.176 10.7114C120.995 11.1522 121.502 11.8024 121.728 12.4636C121.771 12.5959 121.804 12.7281 121.825 12.8603C121.868 13.0697 121.911 13.2791 122.246 13.2791H125.403C125.662 13.2791 125.812 13.2681 125.845 13.235C125.877 13.2019 125.888 13.0697 125.888 12.8162C125.888 10.9318 124.972 9.44412 123.614 8.37518C121.976 7.08584 119.692 6.42466 117.579 6.42466C115.532 6.42466 113.183 7.07483 111.502 8.51845C110.187 9.64249 109.282 11.2735 109.282 13.4554V21.6543C109.282 23.8032 110.165 25.357 111.469 26.4259C113.15 27.8144 115.532 28.4095 117.59 28.4095C119.551 28.4095 121.814 27.7924 123.496 26.47C124.821 25.4231 125.769 23.9354 125.899 21.9518V17.1251C125.899 16.9377 125.877 16.7945 125.823 16.7284C125.748 16.6512 125.629 16.6071 125.392 16.6071ZM146.179 27.55L141.255 20.2217L141.826 20.0233C142.86 19.6707 144.035 18.8111 144.886 17.5659C145.576 16.5631 146.039 15.2957 146.039 13.8301C146.039 12.8163 145.878 11.8685 145.576 11.02C145.274 10.1935 144.843 9.47718 144.294 8.92618H144.283C143.647 8.276 142.957 7.78011 142.031 7.44951C141.072 7.10789 139.843 6.93157 138.119 6.93157H129.907C129.681 6.93157 129.573 6.96464 129.519 7.01974C129.466 7.08586 129.455 7.22912 129.455 7.42748V27.3847C129.455 27.6271 129.487 27.7594 129.541 27.8145C129.595 27.8696 129.724 27.8806 129.907 27.8806H133.129C133.313 27.8806 133.453 27.8585 133.517 27.8034C133.582 27.7483 133.614 27.6161 133.614 27.3847V10.6563H138.41C139.39 10.6563 140.263 10.9869 140.888 11.582C141.503 12.155 141.869 12.9705 141.869 13.9623C141.869 14.866 141.449 15.6484 140.813 16.2104C140.156 16.7835 139.25 17.1251 138.324 17.1251H137.666C137.44 17.1251 137.311 17.1581 137.257 17.2242C137.203 17.2904 137.181 17.4336 137.181 17.621V20.2878C137.181 20.7286 137.192 21.0262 137.235 21.2466C137.268 21.4339 137.332 21.5661 137.44 21.7094L140.975 27.0982C141.169 27.3957 141.341 27.6051 141.535 27.7263C141.707 27.8365 141.923 27.8916 142.225 27.8916H146.072C146.136 27.8916 146.179 27.8806 146.201 27.8695L146.223 27.8365C146.233 27.8144 146.233 27.7924 146.233 27.7594C146.244 27.7043 146.223 27.6271 146.179 27.55ZM167.204 27.594L160.005 7.64789C159.887 7.37239 159.779 7.174 159.639 7.0638C159.52 6.96462 159.348 6.90954 159.1 6.90954H155.975C155.727 6.90954 155.544 6.96462 155.425 7.0638C155.285 7.174 155.178 7.37238 155.07 7.63686L147.828 27.6051C147.796 27.6822 147.774 27.7593 147.774 27.8365V27.8695C147.817 27.8806 147.871 27.8916 147.958 27.8916H151.374C151.632 27.8916 151.794 27.8696 151.88 27.7924C151.988 27.7043 152.074 27.5279 152.171 27.2194C152.29 26.5692 152.925 25.0264 153.195 24.266H161.827C162.085 25.0264 162.732 26.5692 162.85 27.2194C162.947 27.5279 163.034 27.7153 163.141 27.7924C163.238 27.8696 163.4 27.8916 163.648 27.8916H167.064C167.15 27.8916 167.204 27.8806 167.236 27.8695V27.8365C167.236 27.7704 167.215 27.6822 167.182 27.6051L167.204 27.594ZM159.973 20.5413H154.445L157.527 11.2514L160.609 20.5413H159.973ZM185.48 6.92057H182.355C182.172 6.92057 182.032 6.94258 181.967 6.99768C181.903 7.05278 181.87 7.18503 181.87 7.41645V20.6294L174.122 7.83521L174.036 7.69195C173.745 7.22911 173.551 6.92057 173.045 6.92057H169.984C169.758 6.92057 169.629 6.95362 169.575 7.01974C169.521 7.08586 169.499 7.22911 169.499 7.41645V27.4067C169.499 27.6381 169.532 27.7704 169.596 27.8255C169.661 27.8806 169.801 27.9026 169.984 27.9026H173.206C173.389 27.9026 173.53 27.8806 173.594 27.8255C173.659 27.7704 173.691 27.6381 173.691 27.4067V14.1607L181.439 26.988L181.536 27.1312C181.827 27.5941 182.021 27.9026 182.528 27.9026H185.491C185.717 27.9026 185.847 27.8695 185.901 27.8034C185.955 27.7373 185.976 27.5941 185.976 27.4067V7.41645C185.976 7.18503 185.944 7.05278 185.879 6.99768C185.804 6.93156 185.664 6.92057 185.48 6.92057Z" fill="#005BAA"/>
<path fill-rule="evenodd" clip-rule="evenodd" d="M190.006 7.03125C190.34 7.03125 190.664 7.11943 190.987 7.29575C191.31 7.47207 191.558 7.72552 191.73 8.0451C191.903 8.3757 192 8.71732 192 9.06995C192 9.42259 191.914 9.76423 191.741 10.0838C191.569 10.4034 191.321 10.6568 191.008 10.8332C190.696 11.0095 190.362 11.0976 190.017 11.0976C189.672 11.0976 189.338 11.0095 189.026 10.8332C188.713 10.6568 188.465 10.4034 188.293 10.0838C188.12 9.76423 188.023 9.42259 188.023 9.06995C188.023 8.71732 188.11 8.3757 188.293 8.0451C188.476 7.7145 188.724 7.47207 189.036 7.29575C189.349 7.11943 189.672 7.03125 190.006 7.03125ZM190.006 7.3729C189.726 7.3729 189.457 7.45002 189.187 7.59328C188.918 7.73654 188.713 7.94593 188.562 8.22143C188.411 8.49693 188.336 8.78343 188.336 9.06995C188.336 9.36749 188.411 9.64302 188.551 9.91852C188.702 10.183 188.907 10.3923 189.166 10.5466C189.424 10.7009 189.705 10.767 189.995 10.767C190.286 10.767 190.556 10.6899 190.825 10.5466C191.095 10.3923 191.299 10.183 191.439 9.91852C191.59 9.65404 191.655 9.36749 191.655 9.06995C191.655 8.77242 191.58 8.48591 191.429 8.22143C191.278 7.94593 191.073 7.73654 190.804 7.59328C190.556 7.45002 190.286 7.3729 190.006 7.3729ZM189.133 10.194H189.478V9.26831H189.683C189.802 9.26831 189.899 9.29035 189.963 9.34545C190.06 9.41157 190.179 9.58792 190.33 9.8524L190.524 10.194H190.944L190.685 9.76422C190.556 9.56586 190.459 9.4116 190.373 9.33446C190.33 9.29038 190.265 9.24628 190.189 9.21322C190.373 9.2022 190.524 9.13609 190.631 9.01487C190.739 8.89365 190.804 8.7614 190.804 8.5961C190.804 8.4859 190.771 8.37569 190.707 8.27651C190.642 8.17733 190.545 8.10019 190.437 8.06713C190.33 8.02305 190.146 8.01205 189.888 8.01205H189.155V10.194H189.133ZM189.478 8.97078H189.899C190.103 8.97078 190.233 8.93773 190.308 8.88263C190.383 8.81651 190.416 8.73937 190.416 8.64019C190.416 8.57407 190.394 8.51897 190.362 8.46387C190.33 8.40877 190.276 8.3757 190.211 8.35366C190.146 8.33162 190.028 8.3206 189.866 8.3206H189.467V8.97078H189.478Z" fill="#0057A8"/>
</svg>
