<svg width="172" height="64" viewBox="0 0 172 64" fill="none" xmlns="http://www.w3.org/2000/svg">
<g clip-path="url(#clip0_1874_61710)">
<path d="M172 0H0V64H172V0Z" fill="#009EE3"/>
<path d="M168.25 3.68359H3.75V60.3128H168.25V3.68359Z" fill="white"/>
<path d="M158.471 26.6902V37.3121C158.471 39.8042 157.577 41.5152 155.787 42.4453C154.102 43.2958 151.056 43.7211 146.653 43.7211C142.25 43.7211 139.222 43.2958 137.572 42.4453C135.784 41.5152 134.888 39.8042 134.888 37.3121V26.6902C134.888 24.1982 135.782 22.4871 137.572 21.5571C139.222 20.7065 142.25 20.2812 146.653 20.2812C151.056 20.2812 154.1 20.7065 155.787 21.5571C157.577 22.4871 158.471 24.1982 158.471 26.6902ZM149.133 25.5038C149.133 24.4565 148.308 23.9319 146.655 23.9319C145.039 23.9319 144.23 24.4565 144.23 25.5038V38.4985C144.23 39.5458 145.039 40.0705 146.655 40.0705C148.306 40.0705 149.133 39.5458 149.133 38.4985V25.5038ZM131.898 43.423H122.809L117.192 31.8531V43.423H107.904V20.5793H117.192V30.9628L123.066 20.5793H131.898L125.707 30.6667L131.898 43.423ZM89.1749 30.9926C91.1004 30.9926 92.3828 30.786 93.0199 30.3686C93.657 29.9533 93.9745 29.1822 93.9745 28.0554V26.4537C93.9745 25.3865 93.6489 24.6831 92.9936 24.3472C92.3403 24.0114 91.0681 23.8424 89.1749 23.8424V30.9926ZM79.9377 43.423V20.5793H90.7222C93.75 20.5793 96.072 20.7383 97.688 21.0543C100.2 21.5094 101.832 22.3798 102.591 23.6656C102.969 24.2975 103.175 25.1004 103.21 26.0682C103.21 25.8317 103.21 26.6425 103.21 28.5006C103.21 31.3682 101.422 33.1091 97.8438 33.7231L104.603 43.425H95.3155L89.8464 34.2279H89.1749V43.425H79.9377V43.423ZM68.328 43.423L67.347 37.8149H61.981L60.7432 43.423H52.9521L59.4022 20.5774H71.4771L77.462 43.423H68.328ZM64.9219 23.9319L62.7031 34.3452H66.7786L65.025 23.9319H64.9219ZM37.3174 20.5793H50.6302V43.423H42.3234V25.1183L36.8017 43.423H28.7011L23.1794 24.6731V43.423H15.8516V20.5793H29.4212L33.343 36.6007L37.3174 20.5793Z" fill="#009EE3"/>
</g>
<defs>
<clipPath id="clip0_1874_61710">
<rect width="172" height="64" fill="white"/>
</clipPath>
</defs>
</svg>
