<svg width="190" height="79" viewBox="0 0 190 79" fill="none" xmlns="http://www.w3.org/2000/svg">
<g clip-path="url(#clip0_1874_58267)">
<path d="M195.391 80H5.39062V1H195.391V80Z" fill="#D72027"/>
<path d="M17.4754 13.5396C20.6068 13.5396 23.7378 13.5396 26.8684 13.5396C29.1031 13.6068 31.422 14.0219 33.2924 15.2942C35.0001 16.4132 36.0872 18.2863 36.5028 20.2367C36.8636 21.97 36.8021 23.841 36.0394 25.4646C35.4132 26.7882 34.3697 27.8783 33.0636 28.5731C34.9238 28.8596 36.6906 29.7827 37.8882 31.224C38.9458 32.4806 39.482 34.0931 39.622 35.6999C39.8258 37.826 39.3624 40.055 38.1125 41.8241C36.9661 43.4377 35.2107 44.5712 33.3209 45.171C31.7203 45.6846 30.0195 45.8424 28.3438 45.8166H17.4766C17.4766 35.0565 17.4766 24.296 17.4766 13.5352L17.4754 13.5396ZM23.9074 18.6869C23.9074 21.4389 23.9074 24.1901 23.9074 26.9405C25.3202 26.9215 26.7876 27.0524 28.1366 26.5444C29.1225 26.202 29.9865 25.4702 30.361 24.4978C30.7765 23.4211 30.7902 22.2344 30.3998 21.1487C30.0355 20.1662 29.1657 19.4288 28.1799 19.0763C26.8138 18.5504 25.3338 18.7104 23.9063 18.6869H23.9074ZM23.9074 31.8059C23.9074 34.7633 23.9017 37.7208 23.9074 40.6771C25.5319 40.6413 27.1678 40.7678 28.7821 40.5361C30.0343 40.3448 31.3253 39.8648 32.1256 38.8577C33.4006 37.2307 33.3915 34.6056 31.8045 33.18C30.6661 32.1516 29.0542 31.8652 27.556 31.8092C26.3379 31.7992 25.121 31.8092 23.904 31.8092L23.9074 31.8059ZM49.0662 25.6145C51.1927 24.4172 53.712 24.0211 56.1357 24.2136C57.7343 24.3241 59.2965 24.7355 60.7371 25.4254C60.7371 27.3781 60.7303 29.3307 60.744 31.2844C59.6368 30.2591 58.2161 29.6218 56.7026 29.4717C54.9882 29.2814 53.1258 29.6272 51.7995 30.7719C49.3622 32.8409 49.1391 36.8816 51.2565 39.2448C52.3539 40.4914 54.016 41.1852 55.6781 41.2433C57.5337 41.3429 59.3779 40.6223 60.7383 39.3959C60.7383 41.3288 60.7383 43.2612 60.7383 45.1933C56.8677 47.1739 51.9338 46.8796 48.3114 44.5052C46.042 42.9967 44.4495 40.6882 43.8637 38.0576C43.3116 35.5905 43.538 33.0165 44.5126 30.6791C45.4188 28.5423 47.0202 26.7612 49.0662 25.6145ZM70.7312 24.9756C72.6665 24.2192 74.7976 24.0592 76.8581 24.2337C78.9619 24.4139 81.0577 25.1345 82.664 26.503C84.1564 27.7507 85.2083 29.4627 85.7468 31.3057C86.2386 32.9349 86.3627 34.6481 86.316 36.3411C81.0034 36.3411 75.6909 36.3411 70.3783 36.3411C70.4113 37.7835 70.7961 39.3187 71.8685 40.3694C72.8532 41.3765 74.3047 41.8565 75.7095 41.8319C77.1757 41.8543 78.6579 41.3183 79.7041 40.2967C80.0695 39.927 80.391 39.5178 80.6627 39.077C82.5069 39.3724 84.3534 39.6577 86.1987 39.9543C85.4519 41.7838 84.2008 43.4231 82.5558 44.5656C80.9108 45.7081 78.9403 46.309 76.9526 46.4623C74.8545 46.6033 72.6915 46.4388 70.7323 45.6409C68.6485 44.7717 66.8907 43.2879 65.7017 41.3944C64.4586 39.4004 64.0601 37.0058 64.1683 34.7007C64.2468 32.7984 64.7375 30.8961 65.7245 29.2512C66.8623 27.3184 68.6228 25.8133 70.7278 24.9734L70.7312 24.9756ZM72.4798 29.3889C71.4552 30.1464 70.8132 31.3068 70.5809 32.5321C73.9354 32.5321 77.2899 32.5321 80.6444 32.5321C80.3803 30.9084 79.2784 29.4303 77.7165 28.7969C76.0293 28.055 73.9461 28.2744 72.4798 29.39V29.3889ZM164.674 31.0774C167.221 30.6643 169.836 31.0718 172.128 32.2389C175.374 33.8805 177.758 37.064 178.358 40.6066C178.657 42.2706 178.586 43.9784 178.15 45.6128C177.714 47.2472 176.923 48.7694 175.832 50.0749C174.74 51.3804 173.374 52.4382 171.828 53.1757C170.281 53.9133 168.59 54.313 166.872 54.3475C165.153 54.382 163.447 54.0504 161.871 53.3755C160.295 52.7006 158.887 51.6985 157.742 50.4378C156.597 49.1772 155.744 47.688 155.24 46.0725C154.737 44.4569 154.595 42.7534 154.824 41.0789C155.279 37.4422 157.619 34.1121 160.891 32.3642C162.07 31.7299 163.35 31.2959 164.676 31.0808L164.674 31.0774ZM162.338 39.1766C162.338 38.9013 162.338 38.6272 162.338 38.3519C161.702 38.3519 161.066 38.3519 160.432 38.3519C160.432 41.717 160.432 45.0826 160.432 48.4485C161.066 48.4485 161.704 48.4485 162.339 48.4485C162.339 47.0094 162.339 45.5704 162.339 44.1314C163.319 45.4742 165.443 45.4272 166.628 44.3843C168.084 43.1098 168.183 40.6738 166.957 39.2158C165.846 37.8819 163.418 37.7163 162.339 39.1744L162.338 39.1766ZM168.33 38.3541C169.387 40.2195 170.454 42.077 171.509 43.9423C170.698 45.4462 169.876 46.9434 169.06 48.444C169.777 48.4574 170.498 48.444 171.223 48.4518C173.028 45.0897 174.827 41.7238 176.619 38.3541C175.902 38.3452 175.185 38.3609 174.47 38.3452C173.83 39.5705 173.239 40.8192 172.619 42.0535C171.936 40.8226 171.242 39.5917 170.569 38.353C169.826 38.353 169.083 38.353 168.339 38.353L168.33 38.3541ZM157.259 42.7976C156.412 43.0091 156.131 44.1818 156.738 44.7771C157.355 45.4485 158.683 45.1262 158.818 44.1986C159.056 43.3336 158.115 42.4888 157.259 42.7976ZM163.407 39.905C164.26 39.6063 165.307 40.0315 165.659 40.8607C166.082 41.7681 165.659 43.0024 164.685 43.3593C163.763 43.7555 162.566 43.2474 162.273 42.2918C161.913 41.3687 162.415 40.1859 163.411 39.905H163.407ZM48.497 55.178C50.1846 54.6415 52.0169 54.7583 53.6198 55.5047C53.6198 56.5253 53.6198 57.5461 53.6198 58.5674C53.1337 58.1337 52.5417 57.831 51.9013 57.6888C51.261 57.5467 50.5941 57.5699 49.9655 57.7561C49.5706 57.8785 49.2077 58.084 48.9019 58.3585C48.5962 58.6329 48.355 58.9696 48.1953 59.3451C47.6102 60.6521 47.987 62.3663 49.2279 63.1787C50.5507 64.0974 52.4564 63.8501 53.6164 62.7804C53.6164 63.7874 53.6164 64.7945 53.6164 65.8106C50.9446 67.2014 47.1935 66.4417 45.561 63.8646C44.5786 62.3663 44.4443 60.4305 44.9657 58.7498C45.2244 57.9221 45.6795 57.1666 46.2934 56.5456C46.9074 55.9246 47.6626 55.4559 48.497 55.178ZM71.108 54.9867C72.7564 54.6152 74.6029 55.0034 75.8757 56.1213C77.0004 57.0937 77.6197 58.5394 77.7438 59.9896C77.9111 61.6614 77.4728 63.4394 76.3367 64.724C75.2199 66.0176 73.4235 66.6375 71.7228 66.473C71.1278 66.4197 70.5513 66.2425 70.0315 65.9531C69.5117 65.6637 69.0606 65.2687 68.7083 64.7945C68.7083 67.1903 68.7083 69.586 68.7083 71.9817C67.6552 71.9817 66.6033 71.9817 65.5515 71.9817C65.5515 66.3868 65.5515 60.7919 65.5515 55.197H68.7083C68.7083 55.6502 68.7083 56.1045 68.7083 56.5588C69.2969 55.7766 70.1462 55.2222 71.108 54.9923V54.9867ZM70.6401 57.7024C70.1512 57.8255 69.7024 58.0694 69.3364 58.4109C68.9704 58.7525 68.6993 59.1804 68.5489 59.6539C68.147 60.84 68.5022 62.2667 69.496 63.0691C69.9942 63.4613 70.6024 63.6947 71.2392 63.7379C71.876 63.7811 72.511 63.6321 73.0592 63.3107C74.8249 62.3037 75.0105 59.5443 73.4326 58.2888C73.0475 57.9798 72.593 57.7654 72.1068 57.6633C71.6207 57.5611 71.1167 57.5741 70.6367 57.7013L70.6401 57.7024ZM113.386 54.9464C114.903 54.7282 116.554 54.8479 117.877 55.6726C119.026 56.3742 119.799 57.5749 120.107 58.8539C120.284 59.6245 120.358 60.4143 120.328 61.2037H112.018C112.061 62.0139 112.286 62.8822 112.956 63.4182C114.27 64.5304 116.55 64.1175 117.371 62.608C118.338 62.7591 119.306 62.9057 120.274 63.0713C119.663 64.6009 118.321 65.8385 116.693 66.2514C115.175 66.6364 113.506 66.5871 112.058 65.9818C110.485 65.2802 109.245 63.84 108.917 62.1593C108.608 60.5592 108.763 58.8024 109.649 57.3969C110.053 56.7456 110.596 56.1889 111.242 55.7656C111.887 55.3423 112.619 55.0627 113.386 54.9464ZM113.466 57.3623C112.741 57.7226 112.269 58.4477 112.123 59.2209C113.868 59.2209 115.614 59.2321 117.359 59.213C117.245 58.6916 117.018 58.1769 116.621 57.7987C115.81 57.0064 114.466 56.8084 113.466 57.3623ZM92.7696 66.1317C93.4375 62.3913 94.1125 58.6517 94.7948 54.9128C95.5735 54.9128 96.3533 54.9128 97.1331 54.9128C98.1433 57.0844 99.1523 59.2571 100.16 61.4309C101.203 59.2679 102.173 57.0668 103.21 54.9072C103.987 54.9206 104.765 54.9072 105.543 54.9139C106.211 58.6524 106.894 62.3887 107.563 66.1272C106.509 66.1351 105.455 66.1272 104.402 66.1272C104.094 64.1813 103.821 62.2287 103.475 60.2895C102.535 62.326 101.582 64.3536 100.636 66.3835C100.323 66.3835 100.011 66.3835 99.698 66.3835C98.7424 64.3425 97.7885 62.3011 96.836 60.2593C96.5446 62.2175 96.2224 64.1757 95.9253 66.1306L92.7696 66.1317ZM17.2773 55.1937C18.3315 55.1937 19.3845 55.187 20.4387 55.1993C20.4319 57.4372 20.4387 59.6685 20.4387 61.9031C22.1463 59.6729 23.8425 57.4272 25.549 55.1959C26.5963 55.1959 27.6425 55.1959 28.6899 55.1959C28.6899 58.8415 28.6899 62.4876 28.6899 66.1339C27.6372 66.1339 26.5842 66.1339 25.5308 66.1339C25.5308 63.9195 25.5308 61.705 25.5308 59.4894C23.8311 61.6994 22.1463 63.9195 20.4558 66.1351H17.2773C17.2773 62.4879 17.2773 58.8419 17.2773 55.197V55.1937ZM31.6497 55.1937H34.8077C34.8134 56.4816 34.7974 57.7673 34.8156 59.0586C36.2546 59.0486 37.6947 59.0586 39.1336 59.0586C39.1336 57.7718 39.1336 56.485 39.1336 55.1981H42.2904C42.2904 58.8438 42.2904 62.4898 42.2904 66.1362H39.1347C39.1279 64.6614 39.145 63.1854 39.1256 61.7117C37.6867 61.7229 36.2477 61.7117 34.8077 61.7117V66.1295C33.755 66.1295 32.702 66.1295 31.6486 66.1295C31.6486 62.4823 31.6486 58.8363 31.6486 55.1914L31.6497 55.1937ZM54.6171 55.1937C57.7215 55.2015 60.8271 55.1769 63.9304 55.206C63.9122 56.0877 63.9304 56.9695 63.9213 57.8512C62.8967 57.8512 61.8721 57.8512 60.8476 57.8512C60.8476 60.6114 60.8476 63.3716 60.8476 66.1317H57.6908C57.6908 63.3716 57.6908 60.6114 57.6908 57.8512C56.6662 57.8512 55.6416 57.8512 54.6171 57.8512C54.6171 56.965 54.6171 56.0788 54.6171 55.1937ZM78.7069 55.1937C79.9326 55.1884 81.1594 55.1884 82.3873 55.1937C83.5212 57.2504 84.6596 59.3048 85.8026 61.357C86.8431 59.3149 87.846 57.2526 88.8683 55.2026C90.0613 55.1769 91.2589 55.2026 92.4509 55.1926C89.469 60.7919 86.4807 66.3868 83.4859 71.9773C82.294 71.9638 81.1032 71.9773 79.9125 71.9717C81.2785 69.4778 82.6385 66.9825 83.9925 64.4857C82.2302 61.3872 80.4566 58.2944 78.7057 55.1903L78.7069 55.1937ZM122.722 55.1937H125.88C125.88 56.4805 125.88 57.7673 125.88 59.0542H130.206C130.206 57.7673 130.206 56.4805 130.206 55.1937C131.258 55.1937 132.31 55.1937 133.362 55.1937C133.366 58.8408 133.366 62.4872 133.362 66.1328H130.203V61.7129C128.761 61.7129 127.319 61.7129 125.877 61.7129V66.1306C124.824 66.1306 123.771 66.1306 122.718 66.1306C122.718 62.4835 122.718 58.8374 122.718 55.1926L122.722 55.1937ZM134.957 55.1937C138.068 55.1825 141.18 55.1937 144.292 55.1937C144.292 56.0788 144.292 56.965 144.292 57.8512C143.257 57.8512 142.222 57.8512 141.188 57.8512C141.188 60.6114 141.188 63.3716 141.188 66.1317H138.058C138.058 63.3716 138.058 60.6114 138.058 57.8512C137.023 57.8512 135.989 57.8512 134.956 57.8512C134.956 56.9673 134.956 56.0821 134.956 55.1981L134.957 55.1937ZM145.885 55.1937H149.04C149.04 56.4894 149.04 57.7852 149.04 59.081C150.15 59.1168 151.273 59.0027 152.375 59.1627C153.455 59.3294 154.514 59.9404 154.972 60.9531C155.213 61.5119 155.326 62.116 155.304 62.7226C155.281 63.3292 155.123 63.9235 154.84 64.4633C154.556 64.9664 154.142 65.3863 153.639 65.68C153.136 65.9738 152.562 66.1308 151.977 66.1351C149.946 66.1351 147.914 66.1351 145.882 66.1351C145.882 62.4879 145.882 58.8419 145.882 55.197L145.885 55.1937ZM149.041 61.545C149.041 62.2623 149.041 62.9807 149.041 63.6979C149.79 63.6588 150.566 63.7953 151.3 63.586C151.967 63.4059 152.255 62.5241 151.855 61.9825C151.584 61.6468 151.127 61.5349 150.717 61.5349C150.158 61.5349 149.6 61.5349 149.041 61.5349V61.545ZM156.441 55.1937H159.605C159.605 58.8393 159.605 62.4853 159.605 66.1317C158.551 66.1317 157.498 66.1317 156.445 66.1317C156.445 62.4861 156.445 58.8404 156.445 55.1948L156.441 55.1937Z" fill="white"/>
</g>
<defs>
<clipPath id="clip0_1874_58267">
<rect width="190" height="79" fill="white"/>
</clipPath>
</defs>
</svg>
