<svg width="162" height="108" viewBox="0 0 162 108" fill="none" xmlns="http://www.w3.org/2000/svg">
<path d="M67.4414 52.3228L66.7827 51.9641L67.4414 52.3228ZM89.8384 60.3953L90.0523 61.1142L89.8384 60.3953ZM5.59709 0.0686673L0.611223 7.14971L9.23652 7.92707L5.59709 0.0686673ZM4.57711 3.03099C4.54459 3.44392 4.85298 3.80504 5.26591 3.83756C5.67884 3.87008 6.03996 3.5617 6.07248 3.14876L4.57711 3.03099ZM5.74943 9.03801C5.76176 8.62399 5.43611 8.27835 5.02208 8.26603C4.60805 8.2537 4.26242 8.57935 4.25009 8.99338L5.74943 9.03801ZM4.2383 14.9732C4.24962 15.3873 4.59446 15.7137 5.00852 15.7024C5.42258 15.6911 5.74906 15.3463 5.73775 14.9322L4.2383 14.9732ZM6.09138 20.8138C6.05222 20.4014 5.6862 20.0989 5.27384 20.138C4.86148 20.1772 4.55894 20.5432 4.5981 20.9556L6.09138 20.8138ZM5.39719 26.9068C5.46913 27.3147 5.85812 27.5871 6.26604 27.5152C6.67396 27.4432 6.94634 27.0542 6.8744 26.6463L5.39719 26.9068ZM8.15776 32.3705C8.04756 31.9713 7.63454 31.7369 7.23526 31.8471C6.83597 31.9573 6.60161 32.3703 6.71181 32.7696L8.15776 32.3705ZM8.61988 38.4601C8.77377 38.8447 9.21028 39.0317 9.59484 38.8778C9.97941 38.7239 10.1664 38.2874 10.0125 37.9028L8.61988 38.4601ZM12.5272 43.1887C12.3248 42.8273 11.8678 42.6983 11.5064 42.9006C11.1449 43.103 11.016 43.56 11.2183 43.9214L12.5272 43.1887ZM14.5372 48.9704C14.7895 49.2989 15.2603 49.3608 15.5888 49.1086C15.9174 48.8563 15.9792 48.3855 15.727 48.0569L14.5372 48.9704ZM19.6144 52.3924C19.315 52.1061 18.8402 52.1168 18.554 52.4162C18.2677 52.7156 18.2784 53.1903 18.5778 53.4766L19.6144 52.3924ZM23.2556 57.3094C23.5949 57.547 24.0626 57.4646 24.3002 57.1253C24.5378 56.786 24.4553 56.3183 24.116 56.0807L23.2556 57.3094ZM29.124 59.0731C28.7545 58.8861 28.3032 59.034 28.1162 59.4036C27.9291 59.7731 28.077 60.2244 28.4466 60.4114L29.124 59.0731ZM33.9965 62.7829C34.3868 62.9218 34.8157 62.7179 34.9545 62.3277C35.0933 61.9374 34.8895 61.5085 34.4993 61.3697L33.9965 62.7829ZM40.1227 63.0201C39.7196 62.9249 39.3156 63.1745 39.2203 63.5776C39.1251 63.9807 39.3747 64.3847 39.7778 64.4799L40.1227 63.0201ZM45.6891 65.579C46.0994 65.6361 46.4782 65.3497 46.5352 64.9395C46.5922 64.5292 46.3059 64.1504 45.8956 64.0933L45.6891 65.579ZM51.7537 64.6629C51.3402 64.639 50.9855 64.9548 50.9616 65.3683C50.9377 65.7819 51.2535 66.1365 51.667 66.1604L51.7537 64.6629ZM57.6622 66.2946C58.0764 66.2899 58.4083 65.9503 58.4036 65.5361C58.3989 65.1219 58.0593 64.79 57.6451 64.7947L57.6622 66.2946ZM63.5403 64.5451C63.1272 64.5748 62.8164 64.9339 62.8462 65.347C62.8759 65.7602 63.235 66.071 63.6481 66.0412L63.5403 64.5451ZM69.6039 65.4476C70.0148 65.3956 70.3058 65.0203 70.2538 64.6094C70.2019 64.1984 69.8266 63.9074 69.4157 63.9594L69.6039 65.4476ZM75.2627 63.0716C74.8548 63.1437 74.5826 63.5328 74.6547 63.9407C74.7268 64.3486 75.1159 64.6208 75.5238 64.5487L75.2627 63.0716ZM81.3847 63.3723C81.7888 63.2815 82.0429 62.8803 81.9521 62.4761C81.8613 62.072 81.4601 61.8179 81.056 61.9087L81.3847 63.3723ZM86.7847 60.4857C86.385 60.5946 86.1494 61.0069 86.2583 61.4065C86.3672 61.8061 86.7795 62.0418 87.1791 61.9329L86.7847 60.4857ZM92.9769 60.1282C93.3641 59.9811 93.5588 59.548 93.4117 59.1608C93.2647 58.7736 92.8316 58.5789 92.4443 58.7259L92.9769 60.1282ZM97.7307 56.164C97.3776 56.3806 97.2669 56.8424 97.4835 57.1955C97.7001 57.5486 98.1619 57.6592 98.515 57.4427L97.7307 56.164ZM103.344 53.588C103.629 53.2877 103.617 52.813 103.317 52.5277C103.016 52.2425 102.542 52.2547 102.256 52.555L103.344 53.588ZM105.449 47.7957C105.285 48.1762 105.461 48.6173 105.842 48.7809C106.222 48.9445 106.663 48.7687 106.827 48.3881L105.449 47.7957ZM108.06 42.2253C108.052 41.8111 107.71 41.4816 107.296 41.4893C106.882 41.4971 106.553 41.839 106.56 42.2532L108.06 42.2253ZM105.203 36.7896C105.391 37.1587 105.842 37.3057 106.211 37.1177C106.581 36.9298 106.727 36.4782 106.54 36.1091L105.203 36.7896ZM102.456 31.2946C102.121 31.0499 101.652 31.1225 101.407 31.4567C101.163 31.7909 101.235 32.2602 101.569 32.5049L102.456 31.2946ZM96.3891 30.34C96.7977 30.408 97.184 30.1319 97.252 29.7233C97.32 29.3147 97.0439 28.9284 96.6354 28.8604L96.3891 30.34ZM90.3639 29.1237C89.9608 29.219 89.7113 29.623 89.8066 30.0261C89.9019 30.4293 90.3059 30.6788 90.709 30.5835L90.3639 29.1237ZM85.3597 32.7466C85.7195 32.5414 85.8449 32.0834 85.6397 31.7235C85.4346 31.3637 84.9765 31.2383 84.6167 31.4435L85.3597 32.7466ZM79.6143 35.0376C79.3018 35.3095 79.269 35.7832 79.5409 36.0957C79.8128 36.4082 80.2865 36.441 80.599 36.1691L79.6143 35.0376ZM76.448 40.356C76.7196 40.0433 76.6862 39.5696 76.3735 39.298C76.0608 39.0264 75.5871 39.0597 75.3155 39.3724L76.448 40.356ZM71.5737 44.1831C71.3358 44.5222 71.4178 44.9899 71.7569 45.2278C72.096 45.4657 72.5638 45.3837 72.8016 45.0446L71.5737 44.1831ZM69.5982 50.0362C69.8085 49.6794 69.6897 49.2196 69.3329 49.0093C68.9761 48.799 68.5163 48.9177 68.306 49.2746L69.5982 50.0362ZM65.4294 54.6742C65.2583 55.0515 65.4255 55.496 65.8027 55.667C66.18 55.838 66.6245 55.6709 66.7955 55.2936L65.4294 54.6742ZM64.9026 60.6505C65.0027 60.2486 64.758 59.8416 64.3561 59.7415C63.9542 59.6414 63.5472 59.8861 63.4471 60.288L64.9026 60.6505ZM62.6758 66.2665C62.6744 66.6807 63.009 67.0177 63.4232 67.0191C63.8374 67.0206 64.1744 66.6859 64.1758 66.2717L62.6758 66.2665ZM64.9273 71.8416C64.8152 71.4428 64.401 71.2104 64.0023 71.3225C63.6035 71.4346 63.3711 71.8487 63.4832 72.2475L64.9273 71.8416ZM65.8757 77.7777C66.0872 78.1339 66.5473 78.2511 66.9035 78.0397C67.2596 77.8282 67.3769 77.368 67.1655 77.0119L65.8757 77.7777ZM70.5917 81.5622C70.311 81.2577 69.8365 81.2384 69.532 81.5192C69.2274 81.8 69.2082 82.2745 69.489 82.579L70.5917 81.5622ZM73.8655 86.6142C74.1898 86.872 74.6616 86.818 74.9193 86.4937C75.177 86.1695 75.1231 85.6977 74.7988 85.4399L73.8655 86.6142ZM79.5245 88.7531C79.1729 88.5342 78.7103 88.6417 78.4914 88.9933C78.2724 89.3449 78.3799 89.8074 78.7315 90.0264L79.5245 88.7531ZM83.888 92.9222C84.2572 93.1098 84.7087 92.9625 84.8963 92.5932C85.0839 92.2239 84.9367 91.7725 84.5674 91.5849L83.888 92.9222ZM89.8458 94.0343C89.4645 93.8724 89.0242 94.0503 88.8623 94.4316C88.7005 94.8129 88.8783 95.2532 89.2596 95.415L89.8458 94.0343ZM94.7406 97.5587C95.1303 97.6992 95.56 97.4972 95.7005 97.1075C95.8409 96.7178 95.6389 96.2881 95.2492 96.1476L94.7406 97.5587ZM100.771 97.9895C100.375 97.8674 99.955 98.0892 99.8328 98.485C99.7107 98.8808 99.9326 99.3007 100.328 99.4228L100.771 97.9895ZM105.991 101.043C106.391 101.149 106.802 100.911 106.908 100.51C107.014 100.11 106.776 99.6994 106.375 99.5933L105.991 101.043ZM112.037 100.984C111.633 100.893 111.231 101.146 111.14 101.55C111.048 101.953 111.301 102.355 111.705 102.447L112.037 100.984ZM117.46 103.656C117.867 103.735 118.26 103.469 118.339 103.062C118.418 102.655 118.152 102.262 117.745 102.183L117.46 103.656ZM123.49 103.204C123.081 103.138 122.696 103.415 122.63 103.824C122.563 104.233 122.841 104.618 123.25 104.685L123.49 103.204ZM129.063 105.541C129.473 105.595 129.85 105.307 129.905 104.896C129.959 104.486 129.67 104.109 129.26 104.054L129.063 105.541ZM135.053 104.738C134.641 104.695 134.273 104.995 134.23 105.407C134.187 105.819 134.487 106.187 134.899 106.23L135.053 104.738ZM140.765 106.748C141.178 106.779 141.538 106.468 141.568 106.055C141.598 105.642 141.288 105.283 140.875 105.252L140.765 106.748ZM146.686 105.585C146.272 105.568 145.923 105.89 145.906 106.304C145.889 106.718 146.211 107.067 146.625 107.084L146.686 105.585ZM152.524 107.214C152.939 107.215 153.275 106.88 153.276 106.465C153.277 106.051 152.942 105.715 152.528 105.714L152.524 107.214ZM158.323 105.589C157.909 105.609 157.59 105.961 157.61 106.374C157.629 106.788 157.981 107.107 158.395 107.088L158.323 105.589ZM4.25009 8.99338C4.18873 11.0546 4.18565 13.0472 4.2383 14.9732L5.73775 14.9322C5.68591 13.036 5.68887 11.072 5.74943 9.03801L4.25009 8.99338ZM4.5981 20.9556C4.79458 23.0247 5.06226 25.0074 5.39719 26.9068L6.8744 26.6463C6.54673 24.7881 6.28427 22.8451 6.09138 20.8138L4.5981 20.9556ZM6.71181 32.7696C7.26475 34.7731 7.90285 36.6684 8.61988 38.4601L10.0125 37.9028C9.31701 36.1649 8.69649 34.3226 8.15776 32.3705L6.71181 32.7696ZM11.2183 43.9214C12.2327 45.7335 13.3423 47.4141 14.5372 48.9704L15.727 48.0569C14.5767 46.5587 13.5068 44.9387 12.5272 43.1887L11.2183 43.9214ZM18.5778 53.4766C20.0553 54.8891 21.619 56.1634 23.2556 57.3094L24.116 56.0807C22.5398 54.977 21.0352 53.7507 19.6144 52.3924L18.5778 53.4766ZM28.4466 60.4114C30.241 61.3198 32.0956 62.1066 33.9965 62.7829L34.4993 61.3697C32.6542 60.7133 30.8583 59.951 29.124 59.0731L28.4466 60.4114ZM39.7778 64.4799C41.7207 64.9389 43.6954 65.3019 45.6891 65.579L45.8956 64.0933C43.9449 63.8222 42.0165 63.4675 40.1227 63.0201L39.7778 64.4799ZM51.667 66.1604C53.6627 66.2759 55.6652 66.3174 57.6622 66.2946L57.6451 64.7947C55.6802 64.8172 53.7124 64.7763 51.7537 64.6629L51.667 66.1604ZM63.6481 66.0412C65.6555 65.8965 67.645 65.6953 69.6039 65.4476L69.4157 63.9594C67.4818 64.204 65.5192 64.4025 63.5403 64.5451L63.6481 66.0412ZM75.5238 64.5487C77.5319 64.1939 79.4907 63.7977 81.3847 63.3723L81.056 61.9087C79.1834 62.3293 77.2472 62.7209 75.2627 63.0716L75.5238 64.5487ZM87.1791 61.9329C88.1637 61.6646 89.1224 61.3909 90.0523 61.1142L89.6244 59.6765C88.7055 59.95 87.758 60.2204 86.7847 60.4857L87.1791 61.9329ZM90.0523 61.1142C91.0752 60.8098 92.0496 60.4804 92.9769 60.1282L92.4443 58.7259C91.5529 59.0645 90.6134 59.3822 89.6244 59.6765L90.0523 61.1142ZM98.515 57.4427C100.429 56.2688 102.031 54.9698 103.344 53.588L102.256 52.555C101.041 53.8347 99.5421 55.0529 97.7307 56.164L98.515 57.4427ZM106.827 48.3881C107.707 46.3405 108.098 44.2477 108.06 42.2253L106.56 42.2532C106.594 44.0615 106.245 45.9429 105.449 47.7957L106.827 48.3881ZM106.54 36.1091C105.576 34.2173 104.186 32.5618 102.456 31.2946L101.569 32.5049C103.106 33.63 104.344 35.1024 105.203 36.7896L106.54 36.1091ZM96.6354 28.8604C94.6951 28.5374 92.5858 28.5986 90.3639 29.1237L90.709 30.5835C92.7473 30.1017 94.6555 30.0515 96.3891 30.34L96.6354 28.8604ZM84.6167 31.4435C82.975 32.3796 81.3021 33.569 79.6143 35.0376L80.599 36.1691C82.2192 34.7593 83.8119 33.6291 85.3597 32.7466L84.6167 31.4435ZM75.3155 39.3724C74.0674 40.8095 72.818 42.4095 71.5737 44.1831L72.8016 45.0446C74.0185 43.3101 75.2363 41.7512 76.448 40.356L75.3155 39.3724ZM68.306 49.2746C67.7963 50.1393 67.2884 51.0355 66.7827 51.9641L68.1001 52.6815C68.5978 51.7674 69.0974 50.8859 69.5982 50.0362L68.306 49.2746ZM66.7827 51.9641C66.2843 52.8793 65.8336 53.7827 65.4294 54.6742L66.7955 55.2936C67.184 54.4369 67.6183 53.5662 68.1001 52.6815L66.7827 51.9641ZM63.4471 60.288C62.9332 62.351 62.6825 64.3436 62.6758 66.2665L64.1758 66.2717C64.182 64.4767 64.416 62.604 64.9026 60.6505L63.4471 60.288ZM63.4832 72.2475C64.0276 74.1842 64.8362 76.0269 65.8757 77.7777L67.1655 77.0119C66.188 75.3656 65.4336 73.6431 64.9273 71.8416L63.4832 72.2475ZM69.489 82.579C70.7947 83.9951 72.2614 85.3393 73.8655 86.6142L74.7988 85.4399C73.2476 84.2071 71.839 82.9148 70.5917 81.5622L69.489 82.579ZM78.7315 90.0264C80.3626 91.0422 82.0865 92.007 83.888 92.9222L84.5674 91.5849C82.8006 90.6873 81.115 89.7437 79.5245 88.7531L78.7315 90.0264ZM89.2596 95.415C91.0362 96.1692 92.8671 96.8834 94.7406 97.5587L95.2492 96.1476C93.3997 95.481 91.5948 94.7768 89.8458 94.0343L89.2596 95.415ZM100.328 99.4228C102.19 99.9972 104.081 100.537 105.991 101.043L106.375 99.5933C104.483 99.0919 102.612 98.5576 100.771 97.9895L100.328 99.4228ZM111.705 102.447C113.616 102.882 115.538 103.284 117.46 103.656L117.745 102.183C115.838 101.814 113.932 101.415 112.037 100.984L111.705 102.447ZM123.25 104.685C125.2 105.001 127.141 105.286 129.063 105.541L129.26 104.054C127.352 103.801 125.426 103.518 123.49 103.204L123.25 104.685ZM134.899 106.23C136.891 106.436 138.851 106.608 140.765 106.748L140.875 105.252C138.976 105.113 137.031 104.942 135.053 104.738L134.899 106.23ZM146.625 107.084C148.671 107.167 150.643 107.21 152.524 107.214L152.528 105.714C150.667 105.71 148.714 105.667 146.686 105.585L146.625 107.084ZM158.395 107.088C159.417 107.038 160.397 106.975 161.333 106.898L161.209 105.403C160.292 105.479 159.329 105.541 158.323 105.589L158.395 107.088Z" fill="#313896"/>
</svg>
