<svg width="24" height="24" viewBox="0 0 24 24" fill="none" xmlns="http://www.w3.org/2000/svg">
<path fill-rule="evenodd" clip-rule="evenodd" d="M7.4078 0.913446C8.86371 0.310389 10.4241 0 12 0C13.5759 0 15.1363 0.310389 16.5922 0.913446C18.0481 1.5165 19.371 2.40042 20.4853 3.51472C21.5996 4.62902 22.4835 5.95189 23.0866 7.4078C23.6896 8.86371 24 10.4241 24 12C24 15.1826 22.7357 18.2348 20.4853 20.4853C18.2348 22.7357 15.1826 24 12 24C10.4241 24 8.86371 23.6896 7.4078 23.0866C5.95189 22.4835 4.62902 21.5996 3.51472 20.4853C1.26428 18.2348 0 15.1826 0 12C0 8.8174 1.26428 5.76516 3.51472 3.51472C4.62902 2.40042 5.95189 1.5165 7.4078 0.913446ZM8.12 6.48V18H10.048V13.976H12.88C12.9867 13.976 13.128 13.9707 13.304 13.96C13.4853 13.9493 13.6507 13.9333 13.8 13.912C14.4613 13.8107 15.008 13.5893 15.44 13.248C15.8773 12.9067 16.2027 12.4773 16.416 11.96C16.6293 11.4373 16.736 10.8613 16.736 10.232C16.736 9.59733 16.6293 9.02133 16.416 8.504C16.208 7.98133 15.8853 7.54933 15.448 7.208C15.016 6.86667 14.4667 6.64533 13.8 6.544C13.6507 6.51733 13.488 6.50133 13.312 6.496C13.136 6.48533 12.992 6.48 12.88 6.48H8.12ZM12.8 12.176H10.048V8.288H12.8C12.9067 8.288 13.0267 8.29333 13.16 8.304C13.2933 8.30933 13.416 8.328 13.528 8.36C13.848 8.44 14.0987 8.58133 14.28 8.784C14.4667 8.98667 14.5973 9.21867 14.672 9.48C14.752 9.736 14.792 9.98667 14.792 10.232C14.792 10.4773 14.752 10.728 14.672 10.984C14.5973 11.24 14.4667 11.4693 14.28 11.672C14.0987 11.8747 13.848 12.016 13.528 12.096C13.416 12.128 13.2933 12.1493 13.16 12.16C13.0267 12.1707 12.9067 12.176 12.8 12.176Z" fill="#313896"/>
</svg>
