<svg width="197" height="139" viewBox="0 0 197 139" fill="none" xmlns="http://www.w3.org/2000/svg">
<path d="M166.016 125.908C166.016 125.908 181.992 96.9455 168.718 65.5883C156.94 37.7669 143.208 39.668 133.133 50.9586C128.842 55.7677 116.471 51.5511 105.941 23.2414C91.5817 -15.3655 41.8065 8.04947 50.882 67.4474C55.2742 96.1916 37.5154 97.2363 46.5641 125.969L166.016 125.908Z" fill="#313896" fill-opacity="0.1"/>
<path d="M130.734 34.2263C130.734 34.2263 113.737 46.5151 109.579 46.2178C105.42 45.9204 90.6961 36.958 90.6961 36.958L93.8117 33.3039C93.8117 33.3039 107.147 38.1777 109.589 36.8348C112.031 35.4905 121.568 24.0848 125.57 24.6934C129.571 25.3045 133.524 29.8086 130.734 34.2263Z" fill="#233862"/>
<path d="M140.759 126.558H145.839C146.48 126.215 147.049 125.431 147.229 124.261C147.478 122.646 149.312 121.766 149.708 120.444C150.105 119.124 148.071 117.265 148.071 117.265L147.731 116.833L147.377 116.385L144.005 117.169C144.005 117.169 143.922 117.962 143.872 118.97C143.834 119.698 143.815 120.539 143.857 121.278C143.957 123.039 143.358 124.936 141.772 125.279C140.599 125.531 140.652 126.218 140.759 126.558Z" fill="#233862"/>
<path d="M111.27 126.557H122.89C123.449 125.883 123.243 123.401 123.158 122.59C123.139 122.426 123.128 122.332 123.128 122.332C123.128 122.332 119.16 119.202 118.615 121.599C118.598 121.674 118.578 121.748 118.556 121.82C117.869 124.063 114.788 125.082 113.01 125.365C111.856 125.551 111.428 126.144 111.27 126.557Z" fill="#233862"/>
<path d="M113.484 62.5715C113.484 62.5715 114.086 69.9877 114.795 78.9019C115.757 91.0114 116.915 105.886 117.029 108.704C117.228 113.597 118.021 121.423 118.021 121.423C118.021 121.423 119.904 123.282 123.674 122.499C123.674 122.499 127.033 111.326 127.992 99.505C128.008 99.3119 128.022 99.1163 128.037 98.9206C128.93 86.886 130.318 61.5449 130.318 61.5449L113.484 62.5715Z" fill="#C95C03"/>
<path d="M113.483 62.5708C113.483 62.5708 114.086 69.987 114.795 78.9012L127.993 99.5031C128.009 99.31 128.023 99.1143 128.038 98.9186C128.931 86.884 130.319 61.543 130.319 61.543L113.483 62.5708Z" fill="#A74C02"/>
<path d="M116.237 63.452C116.237 63.452 127.097 90.3088 134.238 102.93C141.379 115.552 143.611 119.074 143.611 119.074C143.611 119.074 147.702 117.459 148.073 116.359C148.073 116.359 145.343 91.9923 140.561 86.0525C137.859 82.6957 134.684 72.6241 134.536 69.1009C134.386 65.5789 133.568 58.6074 133.568 58.6074L116.237 63.452Z" fill="#C95C03"/>
<path d="M123.394 25.2108C127.447 27.0239 135.17 24.3507 135.17 24.3507C135.17 24.3507 131.637 21.013 132.571 15.0566L128.997 17.2598L126.569 18.7552C126.569 18.7552 126.452 19.7932 126.471 21.6393C126.476 22.1247 126.49 22.6672 126.52 23.2618C124.592 24.0254 123.394 25.2108 123.394 25.2108Z" fill="#FFB27D"/>
<path d="M126.569 18.7558C126.569 18.7558 126.452 19.7938 126.471 21.6399C128.974 21.5167 132.233 17.9376 132.233 17.9376C131.028 17.4332 129.943 17.24 128.997 17.2591L126.569 18.7558Z" fill="#ED975D"/>
<path d="M125.293 18.5033C125.293 18.5033 132.113 20.4714 133.29 16.2621C134.467 12.0528 136.14 9.47229 131.835 8.03784C127.53 6.60339 126.231 7.97813 125.492 9.28934C124.754 10.6005 123.549 17.8833 125.293 18.5033Z" fill="#FFB27D"/>
<path d="M113.061 59.9275C112.849 61.8676 112.75 63.0759 112.797 63.123C112.912 63.2424 113.051 63.3224 113.22 63.3428C114.804 63.5105 119.312 64.9246 123.264 64.9945C126.594 65.0745 129.624 64.4583 132.923 63.4469C133.359 63.3135 134.378 62.9235 134.412 62.4623C134.459 61.9604 134.498 61.226 134.547 60.3023C134.714 57.0904 134.998 51.5661 136.146 45.2896C136.358 44.1219 136.534 42.9568 136.68 41.8083C137.759 33.246 136.958 25.5071 133.81 22.5442C133.538 22.3003 131.618 22.9597 129.852 23.5721C128.219 24.1388 126.67 24.0397 125.249 23.5746L123.638 24.6711C121.666 26.084 119.456 28.0609 118.203 31.311C117.135 34.077 116.087 39.1681 115.203 44.4675C114.804 46.8701 114.42 49.2956 114.118 51.6029L114.107 51.6855C114.058 51.9116 114.027 52.1632 114 52.3919C113.944 52.8023 113.891 53.2051 113.837 53.6015C113.51 56.0663 113.244 58.2657 113.061 59.9275Z" fill="#313896"/>
<path d="M133.346 15.8515C133.346 15.8515 132.647 15.6482 132.88 14.6914C133.113 13.7347 133.268 12.4667 132.438 12.6078C131.609 12.7488 131.493 13.3764 131.21 12.9686C130.926 12.5607 131.11 11.0056 128.743 10.6143C126.376 10.2229 125.31 10.9256 124.261 10.3131C123.213 9.70201 123.357 8.04267 123.357 8.04267C123.357 8.04267 123.599 8.67033 124.053 8.91427C124.053 8.91427 122.511 6.20419 124.856 4.74942C127.203 3.29591 129.245 4.67319 130.474 4.89426C133.18 5.38088 134.92 5.75188 135.595 7.62467C136.269 9.49618 135.303 14.3586 133.346 15.8515Z" fill="#233862"/>
<path d="M113.061 59.9263C113.396 59.9873 119.212 61.0177 123.166 58.4474C127.238 55.8021 132.007 40.1172 132.007 40.1172C132.007 40.1172 122.862 50.1494 122.685 50.5458C122.537 50.8787 115.942 52.9472 113.838 53.6015C113.509 56.0651 113.244 58.2644 113.061 59.9263Z" fill="#233862"/>
<path d="M65.6706 9.58892L110.906 10.2227L110.264 54.8474L65.0282 54.2137L65.6706 9.58892Z" fill="#D57912"/>
<path d="M75.3249 9.7232L120.561 10.3594L119.921 54.9842L74.685 54.348L75.3249 9.7232Z" fill="#E69D43"/>
<path d="M78.9521 24.9949C78.8901 20.6441 81.8894 17.0847 86.3989 17.0204C90.8635 16.9574 93.9196 20.3868 93.9829 24.7823C94.045 29.0897 91.0457 32.6924 86.5362 32.7568C82.0715 32.8198 79.0155 29.3903 78.9521 24.9949ZM104.529 17.1162L109.79 17.0414L87.6411 48.127L82.3805 48.2018L104.529 17.1162ZM89.3414 24.8479C89.3124 22.7821 88.1362 20.9958 86.3685 21.0208C84.5124 21.047 83.5646 22.8188 83.595 24.9279C83.624 26.9938 84.8002 28.7787 86.5679 28.7538C88.4239 28.7301 89.3705 26.9137 89.3414 24.8479ZM98.1862 40.4609C98.1241 36.1101 101.123 32.5507 105.633 32.4864C110.098 32.4234 113.154 35.8528 113.217 40.2483C113.279 44.5558 110.28 48.1584 105.77 48.2228C101.306 48.2858 98.2496 44.8563 98.1862 40.4609ZM108.576 40.3139C108.546 38.2481 107.37 36.4631 105.603 36.4881C103.745 36.5143 102.799 38.2861 102.829 40.3953C102.858 42.4611 104.034 44.2473 105.802 44.2224C107.658 44.1948 108.605 42.3797 108.576 40.3139Z" fill="white"/>
<path d="M97.7724 56.3951C99.2999 56.3671 101.258 55.7191 101.886 55.4116C102.947 54.8907 103.488 54.3863 103.488 54.3863L103.327 53.394L103.134 52.2099C103.134 52.2099 103.016 52.1908 102.82 52.1718C102.625 52.1514 102.35 52.1311 102.039 52.126C102.039 52.126 101.537 52.2759 101.121 51.91C100.706 51.5441 99.9413 51.2963 99.3617 51.4323C98.7834 51.5695 97.5393 51.4412 97.4994 51.6419C97.4015 52.1247 99.2149 52.0371 99.4261 52.3395C99.618 52.6139 99.4429 52.7981 99.4081 52.8324C99.4055 52.8337 99.4029 52.8363 99.4004 52.8388C98.3391 53.8946 94.6865 54.2783 94.832 55.1156C94.8887 55.4256 97.1271 56.4065 97.7724 56.3951Z" fill="#FFB27D"/>
<path d="M134.791 34.1079C134.791 34.1079 126.425 53.1877 122.686 55.0058C118.947 56.824 101.886 55.4111 101.886 55.4111L101.774 52.1547C101.774 52.1547 116.468 49.2833 117.886 46.9061C119.304 44.5289 121.685 29.9316 125.45 28.4603C129.215 26.9903 134.934 28.905 134.791 34.1079Z" fill="#313896"/>
<path d="M14.1073 128H176.937C177.039 128 177.122 127.615 177.122 127.148V126.855C177.122 126.385 177.039 126 176.937 126H14.1067C14.0049 126 13.9221 126.385 13.9221 126.855V127.148C13.9221 127.615 14.0055 128 14.1073 128Z" fill="#2E3552"/>
<path d="M91.5186 124.985C90.2704 123.027 86.5118 117.94 81.5079 118.614C76.0538 119.346 87.5291 122.938 91.0427 124.999C90.3866 125.034 89.7294 124.957 89.0992 124.771C86.7512 123.937 82.7276 125.54 81.4424 126.104H103.803C103.549 125.245 102.978 124.514 102.205 124.06C101.837 123.835 101.099 123.804 100.147 123.878C101.478 122.312 102.401 117.311 98.6995 118.597C95.9953 119.537 96.001 122.582 96.266 124.401C95.696 124.492 95.1091 124.584 94.5335 124.666C93.4193 118.996 89.4811 102.386 81.4994 101.942C73.4093 101.492 88.3612 119.169 93.3395 124.823C92.7012 124.9 92.0885 124.959 91.5186 124.985Z" fill="#82B378"/>
<path d="M19.8917 125.916H51.7676V99.4819H19.8917L19.8917 125.916Z" fill="#D57912"/>
<path d="M35.8312 125.916H67.707V99.4819H35.8312V125.916Z" fill="#E69D43"/>
<path d="M34.0052 99.6523H56.498V80.9994H34.0052V99.6523Z" fill="#D57912"/>
<path d="M45.2513 99.6523H67.7441V80.9994H45.2513V99.6523Z" fill="#E69D43"/>
</svg>
