<svg width="145" height="125" viewBox="0 0 145 125" fill="none" xmlns="http://www.w3.org/2000/svg">
<g clip-path="url(#clip0_1874_58765)">
<path d="M119.142 91.7177C106.945 120.512 74.7459 132.879 49.5176 130.77C42.6293 130.195 28.7697 129.036 17.9481 118.701C-2.83376 98.8537 0.366808 57.3661 20.261 32.9409C22.8228 29.7953 40.5565 8.72073 68.1915 9.00281C88.424 9.20924 102.625 20.7516 104.352 22.1896C106.534 24.0061 111.345 28.3227 115.681 35.1707C125.87 51.2619 126.765 73.7246 119.142 91.7177Z" fill="#313896" fill-opacity="0.1"/>
<path d="M34.2646 22.7421C33.9041 39.844 32.7349 98.834 33.293 119.739C33.3523 121.953 34.8618 123.731 36.7449 123.803C46.0582 124.162 80.2016 125.07 95.4352 124.319C98.6081 124.162 101.131 121.139 101.197 117.405C101.514 99.4547 102.212 48.9673 100.552 25.8387C100.353 23.0676 98.5037 20.8607 96.1507 20.5841C86.0081 19.3908 51.7181 16.4738 38.5572 17.4784C36.1832 17.6596 34.3235 19.9459 34.2646 22.7421Z" fill="#313896"/>
<path d="M38.42 27.9897C37.9188 41.7934 36.3374 87.7148 36.8394 104.695C36.9129 107.177 38.5762 109.184 40.6841 109.329C49.3639 109.927 78.9774 111.244 91.7082 110.045C94.0008 109.829 95.7997 107.649 95.9234 104.948C96.5685 90.8658 98.4211 48.1063 97.9397 31.3159C97.863 28.6373 96.0985 26.4499 93.8289 26.2103C84.4384 25.2185 52.9711 22.8594 42.1526 23.5536C40.1225 23.6839 38.507 25.6 38.42 27.9897Z" fill="#4F52FF"/>
<path opacity="0.5" d="M57.2812 20.4665C57.2812 20.9914 57.6291 21.4241 58.0746 21.4516C60.2742 21.5871 66.4713 21.9705 69.2409 22.1592C69.7868 22.1966 70.2156 21.6192 70.1121 20.9878L70.0943 20.8802C70.0235 20.449 69.7196 20.1248 69.348 20.0846C67.476 19.8828 61.8272 19.3233 58.0844 19.4807C57.635 19.4993 57.2812 19.9376 57.2812 20.4665Z" fill="white"/>
<path d="M38.6499 14.9648C38.3499 14.9648 38.0708 15.0769 37.9103 15.3312C34.5359 20.684 31.1615 26.2279 27.7871 31.3475C31.1034 31.3475 34.4197 31.3475 37.7356 31.3475C40.331 26.2279 42.9263 20.5231 45.5216 14.9648C43.2311 14.9648 40.9401 14.9648 38.6499 14.9648Z" fill="#D57912"/>
<path d="M47.6849 31.472C44.3685 31.472 41.0526 31.472 37.7363 31.472C40.3317 25.9829 42.927 20.4934 45.5223 15.0039C47.9734 15.0039 50.4245 15.0039 52.8755 15.0039C51.1454 20.4934 49.4153 25.9829 47.6849 31.472Z" fill="#1A0F91"/>
<path d="M57.6321 31.472C54.3158 31.472 50.9999 31.472 47.6836 31.472C49.4137 25.9829 51.1438 20.4934 52.8739 15.0039C55.3249 15.0039 57.776 15.0039 60.2275 15.0039C59.3622 20.4934 58.497 25.9829 57.6321 31.472Z" fill="#D57912"/>
<path d="M67.5813 31.472C64.265 31.472 60.9491 31.472 57.6328 31.472C58.4981 25.9825 59.3629 20.4934 60.2282 15.0039C62.6792 15.0039 65.1303 15.0039 67.5813 15.0039C67.5813 20.4934 67.5813 25.9829 67.5813 31.472Z" fill="#1A0F91"/>
<path d="M77.5306 31.472C74.2143 31.472 70.8983 31.472 67.582 31.472C67.582 25.9825 67.582 20.4934 67.582 15.0039C70.0331 15.0039 72.4842 15.0039 74.9352 15.0039C75.8005 20.4934 76.6657 25.9829 77.5306 31.472Z" fill="#D57912"/>
<path d="M87.4794 31.472C84.1631 31.472 80.8472 31.472 77.5309 31.472C76.666 25.9825 75.8008 20.4934 74.9355 15.0039C77.3866 15.0039 79.8377 15.0039 82.2887 15.0039C84.0188 20.4934 85.7489 25.9829 87.4794 31.472Z" fill="#1A0F91"/>
<path d="M97.4283 31.472C94.1119 31.472 90.796 31.472 87.4797 31.472C85.7496 25.9825 84.0192 20.4934 82.2891 15.0039C84.7401 15.0039 87.1912 15.0039 89.6426 15.0039C92.2376 20.4934 94.8325 25.9829 97.4283 31.472Z" fill="#D57912"/>
<path d="M97.2519 15.3316C97.0914 15.0769 96.8124 14.9648 96.5124 14.9648C94.2218 14.9648 91.9312 14.9648 89.6406 14.9648C92.236 20.5231 94.8309 26.2279 97.4266 31.3475C100.743 31.3475 104.059 31.3475 107.375 31.3475C104.001 26.2283 100.626 20.6848 97.2519 15.3316Z" fill="#1A0F91"/>
<path d="M27.6445 31.3477V34.2003C27.6445 36.5761 30.0458 38.3686 32.7858 38.3686H32.8925C35.6325 38.3686 37.8298 36.5761 37.8298 34.2003V31.3477H27.6445Z" fill="#E69D43"/>
<path d="M37.8301 31.3477V34.2003C37.8301 36.5761 39.9479 38.3686 42.6417 38.3686H42.7464C45.4402 38.3686 47.579 36.5761 47.579 34.2003V31.3477H37.8301Z" fill="#4043FF"/>
<path d="M47.5781 31.3477V34.2003C47.5781 36.5761 49.924 38.3686 52.6641 38.3686H52.7708C55.5108 38.3686 57.618 36.5761 57.618 34.2003V31.3477H47.5781Z" fill="#E69D43"/>
<path d="M57.6172 31.3477V34.2003C57.6172 36.5761 59.8252 38.3686 62.5189 38.3686H62.6237C65.3174 38.3686 67.5116 36.5761 67.5116 34.2003V31.3477H57.6172Z" fill="#4043FF"/>
<path d="M67.5117 31.3477V34.2003C67.5117 36.5761 69.8023 38.3686 72.5423 38.3686H72.649C75.389 38.3686 77.4061 36.5761 77.4061 34.2003V31.3477H67.5117Z" fill="#E69D43"/>
<path d="M77.4062 31.3477V34.2003C77.4062 36.5761 79.7043 38.3686 82.3981 38.3686H82.5028C85.1966 38.3686 87.4461 36.5761 87.4461 34.2003V31.3477H77.4062Z" fill="#4043FF"/>
<path d="M87.4473 31.3477V34.2003C87.4473 36.5761 89.6825 38.3686 92.4225 38.3686H92.5292C95.2692 38.3686 97.4875 36.5761 97.4875 34.2003V31.3477H87.4473Z" fill="#E69D43"/>
<path d="M97.4863 31.3477V34.2003C97.4863 36.5761 99.5836 38.3686 102.277 38.3686H102.382C105.076 38.3686 107.235 36.5761 107.235 34.2003V31.3477H97.4863Z" fill="#4043FF"/>
<path d="M84.3518 94.1065C84.3518 95.353 83.1193 96.3639 81.5991 96.3639H53.3054C51.7852 96.3639 50.5527 95.3534 50.5527 94.1065V88.1168C50.5527 86.8702 51.7852 85.8594 53.3054 85.8594H81.5991C83.1193 85.8594 84.3518 86.8699 84.3518 88.1168V94.1065Z" fill="#91B3FA"/>
<path d="M83.2147 49.8087C83.0155 49.5623 82.7028 49.4602 82.3712 49.467L52.1833 50.1035L51.4209 47.6685C51.3149 47.3292 50.9975 47.1122 50.6386 47.1214L46.4938 47.231C46.0495 47.243 45.6895 47.5533 45.6895 47.9995C45.6895 48.4454 46.0495 48.7382 46.4938 48.7275L50.0358 48.6432L56.4447 69.2311C56.5526 69.5776 56.8764 69.816 57.2432 69.8208L78.432 70.1069C78.9292 70.1136 79.3328 69.7997 79.3328 69.3273C79.3328 68.8548 78.9292 68.531 78.432 68.5258L57.8614 68.3029L56.2103 62.9572L78.8158 62.9918C79.2786 62.9926 79.6865 62.6878 79.8162 62.2658L83.3839 50.669C83.4768 50.367 83.4143 50.0555 83.2147 49.8087Z" fill="url(#paint0_linear_1874_58765)"/>
<path d="M60.3433 71.0902C58.5998 71.0628 57.1895 72.427 57.1895 74.1308C57.1895 75.8347 58.5998 77.258 60.3433 77.3041C62.0971 77.3506 63.5319 75.9869 63.5319 74.2643C63.5319 72.5414 62.0971 71.1177 60.3433 71.0902ZM60.3433 75.6471C59.5287 75.6281 58.8674 74.9637 58.8674 74.1662C58.8674 73.3687 59.5287 72.7321 60.3433 72.7472C61.1603 72.7623 61.8271 73.4267 61.8271 74.2282C61.8267 75.0296 61.1603 75.6662 60.3433 75.6471Z" fill="url(#paint1_linear_1874_58765)"/>
<path d="M74.4682 71.3129C72.6385 71.2843 71.1582 72.681 71.1582 74.4262C71.1582 76.1714 72.6385 77.6305 74.4682 77.679C76.3093 77.7275 77.8157 76.3316 77.8157 74.5665C77.8157 72.801 76.3093 71.3415 74.4682 71.3129ZM74.4682 75.9811C73.6128 75.9608 72.9191 75.2801 72.9191 74.4632C72.9191 73.6462 73.6132 72.9945 74.4682 73.0104C75.3259 73.0263 76.0255 73.7074 76.0255 74.5287C76.0255 75.3497 75.3259 76.0013 74.4682 75.9811Z" fill="url(#paint2_linear_1874_58765)"/>
<g opacity="0.3">
<path d="M109.35 63.8687C109.504 63.7952 109.691 63.8484 109.782 63.9975C109.98 64.3233 110.168 64.663 110.339 65.0067C110.422 65.174 110.355 65.3771 110.189 65.4609C110.187 65.4617 110.185 65.4629 110.183 65.4637C110.017 65.5428 109.819 65.4748 109.737 65.3095C109.574 64.9829 109.396 64.6606 109.208 64.3507C109.11 64.1914 109.16 63.9828 109.319 63.8854C109.329 63.8794 109.34 63.8739 109.35 63.8687ZM110.593 66.5393C110.605 66.5338 110.617 66.5286 110.63 66.5242C110.806 66.4642 110.997 66.5588 111.057 66.736C111.18 67.0996 111.288 67.4719 111.379 67.8427C111.424 68.0243 111.314 68.2067 111.133 68.2524C110.953 68.2973 110.77 68.1864 110.726 68.0052C110.639 67.6527 110.536 67.2991 110.419 66.9534C110.364 66.7889 110.441 66.6121 110.593 66.5393ZM111.22 69.4182C111.254 69.4019 111.291 69.3912 111.33 69.3872C111.515 69.3681 111.68 69.5032 111.7 69.6892C111.739 70.0703 111.762 70.4577 111.768 70.8411C111.772 71.0279 111.623 71.1817 111.438 71.1852C111.252 71.1884 111.099 71.0394 111.095 70.8527C111.089 70.4887 111.067 70.1207 111.03 69.7587C111.015 69.6121 111.095 69.4778 111.22 69.4182ZM111.191 72.3662C111.246 72.3396 111.31 72.3276 111.376 72.336C111.561 72.359 111.692 72.5279 111.669 72.7131C111.623 73.0937 111.559 73.4764 111.48 73.8515C111.441 74.0343 111.263 74.1511 111.081 74.1126C110.899 74.074 110.783 73.8944 110.821 73.7116C110.896 73.3556 110.957 72.992 111.001 72.6304C111.016 72.5112 111.09 72.4143 111.191 72.3662ZM110.508 75.2339C110.586 75.1962 110.679 75.189 110.767 75.2212C110.942 75.2848 111.033 75.4787 110.97 75.6543C110.84 76.0139 110.694 76.3731 110.534 76.7216C110.457 76.8913 110.257 76.966 110.088 76.8877C109.919 76.8094 109.846 76.6088 109.923 76.4387C110.075 76.1073 110.214 75.766 110.336 75.4243C110.368 75.3372 110.431 75.2709 110.508 75.2339ZM109.211 77.8779C109.313 77.8295 109.436 77.8326 109.538 77.8982C109.695 77.9991 109.74 78.2081 109.64 78.3655C109.434 78.6881 109.213 79.0056 108.981 79.3096C108.867 79.4578 108.656 79.4856 108.509 79.372C108.361 79.2583 108.334 79.0458 108.447 78.8975C108.667 78.6087 108.878 78.3067 109.073 78.0003C109.108 77.9455 109.157 77.9042 109.211 77.8779ZM98.4226 83.9424C98.4645 83.9221 98.5116 83.9106 98.561 83.9098C98.9226 83.9031 99.2887 83.8804 99.6491 83.8423C99.8341 83.8228 99.9997 83.9575 100.019 84.1435C100.038 84.3294 99.9045 84.4959 99.7195 84.5154C99.3396 84.5555 98.9543 84.5794 98.5732 84.5865C98.3874 84.5901 98.2337 84.4411 98.2305 84.2543C98.2281 84.1172 98.3072 83.9976 98.4226 83.9424ZM107.366 80.1659C107.492 80.1055 107.647 80.1286 107.751 80.2343C107.881 80.3674 107.879 80.5819 107.747 80.7127C107.475 80.9813 107.189 81.2412 106.895 81.4855C106.751 81.6039 106.539 81.5845 106.421 81.4406C106.302 81.2968 106.322 81.0834 106.466 80.9642C106.745 80.7325 107.017 80.4854 107.275 80.2307C107.302 80.2033 107.333 80.1818 107.366 80.1659ZM101.329 83.5562C101.35 83.5466 101.371 83.5387 101.393 83.5331C101.744 83.4453 102.096 83.3408 102.439 83.2228C102.615 83.1624 102.807 83.257 102.867 83.4338C102.927 83.6106 102.833 83.8037 102.657 83.8633C102.296 83.9873 101.925 84.097 101.556 84.1895C101.376 84.2348 101.193 84.1244 101.148 83.9432C101.109 83.7842 101.188 83.6237 101.329 83.5562ZM105.058 81.9822C105.211 81.9087 105.398 81.962 105.489 82.1106C105.586 82.2699 105.537 82.4781 105.379 82.5763C105.054 82.7765 104.717 82.9657 104.376 83.1377C104.374 83.1389 104.372 83.1401 104.37 83.1409C104.205 83.22 104.007 83.1521 103.924 82.9875C103.841 82.8207 103.908 82.6172 104.074 82.5334C104.398 82.3697 104.718 82.19 105.026 81.9997C105.036 81.9934 105.047 81.9874 105.058 81.9822Z" fill="#91B3FA"/>
<path d="M96.0646 83.7711C96.1243 83.7425 96.1934 83.731 96.2638 83.7429C96.435 83.7712 96.6097 83.7962 96.7832 83.8176C96.9678 83.8403 97.099 84.0092 97.0765 84.1947C97.0539 84.3803 96.886 84.5126 96.7014 84.4892C96.5192 84.4669 96.3353 84.4403 96.1551 84.4105C95.9717 84.3803 95.8472 84.2063 95.8776 84.0219C95.8958 83.9082 95.9685 83.8172 96.0646 83.7711Z" fill="#91B3FA"/>
</g>
<g opacity="0.3">
<path d="M87.3912 78.2574C87.5378 78.1871 87.7177 78.232 87.813 78.3711C87.9114 78.5145 88.0145 78.6588 88.1197 78.799C88.2315 78.9484 88.2015 79.1606 88.0533 79.2731C87.9043 79.3859 87.6936 79.3553 87.5817 79.2063C87.4714 79.0585 87.3627 78.9071 87.2588 78.7557C87.1532 78.6019 87.1916 78.3909 87.345 78.2848C87.3596 78.2741 87.375 78.265 87.3912 78.2574Z" fill="#91B3FA"/>
<path d="M92.5225 58.8754C92.6624 58.8082 92.8039 58.7434 92.947 58.6807C93.1173 58.606 93.3158 58.6842 93.3901 58.8555C93.4644 59.0268 93.3861 59.2274 93.2161 59.3009C92.8861 59.4456 92.5624 59.6037 92.2505 59.7722C92.0865 59.8604 91.8825 59.7992 91.7944 59.6347C91.7062 59.4702 91.7675 59.2648 91.9311 59.1762C92.124 59.0724 92.3228 58.9711 92.5225 58.8754ZM94.6205 58.0803C94.6375 58.0723 94.6553 58.0652 94.6743 58.06C95.0356 57.9571 95.4055 57.8689 95.7731 57.7969C95.9558 57.7612 96.1324 57.8812 96.1676 58.0648C96.2032 58.2483 96.0838 58.4263 95.9012 58.4613C95.5518 58.5297 95.2008 58.6135 94.8573 58.7113C94.6786 58.7621 94.4925 58.6576 94.4419 58.478C94.3964 58.3167 94.4751 58.1498 94.6205 58.0803ZM90.4335 60.1278C90.5765 60.0591 90.7528 60.1004 90.8497 60.2339C90.9596 60.3849 90.9267 60.5967 90.7765 60.7068C90.4892 60.9178 90.2074 61.1439 89.9382 61.3791C89.7979 61.5015 89.5852 61.4868 89.4635 61.3457C89.3413 61.2047 89.3563 60.9909 89.4967 60.8681C89.7801 60.6202 90.0773 60.3821 90.3797 60.16C90.3967 60.1477 90.4149 60.137 90.4335 60.1278ZM97.4677 57.6026C97.5064 57.584 97.5491 57.5728 97.5942 57.5704C97.9689 57.5502 98.3487 57.5454 98.7238 57.5569C98.9096 57.5625 99.0555 57.7187 99.0499 57.9054C99.0444 58.0922 98.8894 58.2392 98.7033 58.2332C98.3475 58.2225 97.9863 58.2269 97.6305 58.2459C97.4447 58.2563 97.2862 58.1128 97.2764 57.9265C97.2684 57.7854 97.3479 57.6598 97.4677 57.6026ZM88.3077 62.0872C88.4251 62.0308 88.5698 62.0463 88.6741 62.1377C88.814 62.2604 88.8287 62.4742 88.7061 62.6153C88.4721 62.8843 88.2468 63.1672 88.0354 63.4565C87.9255 63.6071 87.7148 63.6397 87.5646 63.5288C87.4148 63.4179 87.3828 63.2066 87.4927 63.056C87.7152 62.7516 87.9527 62.4536 88.199 62.1702C88.2302 62.1341 88.2674 62.1063 88.3077 62.0872ZM86.661 64.4678C86.7551 64.4229 86.8681 64.4221 86.9665 64.4757C87.1298 64.5651 87.1903 64.7706 87.1017 64.9347C86.9318 65.2498 86.7729 65.5756 86.6294 65.903C86.5547 66.0743 86.3563 66.1522 86.1859 66.0767C86.0155 66.0016 85.9385 65.8017 86.0132 65.6308C86.1642 65.2859 86.3313 64.943 86.5104 64.6116C86.5456 64.5464 86.5989 64.4976 86.661 64.4678ZM85.5697 67.1531C85.6412 67.1189 85.7246 67.1098 85.8068 67.1332C85.9855 67.1845 86.0891 67.3716 86.0381 67.5517C85.94 67.8966 85.8554 68.2494 85.7867 68.6003C85.7507 68.7835 85.574 68.9031 85.3914 68.8669C85.2092 68.8307 85.0902 68.6527 85.1262 68.4695C85.1985 68.1004 85.2874 67.7289 85.3906 67.3657C85.4183 67.2683 85.4855 67.1932 85.5697 67.1531ZM85.0866 70.0133C85.1361 69.9894 85.1922 69.9775 85.2507 69.9811C85.4365 69.9918 85.578 70.152 85.5673 70.3383C85.5467 70.6963 85.5412 71.0591 85.5507 71.4167C85.5558 71.6035 85.4088 71.7593 85.2234 71.764C85.0376 71.7692 84.8827 71.6218 84.8779 71.435C84.8677 71.0583 84.8736 70.6761 84.8953 70.2994C84.9025 70.1714 84.9795 70.0645 85.0866 70.0133ZM85.2404 72.9112C85.2681 72.8977 85.2985 72.8882 85.3305 72.883C85.5139 72.8524 85.6875 72.9772 85.7175 73.1611C85.776 73.514 85.8499 73.8688 85.9377 74.2161C85.9835 74.3973 85.874 74.5813 85.6942 74.6274C85.5139 74.6735 85.3309 74.5638 85.2851 74.3826C85.1926 74.017 85.1147 73.6431 85.0534 73.2716C85.0281 73.1202 85.1084 72.9744 85.2404 72.9112ZM86.023 75.7026C86.0294 75.6995 86.0357 75.6971 86.042 75.6943C86.2144 75.6244 86.4104 75.7078 86.4804 75.8814C86.5788 76.1262 86.6855 76.3706 86.7986 76.6082C86.8393 76.694 86.8812 76.7795 86.9235 76.8645C87.0073 77.0314 86.9405 77.2348 86.7744 77.3191C86.608 77.4077 86.4061 77.3362 86.3223 77.1693C86.2776 77.0803 86.2337 76.9905 86.1906 76.8999C86.0721 76.6499 85.9594 76.3928 85.8562 76.1354C85.789 75.9681 85.8637 75.7793 86.023 75.7026Z" fill="#91B3FA"/>
<path d="M100.356 57.7693C100.417 57.7403 100.486 57.7291 100.557 57.741C100.737 57.7716 100.919 57.8066 101.099 57.8452C101.281 57.8841 101.397 58.0637 101.359 58.2465C101.32 58.4293 101.142 58.5461 100.96 58.5075C100.789 58.471 100.615 58.438 100.445 58.409C100.261 58.378 100.138 58.2032 100.169 58.0188C100.188 57.9056 100.261 57.815 100.356 57.7693Z" fill="#91B3FA"/>
</g>
<g opacity="0.3">
<path d="M115.901 50.8484C115.982 50.8095 116.082 50.827 116.146 50.8977C116.263 51.03 116.379 51.1675 116.489 51.3066C116.56 51.3972 116.545 51.5283 116.455 51.6002C116.365 51.6725 116.235 51.6566 116.163 51.5664C116.058 51.4337 115.948 51.3026 115.836 51.1766C115.76 51.0908 115.767 50.9585 115.852 50.8814C115.867 50.8675 115.884 50.8568 115.901 50.8484Z" fill="#91B3FA"/>
<path d="M116.853 52.1395C116.949 52.0938 117.065 52.1271 117.12 52.2197C117.278 52.4808 117.425 52.753 117.555 53.0283C117.583 53.0864 117.61 53.1448 117.637 53.204C117.684 53.3093 117.63 53.4317 117.533 53.4805C117.428 53.5278 117.305 53.4813 117.257 53.376C117.232 53.3196 117.206 53.2636 117.18 53.2083C117.055 52.9453 116.916 52.6858 116.765 52.4371C116.705 52.3385 116.736 52.2098 116.835 52.1498C116.841 52.1462 116.847 52.1426 116.853 52.1395ZM117.741 54.1179C117.75 54.1135 117.759 54.1099 117.769 54.1068C117.879 54.0726 117.995 54.1342 118.029 54.2443C118.139 54.5979 118.228 54.9615 118.293 55.3247C118.314 55.4383 118.238 55.5468 118.125 55.5675C118.012 55.5881 117.905 55.5126 117.884 55.399C117.822 55.0525 117.737 54.7056 117.632 54.3682C117.601 54.2681 117.65 54.162 117.741 54.1179ZM118.125 56.2533C118.149 56.2418 118.176 56.235 118.204 56.2334C118.318 56.2271 118.416 56.3157 118.423 56.4309C118.442 56.8001 118.44 57.1748 118.414 57.5439C118.407 57.6591 118.307 57.7458 118.193 57.7378C118.078 57.7299 117.992 57.6297 118 57.5149C118.024 57.1628 118.027 56.8056 118.008 56.4536C118.003 56.3661 118.052 56.2887 118.125 56.2533ZM117.975 58.4185C118.014 58.3998 118.059 58.3935 118.105 58.4022C118.217 58.4245 118.291 58.5341 118.269 58.6474C118.198 59.0109 118.104 59.3733 117.989 59.7242C117.954 59.8339 117.836 59.8935 117.727 59.8577C117.618 59.822 117.559 59.7039 117.594 59.5939C117.703 59.2593 117.793 58.9136 117.86 58.5671C117.874 58.4995 117.918 58.4459 117.975 58.4185ZM117.304 60.4808C117.358 60.4549 117.423 60.4526 117.482 60.4804C117.586 60.5292 117.631 60.654 117.582 60.7585C117.425 61.0935 117.246 61.4217 117.051 61.7344C116.99 61.8326 116.862 61.8616 116.765 61.8C116.667 61.7384 116.638 61.6093 116.699 61.5119C116.886 61.2135 117.056 60.9004 117.206 60.5809C117.227 60.5352 117.262 60.501 117.304 60.4808ZM116.155 62.317C116.225 62.2832 116.312 62.2911 116.376 62.3436C116.465 62.4167 116.478 62.5482 116.406 62.6376C116.173 62.9241 115.92 63.1991 115.654 63.4538C115.571 63.5333 115.44 63.5301 115.36 63.447C115.281 63.3636 115.284 63.2313 115.367 63.1514C115.62 62.9082 115.861 62.6464 116.083 62.3734C116.104 62.3487 116.128 62.3297 116.155 62.317ZM114.595 63.8146C114.683 63.7725 114.791 63.7971 114.851 63.8786C114.919 63.9712 114.9 64.1023 114.808 64.171C114.514 64.3908 114.201 64.5946 113.88 64.7774C113.779 64.8326 113.653 64.7988 113.596 64.6983C113.54 64.5978 113.575 64.4702 113.675 64.4134C113.981 64.2394 114.28 64.0447 114.56 63.8353C114.571 63.8269 114.583 63.8202 114.595 63.8146ZM111.692 65.2351C111.703 65.23 111.715 65.2256 111.727 65.2224C112.019 65.1414 112.312 65.0428 112.598 64.9296C112.641 64.9125 112.683 64.8954 112.725 64.8779C112.832 64.8338 112.953 64.8843 112.997 64.9912C113.041 65.0981 112.991 65.2236 112.885 65.2646C112.84 65.2832 112.795 65.3015 112.749 65.3194C112.451 65.4378 112.144 65.5411 111.838 65.6261C111.727 65.6567 111.612 65.5916 111.582 65.4803C111.555 65.3802 111.603 65.2781 111.692 65.2351Z" fill="#91B3FA"/>
</g>
<g opacity="0.3">
<path d="M105.479 48.8273C105.582 48.778 105.705 48.8209 105.755 48.9234C105.806 49.0267 105.763 49.1523 105.661 49.2032C105.351 49.3569 105.047 49.5306 104.759 49.7201C104.663 49.7821 104.534 49.7563 104.471 49.6597C104.408 49.5632 104.436 49.4336 104.531 49.3704C104.834 49.1718 105.151 48.9894 105.477 48.8284C105.478 48.8281 105.478 48.8277 105.479 48.8273ZM106.46 48.4128C106.467 48.4096 106.474 48.4069 106.481 48.4041C106.822 48.2833 107.174 48.1823 107.528 48.1037C107.64 48.079 107.751 48.1498 107.776 48.2626C107.801 48.3755 107.729 48.4867 107.618 48.5122C107.28 48.5873 106.944 48.6834 106.619 48.7986C106.51 48.8368 106.392 48.7796 106.354 48.6707C106.318 48.569 106.365 48.4581 106.46 48.4128ZM103.703 49.9955C103.786 49.9558 103.889 49.9752 103.951 50.0491C104.025 50.1369 104.014 50.2689 103.927 50.3436C103.663 50.5681 103.41 50.8109 103.176 51.0648C103.097 51.1494 102.966 51.1546 102.882 51.0759C102.798 50.9976 102.793 50.8653 102.871 50.7807C103.116 50.5144 103.381 50.2601 103.658 50.0249C103.672 50.0126 103.687 50.003 103.703 49.9955ZM108.534 47.9527C108.556 47.9423 108.579 47.9356 108.604 47.9332C108.964 47.8986 109.331 47.8859 109.692 47.8959C109.807 47.899 109.897 47.9952 109.895 48.1104C109.892 48.2257 109.796 48.3167 109.681 48.3135C109.336 48.3039 108.987 48.3163 108.643 48.3492C108.529 48.36 108.427 48.2757 108.416 48.1609C108.408 48.0715 108.458 47.9896 108.534 47.9527ZM102.26 51.5607C102.326 51.5289 102.408 51.5337 102.471 51.5797C102.564 51.6473 102.585 51.778 102.518 51.8718C102.315 52.1527 102.128 52.4492 101.962 52.7531C101.906 52.8545 101.779 52.891 101.679 52.835C101.579 52.779 101.542 52.6518 101.598 52.5509C101.773 52.2326 101.969 51.9215 102.181 51.627C102.202 51.5972 102.23 51.575 102.26 51.5607ZM101.233 53.4279C101.284 53.4036 101.344 53.4 101.4 53.4227C101.507 53.466 101.558 53.588 101.515 53.6949C101.386 54.0171 101.275 54.3505 101.185 54.6847C101.155 54.7964 101.04 54.8623 100.93 54.8321C100.819 54.8019 100.753 54.6875 100.783 54.5758C100.877 54.2254 100.994 53.8761 101.13 53.5383C101.15 53.4879 101.187 53.4497 101.233 53.4279ZM100.68 55.4893C100.715 55.4723 100.756 55.4651 100.799 55.4711C100.913 55.4874 100.991 55.5935 100.975 55.7075C100.926 56.0516 100.897 56.4017 100.89 56.7482C100.888 56.8634 100.793 56.9552 100.678 56.9528C100.563 56.9504 100.472 56.8551 100.475 56.7394C100.482 56.3762 100.512 56.0091 100.564 55.6483C100.573 55.5764 100.619 55.5184 100.68 55.4893Z" fill="#91B3FA"/>
<path d="M110.667 48.0124C110.703 47.9949 110.745 47.9882 110.788 47.9945C110.964 48.0212 111.139 48.0533 111.311 48.0899C111.423 48.1137 111.495 48.225 111.471 48.3379C111.447 48.4503 111.337 48.5226 111.224 48.4992C111.061 48.4642 110.893 48.4336 110.726 48.4082C110.612 48.3911 110.534 48.2842 110.551 48.1702C110.562 48.0986 110.607 48.0414 110.667 48.0124Z" fill="#91B3FA"/>
</g>
<path d="M87.6426 117.65L106.769 80.8135H102.851C102.128 80.8135 101.73 79.9687 102.189 79.4072L122.574 54.4306C123.458 53.3482 125.203 54.0348 125.121 55.4323L123.688 79.8567C123.606 81.255 122.372 82.2968 120.988 82.1375L118.256 81.8232L99.2785 123.139C98.7844 124.214 97.7136 124.903 96.535 124.903H89.9577L87.6426 117.65Z" fill="url(#paint3_linear_1874_58765)"/>
<path d="M71.8281 91.814L85.3313 121.968C86.1309 123.754 87.8986 124.902 89.8469 124.902H96.8079C97.7317 124.902 98.5827 124.398 99.0305 123.587L99.278 123.138C98.5301 123.138 97.8451 122.716 97.5052 122.047L79.5137 86.6094L71.8281 91.814Z" fill="url(#paint4_linear_1874_58765)"/>
<path d="M81.3325 90.1897C79.9783 89.1148 78 89.4307 77.0443 90.8747L57.1911 120.86C55.6009 123.262 52.9214 124.705 50.0517 124.705H47.258L44.9844 118.121C44.9844 118.121 63.4411 89.6715 68.1981 85.3677C68.1981 85.3677 72.9354 81.0755 77.6067 84.3207C78.8408 85.1782 79.7775 86.4016 80.3499 87.7956L81.3325 90.1897Z" fill="url(#paint5_linear_1874_58765)"/>
<path d="M23.3906 100.413C23.3906 100.413 26.714 96.2376 33.1538 95.5879C33.1538 95.5879 36.2124 96.6353 42.3058 107.612C48.3993 118.588 52.4441 123.594 57.1905 120.86L56.7976 121.516C55.5027 123.677 53.1761 124.999 50.6662 124.999H48.0412C45.151 124.999 42.6414 120.524 40.9536 118.165C36.2104 111.538 26.3038 101.443 23.3906 100.413Z" fill="url(#paint6_linear_1874_58765)"/>
<path opacity="0.72" d="M122.821 63.1639C122.813 63.1639 122.806 63.1635 122.798 63.1627C122.69 63.1504 122.612 63.0522 122.624 62.9429L122.759 61.7505C122.771 61.6416 122.868 61.5625 122.977 61.5756C123.086 61.588 123.163 61.6861 123.151 61.7954L123.017 62.9878C123.005 63.0892 122.92 63.1639 122.821 63.1639Z" fill="white"/>
<path opacity="0.72" d="M105.805 78.2181C105.763 78.2181 105.72 78.2045 105.685 78.1767C105.598 78.11 105.582 77.9852 105.649 77.8982L122.482 55.91C122.68 55.6518 123.015 55.5604 123.316 55.6824C123.616 55.8047 123.794 56.1047 123.757 56.4286L123.46 59.0643C123.448 59.1731 123.349 59.2518 123.242 59.2391C123.133 59.2268 123.055 59.1286 123.068 59.0194L123.365 56.3837C123.385 56.2053 123.276 56.0944 123.167 56.0503C123.059 56.0062 122.904 56.0098 122.795 56.152L105.961 78.1402C105.923 78.1914 105.864 78.2181 105.805 78.2181Z" fill="white"/>
<path opacity="0.72" d="M67.6153 101.269C67.5774 101.269 67.5387 101.257 67.5051 101.235C67.4145 101.174 67.3908 101.05 67.4517 100.959L76.1575 87.9865C76.4713 87.5188 76.9927 87.2645 77.5528 87.3074C78.1125 87.3499 78.5904 87.6801 78.8303 88.1903C78.877 88.2893 78.8351 88.4077 78.7362 88.4546C78.6378 88.5015 78.52 88.4594 78.4734 88.36C78.2947 87.9805 77.9394 87.735 77.5232 87.7032C77.1054 87.671 76.7188 87.8601 76.4848 88.2082L67.779 101.181C67.741 101.238 67.6786 101.269 67.6153 101.269Z" fill="white"/>
<path opacity="0.72" d="M65.3536 104.639C65.3157 104.639 65.2769 104.628 65.2433 104.605C65.1528 104.544 65.1291 104.42 65.19 104.329L65.7481 103.498C65.809 103.407 65.9323 103.383 66.0224 103.444C66.1129 103.505 66.1367 103.629 66.0758 103.72L65.5177 104.551C65.4793 104.608 65.4173 104.639 65.3536 104.639Z" fill="white"/>
<path d="M117.664 50.5261L115.147 47.8962L132.762 29.4871L135.278 32.1462L117.664 50.5261ZM131.085 50.9644C130.162 50.9644 129.318 50.7306 128.554 50.2631C127.799 49.7858 127.193 49.1527 126.737 48.3638C126.28 47.5651 126.052 46.6787 126.052 45.7047C126.052 44.7501 126.285 43.8735 126.751 43.0748C127.217 42.2761 127.832 41.6381 128.596 41.1608C129.36 40.6836 130.19 40.4449 131.085 40.4449C132.007 40.4449 132.851 40.6836 133.615 41.1608C134.379 41.6284 134.985 42.2615 135.432 43.0602C135.889 43.8492 136.117 44.7306 136.117 45.7047C136.117 46.6787 135.889 47.5651 135.432 48.3638C134.985 49.1527 134.379 49.7858 133.615 50.2631C132.851 50.7306 132.007 50.9644 131.085 50.9644ZM131.085 47.604C131.411 47.604 131.709 47.5164 131.979 47.341C132.259 47.1657 132.482 46.9368 132.65 46.6543C132.818 46.3621 132.902 46.0456 132.902 45.7047C132.902 45.3638 132.818 45.0521 132.65 44.7696C132.482 44.4774 132.259 44.2436 131.979 44.0683C131.709 43.893 131.411 43.8053 131.085 43.8053C130.758 43.8053 130.455 43.893 130.176 44.0683C129.906 44.2436 129.687 44.4774 129.519 44.7696C129.351 45.0521 129.267 45.3638 129.267 45.7047C129.267 46.0456 129.351 46.3621 129.519 46.6543C129.687 46.9368 129.906 47.1657 130.176 47.341C130.455 47.5164 130.758 47.604 131.085 47.604ZM119.341 39.5683C118.419 39.5683 117.575 39.3345 116.811 38.867C116.047 38.3897 115.436 37.7566 114.98 36.9677C114.532 36.169 114.309 35.2826 114.309 34.3086C114.309 33.354 114.542 32.4774 115.008 31.6787C115.474 30.88 116.089 30.242 116.853 29.7647C117.617 29.2875 118.447 29.0488 119.341 29.0488C120.264 29.0488 121.103 29.2875 121.858 29.7647C122.622 30.2323 123.232 30.8654 123.689 31.6641C124.146 32.453 124.374 33.3345 124.374 34.3086C124.374 35.2826 124.146 36.169 123.689 36.9677C123.232 37.7566 122.622 38.3897 121.858 38.867C121.103 39.3345 120.264 39.5683 119.341 39.5683ZM119.341 36.2079C119.668 36.2079 119.966 36.1203 120.236 35.9449C120.516 35.7696 120.739 35.5407 120.907 35.2582C121.075 34.966 121.159 34.6495 121.159 34.3086C121.159 33.9677 121.075 33.656 120.907 33.3735C120.739 33.0813 120.516 32.8475 120.236 32.6722C119.966 32.4969 119.668 32.4092 119.341 32.4092C119.015 32.4092 118.712 32.4969 118.433 32.6722C118.162 32.8475 117.943 33.0813 117.776 33.3735C117.608 33.656 117.524 33.9677 117.524 34.3086C117.524 34.6495 117.608 34.966 117.776 35.2582C117.943 35.5407 118.162 35.7696 118.433 35.9449C118.712 36.1203 119.015 36.2079 119.341 36.2079Z" fill="#313896"/>
</g>
<defs>
<linearGradient id="paint0_linear_1874_58765" x1="45.6893" y1="58.6144" x2="83.4261" y2="58.6144" gradientUnits="userSpaceOnUse">
<stop stop-color="#DAE3FE"/>
<stop offset="1" stop-color="#E9EFFD"/>
</linearGradient>
<linearGradient id="paint1_linear_1874_58765" x1="57.1894" y1="74.1975" x2="63.5319" y2="74.1975" gradientUnits="userSpaceOnUse">
<stop stop-color="#DAE3FE"/>
<stop offset="1" stop-color="#E9EFFD"/>
</linearGradient>
<linearGradient id="paint2_linear_1874_58765" x1="71.1583" y1="74.4962" x2="77.8156" y2="74.4962" gradientUnits="userSpaceOnUse">
<stop stop-color="#DAE3FE"/>
<stop offset="1" stop-color="#E9EFFD"/>
</linearGradient>
<linearGradient id="paint3_linear_1874_58765" x1="125.724" y1="53.8886" x2="92.4612" y2="120.658" gradientUnits="userSpaceOnUse">
<stop stop-color="#E69D43"/>
<stop offset="1" stop-color="#D57912"/>
</linearGradient>
<linearGradient id="paint4_linear_1874_58765" x1="99.8268" y1="128.644" x2="75.1667" y2="94.6177" gradientUnits="userSpaceOnUse">
<stop stop-color="#E69D43"/>
<stop offset="1" stop-color="#D57912"/>
</linearGradient>
<linearGradient id="paint5_linear_1874_58765" x1="82.0705" y1="71.0063" x2="49.6101" y2="127.307" gradientUnits="userSpaceOnUse">
<stop stop-color="#E69D43"/>
<stop offset="1" stop-color="#D57912"/>
</linearGradient>
<linearGradient id="paint6_linear_1874_58765" x1="49.3597" y1="119.97" x2="14.7661" y2="84.4566" gradientUnits="userSpaceOnUse">
<stop stop-color="#E69D43"/>
<stop offset="1" stop-color="#D57912"/>
</linearGradient>
<clipPath id="clip0_1874_58765">
<rect width="143.298" height="125" fill="white" transform="translate(0.794922)"/>
</clipPath>
</defs>
</svg>
