<svg width="22" height="22" viewBox="0 0 22 22" fill="none" xmlns="http://www.w3.org/2000/svg">
<path d="M4.5442 9.54795C6.2722 12.944 9.0562 15.728 12.4522 17.456L15.0922 14.816C15.4282 14.48 15.8962 14.384 16.3162 14.516C17.6602 14.96 19.1002 15.2 20.6002 15.2C20.9185 15.2 21.2237 15.3264 21.4487 15.5514C21.6738 15.7765 21.8002 16.0817 21.8002 16.4V20.6C21.8002 20.9182 21.6738 21.2234 21.4487 21.4485C21.2237 21.6735 20.9185 21.8 20.6002 21.8C15.1898 21.8 10.001 19.6507 6.17522 15.8249C2.34947 11.9992 0.200195 6.81037 0.200195 1.39995C0.200195 1.08169 0.326623 0.776467 0.551667 0.551423C0.776711 0.326379 1.08194 0.199951 1.4002 0.199951H5.6002C5.91846 0.199951 6.22368 0.326379 6.44872 0.551423C6.67377 0.776467 6.8002 1.08169 6.8002 1.39995C6.8002 2.89995 7.04019 4.33995 7.4842 5.68395C7.6162 6.10395 7.5202 6.57195 7.1842 6.90795L4.5442 9.54795Z" fill="#313896"/>
</svg>
