<svg width="22" height="22" viewBox="0 0 22 22" fill="none" xmlns="http://www.w3.org/2000/svg">
<path d="M7.99922 0.199219C10.0679 0.199219 12.0519 1.021 13.5147 2.48379C14.9774 3.94657 15.7992 5.93053 15.7992 7.99922C15.7992 9.93122 15.0912 11.7072 13.9272 13.0752L14.2512 13.3992H15.1992L21.1992 19.3992L19.3992 21.1992L13.3992 15.1992V14.2512L13.0752 13.9272C11.7072 15.0912 9.93122 15.7992 7.99922 15.7992C5.93053 15.7992 3.94657 14.9774 2.48379 13.5147C1.021 12.0519 0.199219 10.0679 0.199219 7.99922C0.199219 5.93053 1.021 3.94657 2.48379 2.48379C3.94657 1.021 5.93053 0.199219 7.99922 0.199219V0.199219ZM7.99922 2.59922C4.99922 2.59922 2.59922 4.99922 2.59922 7.99922C2.59922 10.9992 4.99922 13.3992 7.99922 13.3992C10.9992 13.3992 13.3992 10.9992 13.3992 7.99922C13.3992 4.99922 10.9992 2.59922 7.99922 2.59922Z" fill="#313896"/>
</svg>
