<svg width="50" height="36" viewBox="0 0 50 36" fill="none" xmlns="http://www.w3.org/2000/svg">
<path d="M38.1998 32.3004C37.3246 32.3004 36.4852 31.9527 35.8664 31.3338C35.2475 30.715 34.8998 29.8756 34.8998 29.0004C34.8998 28.1252 35.2475 27.2858 35.8664 26.6669C36.4852 26.0481 37.3246 25.7004 38.1998 25.7004C39.075 25.7004 39.9144 26.0481 40.5333 26.6669C41.1521 27.2858 41.4998 28.1252 41.4998 29.0004C41.4998 29.8756 41.1521 30.715 40.5333 31.3338C39.9144 31.9527 39.075 32.3004 38.1998 32.3004ZM41.4998 12.5004L45.8118 18.0004H35.9998V12.5004H41.4998ZM11.7998 32.3004C10.9246 32.3004 10.0852 31.9527 9.46635 31.3338C8.84748 30.715 8.4998 29.8756 8.4998 29.0004C8.4998 28.1252 8.84748 27.2858 9.46635 26.6669C10.0852 26.0481 10.9246 25.7004 11.7998 25.7004C12.675 25.7004 13.5144 26.0481 14.1333 26.6669C14.7521 27.2858 15.0998 28.1252 15.0998 29.0004C15.0998 29.8756 14.7521 30.715 14.1333 31.3338C13.5144 31.9527 12.675 32.3004 11.7998 32.3004ZM42.5998 9.20039H35.9998V0.400391H5.1998C2.7578 0.400391 0.799805 2.35839 0.799805 4.80039V29.0004H5.1998C5.1998 30.7508 5.89516 32.4296 7.1329 33.6673C8.37064 34.905 10.0494 35.6004 11.7998 35.6004C13.5502 35.6004 15.229 34.905 16.4667 33.6673C17.7044 32.4296 18.3998 30.7508 18.3998 29.0004H31.5998C31.5998 30.7508 32.2952 32.4296 33.5329 33.6673C34.7706 34.905 36.4494 35.6004 38.1998 35.6004C39.9502 35.6004 41.629 34.905 42.8667 33.6673C44.1044 32.4296 44.7998 30.7508 44.7998 29.0004H49.1998V18.0004L42.5998 9.20039Z" fill="#313896"/>
</svg>
