<svg width="24" height="24" viewBox="0 0 24 24" fill="none" xmlns="http://www.w3.org/2000/svg">
<path d="M17.7 14.352C18 14.508 18.192 14.592 18.252 14.712C18.324 14.844 18.3 15.444 18 16.128C17.76 16.8 16.512 17.448 15.96 17.472C15.408 17.496 15.396 17.904 12.408 16.596C9.42 15.288 7.62 12.096 7.476 11.892C7.332 11.688 6.324 10.236 6.372 8.76C6.432 7.296 7.2 6.6 7.512 6.312C7.8 6 8.124 5.964 8.328 6H8.892C9.072 6 9.324 5.928 9.552 6.54L10.38 8.784C10.452 8.94 10.5 9.12 10.392 9.312L10.068 9.804L9.6 10.308C9.456 10.452 9.288 10.608 9.456 10.908C9.6 11.22 10.2 12.216 11.04 13.044C12.132 14.1 13.092 14.448 13.38 14.604C13.668 14.772 13.848 14.748 14.028 14.556L15 13.428C15.228 13.128 15.42 13.2 15.696 13.296L17.7 14.352ZM12 0C13.5759 0 15.1363 0.310389 16.5922 0.913446C18.0481 1.5165 19.371 2.40042 20.4853 3.51472C21.5996 4.62902 22.4835 5.95189 23.0866 7.4078C23.6896 8.86371 24 10.4241 24 12C24 15.1826 22.7357 18.2348 20.4853 20.4853C18.2348 22.7357 15.1826 24 12 24C9.636 24 7.44 23.316 5.58 22.14L0 24L1.86 18.42C0.684 16.56 0 14.364 0 12C0 8.8174 1.26428 5.76516 3.51472 3.51472C5.76516 1.26428 8.8174 0 12 0ZM12 2.4C9.45392 2.4 7.01212 3.41143 5.21178 5.21178C3.41143 7.01212 2.4 9.45392 2.4 12C2.4 14.064 3.048 15.972 4.152 17.532L3 21L6.468 19.848C8.028 20.952 9.936 21.6 12 21.6C14.5461 21.6 16.9879 20.5886 18.7882 18.7882C20.5886 16.9879 21.6 14.5461 21.6 12C21.6 9.45392 20.5886 7.01212 18.7882 5.21178C16.9879 3.41143 14.5461 2.4 12 2.4Z" fill="#313896"/>
<path d="M12.7775 8.1582C12.5703 8.1582 12.4023 8.32393 12.4023 8.52845C12.4023 8.73297 12.5703 8.8987 12.7775 8.8987C13.674 8.8987 14.4033 9.61837 14.4033 10.503C14.4033 10.7048 14.574 10.8733 14.7784 10.8733C14.9829 10.8733 15.1536 10.7048 15.1536 10.503C15.1536 9.21012 14.0877 8.1582 12.7775 8.1582Z" fill="#313896"/>
<path d="M12.7754 6.57812C12.6283 6.57812 12.4798 6.58616 12.3341 6.602C12.1281 6.62444 11.9796 6.80739 12.0023 7.01062C12.025 7.2138 12.2103 7.35986 12.4164 7.33802C12.5349 7.32509 12.6556 7.31853 12.7754 7.31853C14.5544 7.31853 16.0018 8.74688 16.0018 10.5025C16.0018 10.6207 15.9952 10.7399 15.9821 10.8569C15.9594 11.0601 16.1079 11.2431 16.3139 11.2655C16.5171 11.2872 16.7055 11.139 16.728 10.9381C16.744 10.7943 16.7521 10.6477 16.7521 10.5025C16.7522 8.33863 14.9683 6.57812 12.7754 6.57812Z" fill="#313896"/>
<path d="M12.7753 5C12.6329 5 12.4888 5.0054 12.3468 5.01598C12.1402 5.03145 11.9854 5.20923 12.0011 5.41315C12.0168 5.61707 12.1961 5.7695 12.4036 5.7543C12.5267 5.74507 12.6518 5.74045 12.7754 5.74045C15.4371 5.74045 17.6026 7.87744 17.6026 10.5041C17.6026 10.8758 17.5591 11.2457 17.4734 11.6037C17.427 11.7977 17.55 11.9977 17.7453 12.0474C17.946 12.0985 18.156 11.9729 18.2036 11.774C18.3027 11.3603 18.3529 10.9331 18.3529 10.5041C18.3529 7.46918 15.8508 5 12.7753 5Z" fill="#313896"/>
</svg>
