<svg width="24" height="15" viewBox="0 0 24 15" fill="none" xmlns="http://www.w3.org/2000/svg">
<path d="M20.6406 9.92005C22.5006 11.648 22.8846 12.476 22.9446 12.584C23.7126 13.856 22.1046 13.952 22.1046 13.952L19.0086 14C19.0086 14 18.3366 14.1321 17.4726 13.5321C16.3086 12.7401 15.1926 10.664 14.3646 10.94C13.5126 11.216 13.5366 13.076 13.5366 13.076C13.5366 13.076 13.5366 13.3401 13.3446 13.5441C13.1286 13.772 12.7086 13.688 12.7086 13.688H11.3286C11.3286 13.688 8.26859 14 5.59259 11.204C2.65259 8.15605 0.0605874 2.15605 0.0605874 2.15605C0.0605874 2.15605 -0.0834126 1.79605 0.0725874 1.59205C0.252587 1.40005 0.756587 1.40005 0.756587 1.40005H4.06859C4.06859 1.40005 4.39259 1.40005 4.59659 1.59205C4.77659 1.72405 4.88459 2.00005 4.88459 2.00005C4.88459 2.00005 5.41259 3.33205 6.13259 4.55605C7.51259 6.94405 8.14859 7.46005 8.59259 7.20805C9.31259 6.83605 9.10859 3.83605 9.10859 3.83605C9.10859 3.83605 9.12059 2.74405 8.76059 2.26405C8.48459 1.89205 7.95659 1.77205 7.72859 1.74805C7.53659 1.72405 7.84859 1.29205 8.24459 1.08805C8.84459 0.800049 9.88859 0.800049 11.1366 0.800049C12.1086 0.800049 12.3846 0.872049 12.7566 0.956049C13.9086 1.23205 13.5126 2.30005 13.5126 4.84405C13.5126 5.67205 13.3926 6.80005 13.9566 7.19605C14.2086 7.36405 14.8326 7.22005 16.3926 4.59205C17.1126 3.34405 17.6646 1.86805 17.6646 1.86805C17.6646 1.86805 17.7846 1.61605 17.9646 1.49605C18.1566 1.40005 18.4206 1.40005 18.4206 1.40005H21.9006C21.9006 1.40005 22.9566 1.28005 23.1246 1.74805C23.3046 2.24005 22.7286 3.40405 21.3006 5.28805C18.9726 8.40805 18.7086 8.12005 20.6406 9.92005Z" fill="#313896"/>
</svg>
